<?xml version="1.0" standalone="yes"?>
<svg xmlns="http://www.w3.org/2000/svg" width="164" height="31">
<path style="fill:#f7b5a3; stroke:none;" d="M0 0L0 31L164 31L164 0L149 0L151 3L5 3L5 7L18 7L18 21L5 21L5 25L153 25C143.329 31.9568 122.65 28 111 28L2 28L2 0L0 0z"/>
<path style="fill:#c92622; stroke:none;" d="M2 0L2 28L151 28L151 27L3 27L3 1L149 1C137.544 -3.80708 117.468 0 105 0L2 0z"/>
<path style="fill:#c36c6a; stroke:none;" d="M3 1L3 27L105 27C119.757 27 138.854 30.1815 153 26L153 25L5 25L5 3L151 3C143.004 -3.05791 120.968 1 111 1L3 1z"/>
<path style="fill:#42415e; stroke:none;" d="M5 7L5 21L18 21L18 7L5 7z"/>
<path style="fill:#f7b5a3; stroke:none;" d="M6 8L10 12L7 11L7 12L9 15L8 15L8 13L7 13L6 20L17 20L17 8L6 8z"/>
<path style="fill:#42415e; stroke:none;" d="M11 9L11 10L10 17L15 18L12 15L12 14C13.6618 11.587 13.4439 10.6075 11 9z"/>
<path style="fill:#91959e; stroke:none;" d="M9.33333 10.6667L9.66667 11.3333L9.33333 10.6667z"/>
<path style="fill:#c36c6a; stroke:none;" d="M33 10L33 17L34 17L33 10z"/>
<path style="fill:#42415e; stroke:none;" d="M34 10L34 11L38 11L34 10z"/>
<path style="fill:#c36c6a; stroke:none;" d="M45 10L46 11L45 10z"/>
<path style="fill:#42415e; stroke:none;" d="M45 11L45 12L50 12L45 11z"/>
<path style="fill:#c36c6a; stroke:none;" d="M52 10L52 17L53 17L52 10z"/>
<path style="fill:#42415e; stroke:none;" d="M53 10L53 11L57 12L57 11L53 10z"/>
<path style="fill:#91959e; stroke:none;" d="M56 10L57 11L56 10z"/>
<path style="fill:#c36c6a; stroke:none;" d="M67 10L67 17L68 17L67 10z"/>
<path style="fill:#91959e; stroke:none;" d="M68 10L68 17L69 17L68 10z"/>
<path style="fill:#c36c6a; stroke:none;" d="M71 10L72 11L71 10z"/>
<path style="fill:#91959e; stroke:none;" d="M72 10L72 17L73 17L72 10z"/>
<path style="fill:#c36c6a; stroke:none;" d="M77 10L78 11L77 10z"/>
<path style="fill:#42415e; stroke:none;" d="M77 12L80 11L77 12z"/>
<path style="fill:#91959e; stroke:none;" d="M80 10L82 12L80 10z"/>
<path style="fill:#c36c6a; stroke:none;" d="M90.3333 10.6667L90.6667 11.3333L90.3333 10.6667z"/>
<path style="fill:#91959e; stroke:none;" d="M91.3333 10.6667L91.6667 11.3333L91.3333 10.6667z"/>
<path style="fill:#c36c6a; stroke:none;" d="M92 10L92 17L93 17L92 10z"/>
<path style="fill:#42415e; stroke:none;" d="M93 10L93 11L97 11L93 10z"/>
<path style="fill:#c36c6a; stroke:none;" d="M104 10L105 11L104 10z"/>
<path style="fill:#42415e; stroke:none;" d="M104 11L104 12L109 12L104 11z"/>
<path style="fill:#c36c6a; stroke:none;" d="M111 10L111 17L112 17L111 10z"/>
<path style="fill:#42415e; stroke:none;" d="M112 10L112 11L116 12L116 11L112 10z"/>
<path style="fill:#91959e; stroke:none;" d="M115 10L116 11L115 10z"/>
<path style="fill:#c36c6a; stroke:none;" d="M126 10L126 17L127 17L126 10z"/>
<path style="fill:#91959e; stroke:none;" d="M127 10L127 17L128 17L127 10z"/>
<path style="fill:#c36c6a; stroke:none;" d="M130 10L131 11L130 10z"/>
<path style="fill:#91959e; stroke:none;" d="M131 10L131 17L132 17L131 10z"/>
<path style="fill:#c36c6a; stroke:none;" d="M133 10L134 17L135 17L133 10z"/>
<path style="fill:#91959e; stroke:none;" d="M134 10L135 11L134 10M6 11L7 12L6 11M34.3333 11.6667L34.6667 12.3333L34.3333 11.6667z"/>
<path style="fill:#f7b5a3; stroke:none;" d="M35 11L35 13L37 13L37 11L35 11z"/>
<path style="fill:#c36c6a; stroke:none;" d="M37.3333 11.6667L37.6667 12.3333L37.3333 11.6667z"/>
<path style="fill:#91959e; stroke:none;" d="M38 11L37 14L38 11M46 11L47 12L46 11z"/>
<path style="fill:#c36c6a; stroke:none;" d="M48 11L49 12L48 11z"/>
<path style="fill:#91959e; stroke:none;" d="M53.3333 11.6667L53.6667 12.3333L53.3333 11.6667z"/>
<path style="fill:#f7b5a3; stroke:none;" d="M54.3333 11.6667L54.6667 12.3333L54.3333 11.6667z"/>
<path style="fill:#c36c6a; stroke:none;" d="M55.3333 11.6667L55.6667 12.3333L55.3333 11.6667z"/>
<path style="fill:#42415e; stroke:none;" d="M71 11L72 12L71 11z"/>
<path style="fill:#f7b5a3; stroke:none;" d="M78 11L78 16L80 11L78 11z"/>
<path style="fill:#c36c6a; stroke:none;" d="M80 11L81 12L80 11z"/>
<path style="fill:#91959e; stroke:none;" d="M93.3333 11.6667L93.6667 12.3333L93.3333 11.6667z"/>
<path style="fill:#f7b5a3; stroke:none;" d="M94 11L94 13L96 13L96 11L94 11z"/>
<path style="fill:#c36c6a; stroke:none;" d="M96.3333 11.6667L96.6667 12.3333L96.3333 11.6667z"/>
<path style="fill:#91959e; stroke:none;" d="M97 11L96 14L97 11M105 11L106 12L105 11z"/>
<path style="fill:#c36c6a; stroke:none;" d="M107 11L108 12L107 11z"/>
<path style="fill:#91959e; stroke:none;" d="M112.333 11.6667L112.667 12.3333L112.333 11.6667z"/>
<path style="fill:#f7b5a3; stroke:none;" d="M113.333 11.6667L113.667 12.3333L113.333 11.6667z"/>
<path style="fill:#c36c6a; stroke:none;" d="M114.333 11.6667L114.667 12.3333L114.333 11.6667z"/>
<path style="fill:#42415e; stroke:none;" d="M130 11L131 12L130 11z"/>
<path style="fill:#c36c6a; stroke:none;" d="M39 12L41 14L39 12z"/>
<path style="fill:#42415e; stroke:none;" d="M40 12L41 13L40 12z"/>
<path style="fill:#c36c6a; stroke:none;" d="M42 12L43 13L42 12z"/>
<path style="fill:#91959e; stroke:none;" d="M43 12L44 13L43 12z"/>
<path style="fill:#c36c6a; stroke:none;" d="M44 12L44 15L45 15L44 12z"/>
<path style="fill:#91959e; stroke:none;" d="M45 12L46 16L47 16L45 12M56.3333 12.6667L56.6667 13.3333L56.3333 12.6667z"/>
<path style="fill:#42415e; stroke:none;" d="M58 12L58 13L61 13L61 16L58 16L58 17C61.8436 15.7225 61.8436 13.2775 58 12M63 12L63 13L66 13L66 16L63 16L63 17C66.8436 15.7225 66.8436 13.2775 63 12z"/>
<path style="fill:#c36c6a; stroke:none;" d="M70 12L71 17L72 17L70 12M76 12L76 15L77 15L76 12z"/>
<path style="fill:#91959e; stroke:none;" d="M77 12L77 15L78 15L77 12z"/>
<path style="fill:#42415e; stroke:none;" d="M81 12L81 15L82 15L81 12z"/>
<path style="fill:#c36c6a; stroke:none;" d="M82 12L82 17L83 17L82 12z"/>
<path style="fill:#91959e; stroke:none;" d="M83 12L84 13L83 12z"/>
<path style="fill:#c92622; stroke:none;" d="M84 12L85 13L84 12z"/>
<path style="fill:#42415e; stroke:none;" d="M85 12L83 15L85 12z"/>
<path style="fill:#91959e; stroke:none;" d="M86 12L86 17L87 17L86 12z"/>
<path style="fill:#42415e; stroke:none;" d="M90 12L91 13L90 12z"/>
<path style="fill:#f7b5a3; stroke:none;" d="M91 12L91 17L92 17L91 12z"/>
<path style="fill:#c36c6a; stroke:none;" d="M98 12L100 14L98 12z"/>
<path style="fill:#42415e; stroke:none;" d="M99 12L100 13L99 12z"/>
<path style="fill:#c36c6a; stroke:none;" d="M101 12L102 13L101 12z"/>
<path style="fill:#91959e; stroke:none;" d="M102 12L103 13L102 12z"/>
<path style="fill:#c36c6a; stroke:none;" d="M103 12L103 15L104 15L103 12z"/>
<path style="fill:#91959e; stroke:none;" d="M104 12L105 16L106 16L104 12M115.333 12.6667L115.667 13.3333L115.333 12.6667z"/>
<path style="fill:#42415e; stroke:none;" d="M117 12L117 13L120 13L120 16L117 16L117 17C120.844 15.7225 120.844 13.2775 117 12M122 12L122 13L125 13L125 16L122 16L122 17C125.844 15.7225 125.844 13.2775 122 12z"/>
<path style="fill:#c36c6a; stroke:none;" d="M129 12L130 17L131 17L129 12z"/>
<path style="fill:#91959e; stroke:none;" d="M135.333 12.6667L135.667 13.3333L135.333 12.6667z"/>
<path style="fill:#42415e; stroke:none;" d="M159.603 13.1566C157.87 14.3145 159.664 17.0014 161.397 15.8434C163.13 14.6855 161.336 11.9985 159.603 13.1566z"/>
<path style="fill:#91959e; stroke:none;" d="M6 13L6 16L7 16L6 13M8 13L9 14L8 13z"/>
<path style="fill:#42415e; stroke:none;" d="M34 13L34 14L38 15L38 14L34 13z"/>
<path style="fill:#f7b5a3; stroke:none;" d="M38 13L40 16L41 15L40 13L38 13z"/>
<path style="fill:#42415e; stroke:none;" d="M41 13L40 17L44 17L43 13L41 13z"/>
<path style="fill:#c36c6a; stroke:none;" d="M47 13L48 14L47 13z"/>
<path style="fill:#42415e; stroke:none;" d="M48 13L49 16L45 15L45 16C47.5215 16.3963 50.7663 15.6145 48 13M53 13L53 14L56 15L53 16L53 17L57 16L57 14L53 13z"/>
<path style="fill:#c36c6a; stroke:none;" d="M57 13L57 16L58 16L57 13z"/>
<path style="fill:#91959e; stroke:none;" d="M58 13L58 16L59 16L58 13z"/>
<path style="fill:#f7b5a3; stroke:none;" d="M59 13L59 16L61 15L61 14L59 13z"/>
<path style="fill:#c36c6a; stroke:none;" d="M60 13L61 14L60 13M62 13L62 16L63 16L62 13z"/>
<path style="fill:#91959e; stroke:none;" d="M63 13L63 16L64 16L63 13z"/>
<path style="fill:#f7b5a3; stroke:none;" d="M64 13L64 16L66 15L66 14L64 13z"/>
<path style="fill:#c36c6a; stroke:none;" d="M65 13L66 14L65 13M85 13L85 17L86 17L85 13M89 13L90 19L91 19L89 13z"/>
<path style="fill:#91959e; stroke:none;" d="M90 13L90 16L91 16L90 13z"/>
<path style="fill:#42415e; stroke:none;" d="M93 13L93 14L97 15L97 14L93 13z"/>
<path style="fill:#f7b5a3; stroke:none;" d="M97 13L99 16L100 15L99 13L97 13z"/>
<path style="fill:#42415e; stroke:none;" d="M100 13L99 17L103 17L102 13L100 13z"/>
<path style="fill:#c36c6a; stroke:none;" d="M106 13L107 14L106 13z"/>
<path style="fill:#42415e; stroke:none;" d="M107 13L108 16L104 15L104 16C106.521 16.3963 109.766 15.6145 107 13M112 13L112 14L115 15L112 16L112 17L116 16L116 14L112 13z"/>
<path style="fill:#c36c6a; stroke:none;" d="M116 13L116 16L117 16L116 13z"/>
<path style="fill:#91959e; stroke:none;" d="M117 13L117 16L118 16L117 13z"/>
<path style="fill:#f7b5a3; stroke:none;" d="M118 13L118 16L120 15L120 14L118 13z"/>
<path style="fill:#c36c6a; stroke:none;" d="M119 13L120 14L119 13M121 13L121 16L122 16L121 13z"/>
<path style="fill:#91959e; stroke:none;" d="M122 13L122 16L123 16L122 13z"/>
<path style="fill:#f7b5a3; stroke:none;" d="M123 13L123 16L125 15L125 14L123 13z"/>
<path style="fill:#c36c6a; stroke:none;" d="M124 13L125 14L124 13z"/>
<path style="fill:#f7b5a3; stroke:none;" d="M159.667 13.3333L160.333 13.6667L159.667 13.3333z"/>
<path style="fill:#c36c6a; stroke:none;" d="M8 14L9 15L8 14z"/>
<path style="fill:#91959e; stroke:none;" d="M34 14L34 17L35 17L34 14z"/>
<path style="fill:#c36c6a; stroke:none;" d="M36 14L37 15L36 14z"/>
<path style="fill:#91959e; stroke:none;" d="M42 14L43 15L42 14M53.3333 14.6667L53.6667 15.3333L53.3333 14.6667z"/>
<path style="fill:#f7b5a3; stroke:none;" d="M54.3333 14.6667L54.6667 15.3333L54.3333 14.6667z"/>
<path style="fill:#c36c6a; stroke:none;" d="M55.3333 14.6667L55.6667 15.3333L55.3333 14.6667z"/>
<path style="fill:#91959e; stroke:none;" d="M93 14L93 17L94 17L93 14z"/>
<path style="fill:#c36c6a; stroke:none;" d="M95 14L96 15L95 14z"/>
<path style="fill:#91959e; stroke:none;" d="M101 14L102 15L101 14M112.333 14.6667L112.667 15.3333L112.333 14.6667z"/>
<path style="fill:#f7b5a3; stroke:none;" d="M113.333 14.6667L113.667 15.3333L113.333 14.6667z"/>
<path style="fill:#c36c6a; stroke:none;" d="M114.333 14.6667L114.667 15.3333L114.333 14.6667z"/>
<path style="fill:#42415e; stroke:none;" d="M135 14L136 15L135 14z"/>
<path style="fill:#91959e; stroke:none;" d="M9 15L10 16L9 15z"/>
<path style="fill:#f7b5a3; stroke:none;" d="M11 15L11 17L13 17L11 15z"/>
<path style="fill:#c92622; stroke:none;" d="M37 15L38 16L37 15z"/>
<path style="fill:#91959e; stroke:none;" d="M38 15L39 16L38 15z"/>
<path style="fill:#c92622; stroke:none;" d="M40 15L41 16L40 15z"/>
<path style="fill:#c36c6a; stroke:none;" d="M48 15L49 16L48 15M60 15L61 16L60 15M65 15L66 16L65 15z"/>
<path style="fill:#42415e; stroke:none;" d="M77 15L80 17L80 16L77 15z"/>
<path style="fill:#c36c6a; stroke:none;" d="M80 15L81 16L80 15z"/>
<path style="fill:#91959e; stroke:none;" d="M81 15L82 16L81 15M83.3333 15.6667L83.6667 16.3333L83.3333 15.6667z"/>
<path style="fill:#c92622; stroke:none;" d="M96 15L97 16L96 15z"/>
<path style="fill:#91959e; stroke:none;" d="M97 15L98 16L97 15z"/>
<path style="fill:#c92622; stroke:none;" d="M99 15L100 16L99 15z"/>
<path style="fill:#c36c6a; stroke:none;" d="M107 15L108 16L107 15M119 15L120 16L119 15M124 15L125 16L124 15z"/>
<path style="fill:#91959e; stroke:none;" d="M135.333 15.6667L135.667 16.3333L135.333 15.6667z"/>
<path style="fill:#f7b5a3; stroke:none;" d="M159.667 15.3333L160.333 15.6667L159.667 15.3333z"/>
<path style="fill:#c36c6a; stroke:none;" d="M37 16L38 17L37 16z"/>
<path style="fill:#42415e; stroke:none;" d="M38 16L39 17L38 16z"/>
<path style="fill:#c36c6a; stroke:none;" d="M39 16L40 17L39 16M42 16L43 17L42 16M45 16L46 17L45 16z"/>
<path style="fill:#91959e; stroke:none;" d="M56 16L57 17L56 16z"/>
<path style="fill:#c36c6a; stroke:none;" d="M77 16L78 17L77 16z"/>
<path style="fill:#91959e; stroke:none;" d="M80 16L81 17L80 16z"/>
<path style="fill:#42415e; stroke:none;" d="M90 16L91 17L90 16z"/>
<path style="fill:#c36c6a; stroke:none;" d="M96 16L97 17L96 16z"/>
<path style="fill:#42415e; stroke:none;" d="M97 16L98 17L97 16z"/>
<path style="fill:#c36c6a; stroke:none;" d="M98 16L99 17L98 16M101 16L102 17L101 16M104 16L105 17L104 16z"/>
<path style="fill:#91959e; stroke:none;" d="M115 16L116 17L115 16M91.3333 17.6667L91.6667 18.3333L91.3333 17.6667z"/>
<path style="fill:#42415e; stroke:none;" d="M134 17L135 18L134 17z"/>
<path style="fill:#91959e; stroke:none;" d="M160 17L161 18L160 17z"/>
<path style="fill:#c36c6a; stroke:none;" d="M133 18L134 19L133 18z"/>
<path style="fill:#91959e; stroke:none;" d="M134 18L135 19L134 18z"/>
<path style="fill:#c36c6a; stroke:none;" d="M158 18L159 19L158 18z"/>
<path style="fill:#91959e; stroke:none;" d="M159 18L160 19L159 18z"/>
<path style="fill:#c36c6a; stroke:none;" d="M157 19L158 20L157 19z"/>
<path style="fill:#91959e; stroke:none;" d="M158 20L159 21L158 20M157 21L158 22L157 21M156 22L157 23L156 22M155 23L156 24L155 23z"/>
<path style="fill:#c36c6a; stroke:none;" d="M153 24L154 25L153 24z"/>
<path style="fill:#91959e; stroke:none;" d="M154 24L155 25L154 24M153 26C143.329 32.9568 122.65 29 111 29L5 29L5 30L118 30C124.715 30 150.937 33.6006 153 26z"/>
</svg>
