<?xml version="1.0" encoding="UTF-8"?>
<svg width="20pt" height="10pt" version="1.1" viewBox="100 200 500 600" xmlns="http://www.w3.org/2000/svg">
 <g>
  <path d="m541.75 405.84c-9.4727 0-18.469 4.7344-23.68 11.84-5.2109-7.1055-14.207-11.84-23.68-11.84-9.4727 0-18.469 4.7344-23.68 11.84-5.2109-7.1055-14.207-11.84-23.68-11.84s-18.469 4.7344-23.68 11.84c-5.2109-7.1055-14.207-11.84-23.68-11.84-16.102 0-29.836 13.262-29.836 29.836l0.003906 153.44h11.84v-153.91c0-9.9453 8.0508-17.996 17.996-17.996 9.9453 0 17.996 8.0508 17.996 17.996v6.1562h11.84v-6.1562c0-9.9453 8.0508-17.996 17.996-17.996 9.9453 0 17.996 8.0508 17.996 17.996v6.1562h11.84v-6.1562c0-9.9453 8.0508-17.996 17.996-17.996s17.996 8.0508 17.996 17.996v6.1562h11.84v-6.1562c0-9.9453 8.0508-17.996 17.996-17.996 9.9453 0 17.996 8.0508 17.996 17.996v153.91h11.84v-153.91c-1.4219-16.102-15.156-29.363-31.258-29.363z"/>
  <path d="m257.61 405.84c-9.4727 0-18.469 4.7344-23.68 11.84-5.2109-7.1055-14.207-11.84-23.68-11.84-16.102 0-29.836 13.262-29.836 29.836l0.003906 153.44h11.84v-153.91c0-9.9453 8.0508-17.996 17.996-17.996s17.996 8.0508 17.996 17.996v6.1562h11.84v-6.1562c0-9.9453 8.0508-17.996 17.996-17.996 9.9453 0 17.996 8.0508 17.996 17.996l-0.003906 153.91h11.84v-153.91c-0.47266-16.102-14.207-29.363-30.309-29.363z"/>
  <path d="m180.89 370.32h390.7v11.84h-390.7z"/>
  <path d="m346.64 311.12v6.1562c0 9.9453-8.0508 17.996-17.996 17.996-9.9453 0-17.996-8.0508-17.996-17.996v-154.39h-11.84v153.91c0 16.102 13.262 29.836 29.836 29.836 9.4727 0 18.469-4.7344 23.68-11.84 5.2109 7.1055 14.207 11.84 23.68 11.84s18.469-4.7344 23.68-11.84c5.2109 7.1055 14.207 11.84 23.68 11.84 16.102 0 29.836-13.262 29.836-29.836l-0.003907-153.91h-11.84v153.91c0 9.9453-8.0508 17.996-17.996 17.996s-17.996-8.0508-17.996-17.996v-6.1562h-11.84v6.1562c0 9.9453-8.0508 17.996-17.996 17.996-9.9453 0-17.996-8.0508-17.996-17.996v-6.1562h-10.891z"/>
 </g>
</svg>
