<?xml version="1.0" standalone="yes"?>
<svg xmlns="http://www.w3.org/2000/svg" width="640" height="480">
<path style="fill:#f7f7f7; stroke:none;" d="M0 0L0 480L640 480L640 0L0 0z"/>
<path style="fill:#55595f; stroke:none;" d="M314 19L314 27L315 27L314 19z"/>
<path style="fill:#080807; stroke:none;" d="M315 19L315 54L316 54L315 19z"/>
<path style="fill:#6288c1; stroke:none;" d="M316 19L316 34L317 34L316 19M314 27L314 60L315 60L314 27z"/>
<path style="fill:#55595f; stroke:none;" d="M316 34L315 89L316 89C316 73.3549 322.075 48.4765 316 34z"/>
<path style="fill:#6288c1; stroke:none;" d="M317 62L317 89L318 89L317 62z"/>
<path style="fill:#080807; stroke:none;" d="M316 66L316 89L121 89L121 360L313 360L313 444L314 444L314 360L524 360L524 89L317 89L316 66z"/>
<path style="fill:#55595f; stroke:none;" d="M120 89L120 360L121 360L121 169L121 114L120 89z"/>
<path style="fill:#6288c1; stroke:none;" d="M524 89L524 360L525 360L525 169L525 114L524 89z"/>
<path style="fill:#55595f; stroke:none;" d="M309 106L309 107L314 107L309 106z"/>
<path style="fill:#3f6cbd; stroke:none;" d="M287 117L289 119L286 118L285 124L289 123L289 127L285 126L288 128L288 210L389 211L438 210C437.598 161.408 391.527 121.312 348 109.884C333.674 106.123 319.572 106.064 305 107.471C297.668 108.178 289.517 109.229 287 117z"/>
<path style="fill:#55595f; stroke:none;" d="M324 106L324 107L329 107L324 106M300 107L300 108L303 108L300 107z"/>
<path style="fill:#6288c1; stroke:none;" d="M304 107L304 108L307 108L304 107z"/>
<path style="fill:#55595f; stroke:none;" d="M335 107L335 108L338 108L335 107M294.667 108.333L295.333 108.667L294.667 108.333z"/>
<path style="fill:#6288c1; stroke:none;" d="M298.667 108.333L299.333 108.667L298.667 108.333M303 108L304 109L303 108z"/>
<path style="fill:#55595f; stroke:none;" d="M342.667 108.333L343.333 108.667L342.667 108.333M290.667 109.333L291.333 109.667L290.667 109.333z"/>
<path style="fill:#3f6cbd; stroke:none;" d="M292 109L293 110L292 109z"/>
<path style="fill:#6288c1; stroke:none;" d="M277 116C266.493 115.05 255.079 124.146 247 130.011C218.74 150.526 207.022 178.438 199 211L304 211L304 210L288 210L288 128L285 126L289 127L289 123L285 124L286 118C288.413 118.569 289.589 116.911 287 117L295 110C291.551 108.584 276.976 112.129 277 116z"/>
<path style="fill:#55595f; stroke:none;" d="M346.667 109.333L347.333 109.667L346.667 109.333M286.667 110.333L287.333 110.667L286.667 110.333z"/>
<path style="fill:#6288c1; stroke:none;" d="M296 110L297 111L296 110z"/>
<path style="fill:#55595f; stroke:none;" d="M350.667 110.333L351.333 110.667L350.667 110.333M283.667 111.333L284.333 111.667L283.667 111.333M353.667 111.333L354.333 111.667L353.667 111.333M280 112L281 113L280 112z"/>
<path style="fill:#3f6cbd; stroke:none;" d="M281 112L282 113L281 112M286 112L283 116L283 117L286 112z"/>
<path style="fill:#55595f; stroke:none;" d="M357 112L358 113L357 112M277 113L278 114L277 113z"/>
<path style="fill:#3f6cbd; stroke:none;" d="M278 113L279 114L278 113M280 113L281 114L280 113M282 113L282 115L284 113L282 113z"/>
<path style="fill:#55595f; stroke:none;" d="M360 113L361 114L360 113M274 114L275 115L274 114z"/>
<path style="fill:#3f6cbd; stroke:none;" d="M275 114L275 116L277 116L275 114z"/>
<path style="fill:#55595f; stroke:none;" d="M363 114L364 115L363 114M272 115L273 116L272 115z"/>
<path style="fill:#3f6cbd; stroke:none;" d="M273 115L274 116L273 115M280 115L281 116L280 115z"/>
<path style="fill:#55595f; stroke:none;" d="M365 115L366 116L365 115M269 116L270 117L269 116z"/>
<path style="fill:#3f6cbd; stroke:none;" d="M270 116L271 117L270 116M278 116L279 117L278 116z"/>
<path style="fill:#55595f; stroke:none;" d="M267 117L268 118L267 117z"/>
<path style="fill:#3f6cbd; stroke:none;" d="M273.667 117.333L274.333 117.667L273.667 117.333M281 117L280 119L282 119L281 117z"/>
<path style="fill:#55595f; stroke:none;" d="M370 117L371 118L370 117M265 118L266 119L265 118M372 118L373 119L372 118M263 119L264 120L263 119z"/>
<path style="fill:#3f6cbd; stroke:none;" d="M275 119L276 120L275 119M278 119L279 120L278 119M283 119L284 120L283 119z"/>
<path style="fill:#55595f; stroke:none;" d="M374 119L375 120L374 119M261 120L262 121L261 120z"/>
<path style="fill:#3f6cbd; stroke:none;" d="M262 120L263 121L262 120z"/>
<path style="fill:#55595f; stroke:none;" d="M376 120L377 121L376 120M259 121L260 122L259 121z"/>
<path style="fill:#3f6cbd; stroke:none;" d="M260 121L261 122L260 121z"/>
<path style="fill:#55595f; stroke:none;" d="M378 121L379 122L378 121M258 122L259 123L258 122M256 123L257 124L256 123M381 123L382 124L381 123M254 124L255 125L254 124M383 124L384 125L383 124M253 125L254 126L253 125M384 125L385 126L384 125M251 126L252 127L251 126M386 126L387 127L386 126M250 127L251 128L250 127z"/>
<path style="fill:#6288c1; stroke:none;" d="M286 127L287 128L286 127z"/>
<path style="fill:#55595f; stroke:none;" d="M387 127L388 128L387 127M248 128L249 129L248 128z"/>
<path style="fill:#3f6cbd; stroke:none;" d="M249 128L250 129L249 128z"/>
<path style="fill:#55595f; stroke:none;" d="M389 128L390 129L389 128M247 129L248 130L247 129M390 129L391 130L390 129z"/>
<path style="fill:#3f6cbd; stroke:none;" d="M246 130L247 131L246 130z"/>
<path style="fill:#55595f; stroke:none;" d="M391 130L392 131L391 130M244 131L245 132L244 131M393 131L394 132L393 131M243 132L244 133L243 132M394 132L395 133L394 132M242 133L243 134L242 133M395 133L396 134L395 133z"/>
<path style="fill:#3f6cbd; stroke:none;" d="M241 134L242 135L241 134z"/>
<path style="fill:#55595f; stroke:none;" d="M399 136L400 137L399 136M237 137L238 138L237 137M400 137L401 138L400 137M236 138L237 139L236 138M401 138L402 139L401 138M235 139L236 140L235 139M402 139L403 140L402 139M234 140L235 141L234 140M403 140L404 141L403 140M233 141L234 142L233 141M404 141L405 142L404 141M232 142L233 143L232 142M405 142L406 143L405 142M231 143L232 144L231 143M406 143L407 144L406 143M230 144L231 145L230 144M407 144L408 145L407 144M229 145L230 146L229 145M408 145L409 146L408 145M228 146L229 147L228 146M409 146L410 147L409 146M410 147L411 148L410 147z"/>
<path style="fill:#3f6cbd; stroke:none;" d="M226 149L227 150L226 149z"/>
<path style="fill:#55595f; stroke:none;" d="M225 150L226 151L225 150M224 151L225 152L224 151M413 151L414 152L413 151M223 152L224 153L223 152M414 152L415 153L414 152M415 153L416 154L415 153M221 155L222 156L221 155M416 155L417 156L416 155M220 156L221 157L220 156M417 156L418 157L417 156M219 158L220 159L219 158M418 158L419 159L418 158M218 159L219 160L218 159M419 159L420 160L419 159M217 161L218 162L217 161M216 162L217 163L216 162M421 162L422 163L421 162M215 164L216 165L215 164M422 164L423 165L422 164M214 166L215 167L214 166M213 167L214 168L213 167M424 167L425 168L424 167M212 169L213 170L212 169M425 169L426 170L425 169M211 171L212 172L211 171M426 171L427 172L426 171M210 173L211 174L210 173M427 173L428 174L427 173M209 175L210 176L209 175M428 175L429 176L428 175M208 177L209 178L208 177M429 177L430 178L429 177M430.333 179.667L430.667 180.333L430.333 179.667M207 180L208 181L207 180M206 182L207 183L206 182M431 182L432 183L431 182M205.333 184.667L205.667 185.333L205.333 184.667M432.333 184.667L432.667 185.333L432.333 184.667M204 187L205 188L204 187M433 187L434 188L433 187z"/>
<path style="fill:#3f6cbd; stroke:none;" d="M204 188L205 189L204 188z"/>
<path style="fill:#55595f; stroke:none;" d="M203.333 190.667L203.667 191.333L203.333 190.667M434 190L435 191L434 190M435.333 193.667L435.667 194.333L435.333 193.667M202 194L203 195L202 194M201.333 197.667L201.667 198.333L201.333 197.667M436.333 197.667L436.667 198.333L436.333 197.667M200.333 201.667L200.667 202.333L200.333 201.667M437.333 201.667L437.667 202.333L437.333 201.667z"/>
<path style="fill:#3f6cbd; stroke:none;" d="M200 203L201 204L200 203z"/>
<path style="fill:#55595f; stroke:none;" d="M199 206L199 210L200 210L199 206M438 206L435 210L435 211L439 211L438 206z"/>
<path style="fill:#6288c1; stroke:none;" d="M289 207L291 209L289 207z"/>
<path style="fill:#55595f; stroke:none;" d="M336 241L336 242L392 242L374 241L336 241z"/>
<path style="fill:#3f6cbd; stroke:none;" d="M392 241L392 242L406 242L392 241z"/>
<path style="fill:#6288c1; stroke:none;" d="M349 242L352 244L352 245L347 245L347 246L351 246L348 249L348 250L352 250L352 252L348 252L351 255L351 256C345.759 259.398 348 270.347 348 276C348 295.743 345.434 319.823 350 339L349 341L345 341L345 342C392.522 338.218 436.988 287.843 439 241L349 242z"/>
<path style="fill:#55595f; stroke:none;" d="M439 241L439 245L440 245L439 241M221 242L221 243L270 243C257.348 237.691 234.788 242 221 242z"/>
<path style="fill:#3f6cbd; stroke:none;" d="M201 243C201.039 257.179 206.817 271.789 213.72 284C242.496 334.902 296.924 353.362 352 342L352 341L345 342L345 341L349 341L350 339C346.421 319.721 348 297.623 348 278C348 271.285 345.894 261 351 256L351 255L348 252L352 252L352 250L348 250L348 249L351 246L347 246L347 245L352 245C343.287 238.025 321.819 242 311 242C274.309 242 237.724 243 201 243z"/>
<path style="fill:#6288c1; stroke:none;" d="M341 242L341 243L344 243L341 242z"/>
<path style="fill:#55595f; stroke:none;" d="M200 243L200 248L201 248L200 243z"/>
<path style="fill:#3f6cbd; stroke:none;" d="M354 245L355 246L354 245M438 246L439 247L438 246z"/>
<path style="fill:#55595f; stroke:none;" d="M438 247L438 250L439 250L438 247z"/>
<path style="fill:#3f6cbd; stroke:none;" d="M351 248L352 249L351 248z"/>
<path style="fill:#55595f; stroke:none;" d="M201.333 251.667L201.667 252.333L201.333 251.667M437.333 252.667L437.667 253.333L437.333 252.667M202.333 255.667L202.667 256.333L202.333 255.667M436.333 256.667L436.667 257.333L436.333 256.667M203.333 259.667L203.667 260.333L203.333 259.667M435.333 260.667L435.667 261.333L435.333 260.667M204.333 262.667L204.667 263.333L204.333 262.667M434.333 263.667L434.667 264.333L434.333 263.667M205.333 265.667L205.667 266.333L205.333 265.667M433 266L434 267L433 266M206.333 268.667L206.667 269.333L206.333 268.667M432 269L433 270L432 269M207 271L208 272L207 271z"/>
<path style="fill:#3f6cbd; stroke:none;" d="M431 271L432 272L431 271z"/>
<path style="fill:#55595f; stroke:none;" d="M208 273L209 274L208 273M430 274L431 275L430 274M209.333 275.667L209.667 276.333L209.333 275.667M429 276L430 277L429 276M210 278L211 279L210 278M428 278L429 279L428 278M211 280L212 281L211 280M427 280L428 281L427 280M212.333 281.667L212.667 282.333L212.333 281.667M426 282L427 283L426 282M213 283L214 284L213 283M425 284L426 285L425 284M214 285L215 286L214 285z"/>
<path style="fill:#3f6cbd; stroke:none;" d="M424 285L425 286L424 285z"/>
<path style="fill:#55595f; stroke:none;" d="M215 287L216 288L215 287M423 287L424 288L423 287M216.333 288.667L216.667 289.333L216.333 288.667M422 289L423 290L422 289M217 290L218 291L217 290z"/>
<path style="fill:#3f6cbd; stroke:none;" d="M421 290L422 291L421 290z"/>
<path style="fill:#55595f; stroke:none;" d="M218 292L219 293L218 292M420 292L421 293L420 292M219 293L220 294L219 293M419 293L420 294L419 293M220.333 294.667L220.667 295.333L220.333 294.667M418 295L419 296L418 295M221 296L222 297L221 296M417 296L418 297L417 296M222 297L223 298L222 297M416 298L417 299L416 298M223 299L224 300L223 299M415 299L416 300L415 299M224 300L225 301L224 300M414 300L415 301L414 300M225 301L226 302L225 301z"/>
<path style="fill:#3f6cbd; stroke:none;" d="M413 301L414 302L413 301z"/>
<path style="fill:#55595f; stroke:none;" d="M226 302L227 303L226 302M412 303L413 304L412 303M227 304L228 305L227 304M411 304L412 305L411 304M228 305L229 306L228 305M410 305L411 306L410 305M229 306L230 307L229 306M409 306L410 307L409 306M230 307L231 308L230 307M408 307L409 308L408 307M231 308L232 309L231 308M407 308L408 309L407 308M232 309L233 310L232 309z"/>
<path style="fill:#3f6cbd; stroke:none;" d="M406 309L407 310L406 309z"/>
<path style="fill:#55595f; stroke:none;" d="M233 310L234 311L233 310M405 310L406 311L405 310M234 311L235 312L234 311z"/>
<path style="fill:#3f6cbd; stroke:none;" d="M404 311L405 312L404 311z"/>
<path style="fill:#55595f; stroke:none;" d="M235 312L236 313L235 312M403 312L404 313L403 312M236 313L237 314L236 313M402 313L403 314L402 313M237 314L238 315L237 314M401 314L402 315L401 314M238 315L239 316L238 315M400 315L401 316L400 315M239 316L240 317L239 316M399 316L400 317L399 316M240.667 317.333L241.333 317.667L240.667 317.333M398 317L399 318L398 317M242 318L243 319L242 318M397 318L398 319L397 318M243 319L244 320L243 319z"/>
<path style="fill:#3f6cbd; stroke:none;" d="M395 319L396 320L395 319z"/>
<path style="fill:#55595f; stroke:none;" d="M244 320L245 321L244 320M394 320L395 321L394 320M245 321L246 322L245 321z"/>
<path style="fill:#3f6cbd; stroke:none;" d="M392 321L391 323L392 321z"/>
<path style="fill:#55595f; stroke:none;" d="M393 321L394 322L393 321M247 322L248 323L247 322M392 322L393 323L392 322M248 323L249 324L248 323M390 323L391 324L390 323M249 324L250 325L249 324z"/>
<path style="fill:#3f6cbd; stroke:none;" d="M388 324L387 326L388 324z"/>
<path style="fill:#55595f; stroke:none;" d="M389 324L390 325L389 324M251 325L252 326L251 325M388 325L389 326L388 325M252.667 326.333L253.333 326.667L252.667 326.333z"/>
<path style="fill:#3f6cbd; stroke:none;" d="M385 326L386 327L385 326z"/>
<path style="fill:#55595f; stroke:none;" d="M386 326L387 327L386 326M254 327L255 328L254 327M384.667 327.333L385.333 327.667L384.667 327.333z"/>
<path style="fill:#3f6cbd; stroke:none;" d="M382 328L383 329L382 328z"/>
<path style="fill:#55595f; stroke:none;" d="M383 328L384 329L383 328M257 329L258 330L257 329z"/>
<path style="fill:#3f6cbd; stroke:none;" d="M380 329L381 330L380 329z"/>
<path style="fill:#55595f; stroke:none;" d="M381 329L382 330L381 329M259 330L260 331L259 330M379.667 330.333L380.333 330.667L379.667 330.333M260.667 331.333L261.333 331.667L260.667 331.333M377.667 331.333L378.333 331.667L377.667 331.333M262.667 332.333L263.333 332.667L262.667 332.333z"/>
<path style="fill:#3f6cbd; stroke:none;" d="M375 332L376 333L375 332z"/>
<path style="fill:#55595f; stroke:none;" d="M376 332L377 333L376 332M264.667 333.333L265.333 333.667L264.667 333.333z"/>
<path style="fill:#3f6cbd; stroke:none;" d="M373 333L374 334L373 333z"/>
<path style="fill:#55595f; stroke:none;" d="M374 333L375 334L374 333M266.667 334.333L267.333 334.667L266.667 334.333z"/>
<path style="fill:#3f6cbd; stroke:none;" d="M371 334L372 335L371 334z"/>
<path style="fill:#55595f; stroke:none;" d="M372 334L373 335L372 334M268 335L269 336L268 335M369.667 335.333L370.333 335.667L369.667 335.333M270.667 336.333L271.333 336.667L270.667 336.333z"/>
<path style="fill:#3f6cbd; stroke:none;" d="M352 336L353 337L352 336M356 336L357 337L356 336M366 336L367 337L366 336z"/>
<path style="fill:#55595f; stroke:none;" d="M367.667 336.333L368.333 336.667L367.667 336.333M273 337L274 338L273 337z"/>
<path style="fill:#3f6cbd; stroke:none;" d="M354 337L355 338L354 337M364 337L365 338L364 337z"/>
<path style="fill:#55595f; stroke:none;" d="M365.667 337.333L366.333 337.667L365.667 337.333M275.667 338.333L276.333 338.667L275.667 338.333z"/>
<path style="fill:#6288c1; stroke:none;" d="M346.333 338.667L346.667 339.333L346.333 338.667z"/>
<path style="fill:#3f6cbd; stroke:none;" d="M351 338L351 340L353 340L353 338L351 338M361 338L362 339L361 338z"/>
<path style="fill:#55595f; stroke:none;" d="M362.667 338.333L363.333 338.667L362.667 338.333M278 339L279 340L278 339z"/>
<path style="fill:#3f6cbd; stroke:none;" d="M358 339L359 340L358 339z"/>
<path style="fill:#55595f; stroke:none;" d="M359.667 339.333L360.333 339.667L359.667 339.333M281.667 340.333L282.333 340.667L281.667 340.333z"/>
<path style="fill:#3f6cbd; stroke:none;" d="M354.667 340.333L355.333 340.667L354.667 340.333z"/>
<path style="fill:#55595f; stroke:none;" d="M356 340L356 341L359 341L356 340M284.667 341.333L285.333 341.667L284.667 341.333z"/>
<path style="fill:#6288c1; stroke:none;" d="M343 341L344 342L343 341z"/>
<path style="fill:#55595f; stroke:none;" d="M352 341L352 342L355 342L352 341M288.667 342.333L289.333 342.667L288.667 342.333M349 342L349 343L352 343L349 342M292 343L293 344L292 343M345 343L345 344L348 344L345 343M296.667 344.333L297.333 344.667L296.667 344.333M340 344L340 345L344 345L340 344M302.667 345.333L303.333 345.667L302.667 345.333M333 345L333 346L338 346L333 345M312 346L312 347L328 347L312 346z"/>
<path style="fill:#6288c1; stroke:none;" d="M312 360L312 363L313 363L312 360M314 360L315 361L314 360z"/>
<path style="fill:#55595f; stroke:none;" d="M314 361L314 364L315 364L314 361M312 363L312 444L313 444L313 388L312 363z"/>
<path style="fill:#6288c1; stroke:none;" d="M315 365L315 369L316 369L315 365M314 369L314 444L315 444L315 392L314 369z"/>
</svg>
