<?xml version="1.0" standalone="yes"?>
<svg xmlns="http://www.w3.org/2000/svg" width="640" height="480">
<path style="fill:#f7f7f7; stroke:none;" d="M0 0L0 480L640 480L640 0L0 0z"/>
<path style="fill:#101110; stroke:none;" d="M174 100L174 230L19 230L19 232L174 232L174 382L501 382L501 236L606 236L606 234L501 234L501 100L174 100z"/>
<path style="fill:#919191; stroke:none;" d="M501 100L501 234L502 234L502 140C502 128.58 505.408 110.504 501 100z"/>
<path style="fill:#417aa8; stroke:none;" d="M271 333C264.189 324.101 253.979 317.875 246.805 309C228.42 286.256 222.647 260.55 223 232C230.909 236.221 243.175 234 252 234L319 234L320 314L321 314L319 123C292.358 128.02 267.453 139.117 249.289 160C205.297 210.579 211.838 296.158 271 333M352 124L352 140L353 140L352 124z"/>
<path style="fill:#2884c1; stroke:none;" d="M353 124L357 250L358 250L361 248L363 240L365 255L366 255L367 242L368 242C371.508 246.014 381.94 244 387 244L430 244C435.95 244 443.966 245.526 449 242L450 246C456.528 236.596 450.865 215.238 448.115 205C436.448 161.571 397.038 129.687 353 124z"/>
<path style="fill:#417aa8; stroke:none;" d="M356 124L356 125L360 125L356 124M361 125L361 126L365 126L361 125M367.667 126.333L368.333 126.667L367.667 126.333M369 127L369 128L372 128L369 127M374 128L375 129L374 128M376.667 129.333L377.333 129.667L376.667 129.333M379.667 130.333L380.333 130.667L379.667 130.333M381.667 131.333L382.333 131.667L381.667 131.333M384 132L385 133L384 132M386.667 133.333L387.333 133.667L386.667 133.333M388.667 134.333L389.333 134.667L388.667 134.333M390.667 135.333L391.333 135.667L390.667 135.333M392.667 136.333L393.333 136.667L392.667 136.333M394 137L395 138L394 137M396 138L397 139L396 138M397.667 139.333L398.333 139.667L397.667 139.333M399 140L400 141L399 140M400.667 141.333L401.333 141.667L400.667 141.333M402.667 142.333L403.333 142.667L402.667 142.333M404 143L405 144L404 143M405 144L406 145L405 144M406.667 145.333L407.333 145.667L406.667 145.333M408 146L409 147L408 146M409 147L410 148L409 147M410 148L413 150L410 148M413 150L414 151L413 150M414 151L415 152L414 151M416 153L417 154L416 153M417 154L418 155L417 154M353.333 155.667L353.667 156.333L353.333 155.667M418 155L419 156L418 155M419 156L420 157L419 156M420 157L421 158L420 157M353 158L356 352C433.444 345.837 470.454 257.984 445 192L444 192C446.773 210.512 454.732 226.651 451 246L450 246L449 242L429 244L388 244L368 242L367 242L366 255L365 255L363 240L361 248L358 250L357 250L354.004 190L353 158M421 158L422 159L421 158M422 159L423 160L422 159M423 160L424 161L423 160M424 161L425 162L424 161M425 162L426 163L425 162M426 163L429 167L426 163M429 167L430 168L429 167M430 168L432 171L430 168M432 171L433 172L432 171M433 172L435 175L433 172M435 175L436 176L435 175M436 177L438 180L436 177M438.333 180.667L438.667 181.333L438.333 180.667M439 182L440 183L439 182M440 184L443 192L444 192L440 184z"/>
<path style="fill:#2884c1; stroke:none;" d="M223 232C220.696 289.35 260.342 346.206 321 351L319 234L255 234C244.872 234 232.452 236.005 223 232z"/>
<path style="fill:#417aa8; stroke:none;" d="M360 235L360 240L361 240L360 235z"/>
<path style="fill:#919191; stroke:none;" d="M501 236L501 342C501 351.968 505.058 374.004 499 382L499 383C502.992 382.145 502 378.53 502 375L502 350L502 268C502 259.658 505.084 243.089 501 236z"/>
<path style="fill:#417aa8; stroke:none;" d="M448 237L448 240L449 240L448 237M321 328L321 351L322 351L321 328M272 333L273 334L272 333M274 334L275 335L274 334M275.667 335.333L276.333 335.667L275.667 335.333M277 336L278 337L277 336M279 337L280 338L279 337M280.667 338.333L281.333 338.667L280.667 338.333M282 339L283 340L282 339M284.667 340.333L285.333 340.667L284.667 340.333M286 341L287 342L286 341M288.667 342.333L289.333 342.667L288.667 342.333M291 343L292 344L291 343M293.667 344.333L294.333 344.667L293.667 344.333M296 345L297 346L296 345M298.667 346.333L299.333 346.667L298.667 346.333M302 347L303 348L302 347M305 348L305 349L308 349L305 348M309.667 349.333L310.333 349.667L309.667 349.333M314 350L314 351L317 351L314 350M319.667 351.333L320.333 351.667L319.667 351.333M174.667 382.333L175.333 382.667L174.667 382.333z"/>
<path style="fill:#919191; stroke:none;" d="M176 382L177 383L176 382z"/>
<path style="fill:#417aa8; stroke:none;" d="M177 382L177 383L180 383L177 382z"/>
<path style="fill:#919191; stroke:none;" d="M180 382L180 383L490 383L462 382L399 382L180 382z"/>
<path style="fill:#417aa8; stroke:none;" d="M490.667 382.333L491.333 382.667L490.667 382.333z"/>
<path style="fill:#919191; stroke:none;" d="M492 382L492 383L495 383L492 382z"/>
<path style="fill:#417aa8; stroke:none;" d="M495 382L496 383L495 382z"/>
<path style="fill:#919191; stroke:none;" d="M496.667 382.333L497.333 382.667L496.667 382.333z"/>
<path style="fill:#417aa8; stroke:none;" d="M498 382L499 383L498 382z"/>
</svg>
