<?xml version="1.0" standalone="yes"?>
<svg xmlns="http://www.w3.org/2000/svg" width="640" height="480">
<path style="fill:#f7f7f7; stroke:none;" d="M0 0L0 480L640 480L640 0L0 0z"/>
<path style="fill:#5f8dd0; stroke:none;" d="M198 178L198 179L255 179L237 178L198 178M292 178L293 179L292 178M294 178L294 179L350 179L350 189L328 188L291 189L291 182L257 183L257 184L272 186L270 185L271 187L267 187L267 188L269 190L262 191L262 192L264 191L264 192L258 191L258 192L250 210L246 211L246 212L251 212L251 213L248 213L248 217L245 215L247 226L245 225L245 226L249 227L251 216L254 216L251 230C244.357 228.108 242.302 231.496 246 237L244 236L244 237L253 256L255 255L260 260L261 263L261 265L259 265L259 266L266 266L266 267L262 267L262 268L281 268L281 273L315 274C314.319 266.139 323.453 268 329 268L375 268L373 278L374 278L375 273L408 273L408 277L409 277C407.692 269.165 395.157 272 389 272L389 271C394.874 268.362 403.477 262.794 404 256L408 256C411.106 243.491 418.11 233.843 415.775 220C414.569 212.846 408.54 207.358 408 200L396 189L391 191L390 191C387.09 187.439 384.396 187.413 385 182L351 183C349.866 176.207 342.465 178 337 178L294 178M385 178L385 179L443 179L424 178L385 178z"/>
<path style="fill:#5a5e62; stroke:none;" d="M197.667 179.333L198.333 179.667L197.667 179.333z"/>
<path style="fill:#060912; stroke:none;" d="M197 188L256 188L256 180L214 180L198.603 180.349L197 188z"/>
<path style="fill:#5a5e62; stroke:none;" d="M200 179L200 180L256 180L238 179L200 179z"/>
<path style="fill:#5f8dd0; stroke:none;" d="M256.333 179.667L256.667 180.333L256.333 179.667z"/>
<path style="fill:#5a5e62; stroke:none;" d="M291 179L291 180L350 180L331 179L291 179M385 179L386 180L385 179z"/>
<path style="fill:#060912; stroke:none;" d="M386 179L385 188L444 188L444 180L386 179z"/>
<path style="fill:#5a5e62; stroke:none;" d="M387 179L387 180L390 180L387 179M391 179L391 180L444 180L427 179L391 179z"/>
<path style="fill:#060912; stroke:none;" d="M291 180C291.03 182.521 290.61 186.066 293.318 187.397C302.761 192.037 323.448 188 334 188C337.906 188 344.099 189.158 347.682 187.397C350.39 186.066 349.97 182.521 350 180L291 180z"/>
<path style="fill:#5f8dd0; stroke:none;" d="M444 180C446.373 187.149 463.594 184 470 184L470 183C462.39 183 449.842 185.577 444 180M481 180L482 181L481 180z"/>
<path style="fill:#5a5e62; stroke:none;" d="M256 181L256 185L257 185L256 181M480 181L481 182L480 181z"/>
<path style="fill:#060912; stroke:none;" d="M481 181L478.172 188.49L489 193.373L506.91 205.09L515.174 213.289L525 210C517.603 192.531 497.465 186.265 481 181z"/>
<path style="fill:#5a5e62; stroke:none;" d="M482.667 181.333L483.333 181.667L482.667 181.333z"/>
<path style="fill:#5f8dd0; stroke:none;" d="M484.667 181.333L485.333 181.667L484.667 181.333M479 182L480 183L479 182z"/>
<path style="fill:#5a5e62; stroke:none;" d="M485.667 182.333L486.333 182.667L485.667 182.333z"/>
<path style="fill:#5f8dd0; stroke:none;" d="M487.667 182.333L488.333 182.667L487.667 182.333M189 183L189 184L197 184L189 183z"/>
<path style="fill:#5a5e62; stroke:none;" d="M350 183L349 188L350 188L350 183M444 183L444 186L445 186L444 183M479 183L480 184L479 183M489 183L490 184L489 183z"/>
<path style="fill:#5f8dd0; stroke:none;" d="M490.667 183.333L491.333 183.667L490.667 183.333M182 184L182 185L187 185L182 184z"/>
<path style="fill:#4361bd; stroke:none;" d="M166 190L168 194C159.403 198.066 151.826 203.883 146.711 212C143.786 216.64 143.359 224.71 137 225C134.717 232.725 137.131 240.194 141 247C149.147 245.751 153.793 253.539 160.015 257.88C167.959 263.422 178.334 267.157 188 268L188 272C211.019 273.817 231.86 269 255 269C262.029 269 274.253 266.646 280 271L281 271C279.85 265.632 266.693 268 262 268L262 267L266 267L266 266L259 266L259 265L261 263L260 260L255 255L253 256L244 236L246 237L246 236C243.347 232.11 244.96 226.962 250 230L251 230L252 216L251 216L249 227L245 226L245 225L247 226L247 225L245 215L248 217L251 213L251 212L246 212L246 211L250 210L258 192L258 191L264 191L262 192L262 191L269 190L267 188L267 187L270 185L272 186C268.556 182.059 257.739 182.762 256 188L197 188C193.907 178.681 172.36 187.55 166 190z"/>
<path style="fill:#5a5e62; stroke:none;" d="M196 184L197 185L196 184M290 184L291 185L290 184M384 184L384 187L385 187L384 184z"/>
<path style="fill:#4361bd; stroke:none;" d="M385 188L385 189L390 191L391 191L396 189C397.598 193.958 403.055 198.538 408 200L415.956 223L408 256L404 256C402.964 262.639 394.374 267.517 389 271L389 272C410.334 272 431.219 269 453 269C466.158 269 476.113 273.544 489 268L488 264C495.901 260.887 503.773 256.481 509.331 249.91C514.264 244.079 515.177 234.548 524 235L521 213C517.585 213.322 515.225 213.461 512.665 210.837C506.365 204.38 501.38 198.724 493 194.782C487.344 192.121 479.004 191.66 477 185L448.104 184.147L438.985 187.941L385 188z"/>
<path style="fill:#5f8dd0; stroke:none;" d="M472 184L472 185L479 185L472 184z"/>
<path style="fill:#5a5e62; stroke:none;" d="M492 184L493 185L492 184z"/>
<path style="fill:#5f8dd0; stroke:none;" d="M493.667 184.333L494.333 184.667L493.667 184.333M178 185L178 186L181 186L178 185z"/>
<path style="fill:#4361bd; stroke:none;" d="M290 185L291 189L292 189L290 185z"/>
<path style="fill:#5a5e62; stroke:none;" d="M477 185L478 186L477 185M494.667 185.333L495.333 185.667L494.667 185.333z"/>
<path style="fill:#5f8dd0; stroke:none;" d="M496 185L497 186L496 185M160 186L163 189L160 186M174 186L174 187L177 187L174 186M262 186L263 187L262 186z"/>
<path style="fill:#5a5e62; stroke:none;" d="M497 186L498 187L497 186z"/>
<path style="fill:#5f8dd0; stroke:none;" d="M498 186L498 187L502 188L502 187L498 186M158 187L159 188L158 187z"/>
<path style="fill:#5a5e62; stroke:none;" d="M159.667 187.333L160.333 187.667L159.667 187.333z"/>
<path style="fill:#5f8dd0; stroke:none;" d="M171.667 187.333L172.333 187.667L171.667 187.333z"/>
<path style="fill:#4361bd; stroke:none;" d="M350 187L351 188L350 187M384 187L385 188L384 187z"/>
<path style="fill:#5a5e62; stroke:none;" d="M499 187L500 188L499 187z"/>
<path style="fill:#5f8dd0; stroke:none;" d="M156 188L153 190L153 191L157 189L156 188z"/>
<path style="fill:#5a5e62; stroke:none;" d="M157 188L156 190L157 188z"/>
<path style="fill:#060912; stroke:none;" d="M168 194L168 192C153.486 184.943 130.813 203.385 130.477 219.941C130.398 223.841 137.306 226.688 140.49 224.868C143.984 222.871 145.653 214.4 148.044 211C153.34 203.467 160.527 199.037 168 194z"/>
<path style="fill:#5f8dd0; stroke:none;" d="M168.667 188.333L169.333 188.667L168.667 188.333z"/>
<path style="fill:#4361bd; stroke:none;" d="M296.667 188.333L297.333 188.667L296.667 188.333M302 188L303 189L302 188M349 188L350 189L349 188z"/>
<path style="fill:#5a5e62; stroke:none;" d="M502 188L503 189L502 188z"/>
<path style="fill:#5f8dd0; stroke:none;" d="M503 188L504 189L503 188z"/>
<path style="fill:#5a5e62; stroke:none;" d="M163 189L166 191L166 190L163 189z"/>
<path style="fill:#5f8dd0; stroke:none;" d="M164 189L164 190L168 190L164 189z"/>
<path style="fill:#4361bd; stroke:none;" d="M384 189L385 190L384 189z"/>
<path style="fill:#5f8dd0; stroke:none;" d="M504 189L505 190L504 189z"/>
<path style="fill:#5a5e62; stroke:none;" d="M154 190L155 191L154 190z"/>
<path style="fill:#4361bd; stroke:none;" d="M387 190L388 191L387 190z"/>
<path style="fill:#5a5e62; stroke:none;" d="M505 190L506 191L505 190z"/>
<path style="fill:#5f8dd0; stroke:none;" d="M506 190L507 191L506 190M151 191L150 193L151 191z"/>
<path style="fill:#5a5e62; stroke:none;" d="M152 191L153 192L152 191M507 191L508 192L507 191z"/>
<path style="fill:#5f8dd0; stroke:none;" d="M508 191L509 192L508 191z"/>
<path style="fill:#5a5e62; stroke:none;" d="M151 192L152 193L151 192z"/>
<path style="fill:#5f8dd0; stroke:none;" d="M509 192L510 193L509 192M148 193L147 195L148 193z"/>
<path style="fill:#5a5e62; stroke:none;" d="M149 193L150 194L149 193M510 193L511 194L510 193M148 194L149 195L148 194M492 194L493 195L492 194M511 194L512 195L511 194z"/>
<path style="fill:#5f8dd0; stroke:none;" d="M512 194L513 195L512 194M146 195L147 196L146 195M513 195L514 196L513 195z"/>
<path style="fill:#5a5e62; stroke:none;" d="M145 196L146 197L145 196M514 196L515 197L514 196z"/>
<path style="fill:#5f8dd0; stroke:none;" d="M143 197L142 199L143 197z"/>
<path style="fill:#5a5e62; stroke:none;" d="M144 197L145 198L144 197M515 197L516 198L515 197M143 198L144 199L143 198M516 198L518 200L516 198z"/>
<path style="fill:#5f8dd0; stroke:none;" d="M517 198L518 199L517 198M141 199L140 201L141 199z"/>
<path style="fill:#5a5e62; stroke:none;" d="M141 200L142 201L141 200M518 200L519 201L518 200M140 201L141 202L140 201M519 201L520 202L519 201M139 202L140 203L139 202M520 202L521 203L520 202M138 203L139 204L138 203z"/>
<path style="fill:#5f8dd0; stroke:none;" d="M521 203L522 204L521 203z"/>
<path style="fill:#5a5e62; stroke:none;" d="M137 204L138 205L137 204z"/>
<path style="fill:#5f8dd0; stroke:none;" d="M522 204L523 205L522 204M136 205L135 207L136 205z"/>
<path style="fill:#5a5e62; stroke:none;" d="M522 205L523 206L522 205M136 206L137 207L136 206M523 206L524 207L523 206M135 207L136 208L135 207z"/>
<path style="fill:#5f8dd0; stroke:none;" d="M524 207L525 208L524 207M134 208L135 209L134 208z"/>
<path style="fill:#4361bd; stroke:none;" d="M408 208L410 211L410 208L408 208z"/>
<path style="fill:#5f8dd0; stroke:none;" d="M525 208L526 209L525 208z"/>
<path style="fill:#5a5e62; stroke:none;" d="M134 209L135 210L134 209M525 209L523 210L523 211L525 209z"/>
<path style="fill:#5f8dd0; stroke:none;" d="M133 210L134 211L133 210M525 210L526 211L525 210z"/>
<path style="fill:#5a5e62; stroke:none;" d="M521 211L522 212L521 211z"/>
<path style="fill:#5f8dd0; stroke:none;" d="M522 211L523 212L522 211M132 212L133 213L132 212z"/>
<path style="fill:#5a5e62; stroke:none;" d="M520 212L521 213L520 212M132 213L133 214L132 213z"/>
<path style="fill:#5f8dd0; stroke:none;" d="M245 213L246 214L245 213M131 214L132 215L131 214M521 214L522 215L521 214z"/>
<path style="fill:#5a5e62; stroke:none;" d="M131 215L132 216L131 215z"/>
<path style="fill:#060912; stroke:none;" d="M205 216L211 229L215 216L214 216L210 226L205 216M217 216L219 229L217 216M222 216L222 229L223 229L223 224L229 229C230.526 222.075 230.055 216.262 222 216M232 216L232 217L236 217L236 229L237 229L237 217L241 217L232 216M243 216C243 220.346 242.127 225.264 246 228L243 216M252 216L252 225L253 225L252 216z"/>
<path style="fill:#4361bd; stroke:none;" d="M253 216L253 222L254 222L253 216M257 217L260 221L261 220L260 216L257 217z"/>
<path style="fill:#060912; stroke:none;" d="M260 216L259 219L262 224L258 224L259 219L258 219L255 229L256 229C258.502 224.937 261.626 224.707 264 229L265 229L260 216z"/>
<path style="fill:#4361bd; stroke:none;" d="M261.333 216.667L261.667 217.333L261.333 216.667M267 216L267 229L268 229L267 216z"/>
<path style="fill:#060912; stroke:none;" d="M268 216L268 229L275 229L275 228L269 228L268 216z"/>
<path style="fill:#4361bd; stroke:none;" d="M269 216C269 221.821 267.851 227.443 275 228L275 227L270 227L269 216M288 216C286.341 220.066 284.964 228.1 291 228L288 216z"/>
<path style="fill:#5a5e62; stroke:none;" d="M289 216L291 218L289 216z"/>
<path style="fill:#060912; stroke:none;" d="M290 216L290 217L293 217L290 216z"/>
<path style="fill:#4361bd; stroke:none;" d="M291 217L291 218L295 222C296.905 218.197 294.858 216.663 291 217z"/>
<path style="fill:#5a5e62; stroke:none;" d="M300 216L300 228L302 228L300 216z"/>
<path style="fill:#060912; stroke:none;" d="M301 216L301 217C304.987 217.637 306.355 218.909 306 223C309.209 218.512 305.452 216.34 301 216z"/>
<path style="fill:#4361bd; stroke:none;" d="M306 216L307 217L306 216M320 216L321 217L320 216z"/>
<path style="fill:#060912; stroke:none;" d="M321 216L321 217L324 217L321 216z"/>
<path style="fill:#4361bd; stroke:none;" d="M324 216L325 217L324 216z"/>
<path style="fill:#060912; stroke:none;" d="M325 216L326 220L327 220L325 216z"/>
<path style="fill:#4361bd; stroke:none;" d="M333 216L334 219L335 219L333 216z"/>
<path style="fill:#060912; stroke:none;" d="M334 216L335 217L334 216z"/>
<path style="fill:#4361bd; stroke:none;" d="M339 216L337 219L338 220L339 220L340 219L339 216z"/>
<path style="fill:#060912; stroke:none;" d="M339 217L339 218L344 217L339 217z"/>
<path style="fill:#4361bd; stroke:none;" d="M342 217L342 218L347 218L347 217L345 216L342 217z"/>
<path style="fill:#5a5e62; stroke:none;" d="M352.333 216.667L352.667 217.333L352.333 216.667z"/>
<path style="fill:#060912; stroke:none;" d="M353 216L353 217C358.48 220.231 352.919 224.802 351 229L358 229L358 228L352 228C355.683 224.104 360.542 218.297 353 216z"/>
<path style="fill:#4361bd; stroke:none;" d="M356 216L357 217L356 216M360 216L361 217L360 216z"/>
<path style="fill:#060912; stroke:none;" d="M361 216L361 217C363.897 220.824 363.897 227.176 361 231L361 232C366.151 230.896 364 220.405 364 216L361 216z"/>
<path style="fill:#4361bd; stroke:none;" d="M364 216L364 232L365 232L364 216z"/>
<path style="fill:#5f8dd0; stroke:none;" d="M522.333 216.667L522.667 217.333L522.333 216.667M130 217L131 218L130 217z"/>
<path style="fill:#5a5e62; stroke:none;" d="M223 217L223 222L224 222L223 217z"/>
<path style="fill:#4361bd; stroke:none;" d="M224 217L224 223L229 218L224 217z"/>
<path style="fill:#5a5e62; stroke:none;" d="M226.667 217.333L227.333 217.667L226.667 217.333M233 217L233 218L236 218L233 217M237.667 217.333L238.333 217.667L237.667 217.333z"/>
<path style="fill:#060912; stroke:none;" d="M288.667 217.333L289.333 217.667L288.667 217.333M294 217L296 219L294 217z"/>
<path style="fill:#5f8dd0; stroke:none;" d="M302 217L302 223L307 221L302 217z"/>
<path style="fill:#4361bd; stroke:none;" d="M305 217L306 218L305 217M307 217L308 218L307 217z"/>
<path style="fill:#5a5e62; stroke:none;" d="M320 217L320 221L322 221L322 217L320 217z"/>
<path style="fill:#4361bd; stroke:none;" d="M326 217L327 218L326 217z"/>
<path style="fill:#5a5e62; stroke:none;" d="M333 217L334 218L333 217M340.667 217.333L341.333 217.667L340.667 217.333z"/>
<path style="fill:#060912; stroke:none;" d="M345 217L346 218L345 217z"/>
<path style="fill:#4361bd; stroke:none;" d="M350 217L351 218L350 217z"/>
<path style="fill:#060912; stroke:none;" d="M351 217L352 218L351 217z"/>
<path style="fill:#4361bd; stroke:none;" d="M355 217L356 218L355 217z"/>
<path style="fill:#5a5e62; stroke:none;" d="M357 217L358 218L357 217M362 217L363 218L362 217M130 218L131 219L130 218z"/>
<path style="fill:#5f8dd0; stroke:none;" d="M240.667 218.333L241.333 218.667L240.667 218.333z"/>
<path style="fill:#4361bd; stroke:none;" d="M247 218L246 223L247 223L247 218z"/>
<path style="fill:#5a5e62; stroke:none;" d="M260 218L261 219L260 218z"/>
<path style="fill:#060912; stroke:none;" d="M287 218L288 219L287 218z"/>
<path style="fill:#5f8dd0; stroke:none;" d="M289.599 219.047C286.175 221.6 289.302 229.308 293.556 226.149C297.304 223.366 293.73 215.967 289.599 219.047z"/>
<path style="fill:#4361bd; stroke:none;" d="M306 218L307 219L306 218M325.333 218.667L325.667 219.333L325.333 218.667z"/>
<path style="fill:#060912; stroke:none;" d="M333 218L331 226L332 226L333 218M338 218L339 219L338 218z"/>
<path style="fill:#5f8dd0; stroke:none;" d="M340.314 219.047C336.422 221.491 339.093 229.116 343.733 226.712C348.405 224.292 345.283 215.927 340.314 219.047z"/>
<path style="fill:#060912; stroke:none;" d="M346 218L347 219L346 218z"/>
<path style="fill:#5a5e62; stroke:none;" d="M356 218L357 219L356 218z"/>
<path style="fill:#4361bd; stroke:none;" d="M362 218L363 219L362 218M262.333 219.667L262.667 220.333L262.333 219.667z"/>
<path style="fill:#060912; stroke:none;" d="M286 219L286 226L287 226L286 219M296 219C295.844 223.795 294.82 226.602 290 228L290 229C295.402 228.156 298.194 224.292 296 219z"/>
<path style="fill:#4361bd; stroke:none;" d="M300 219L301 220L300 219M308.333 219.667L308.667 220.333L308.333 219.667M327 219L326 222L327 219M332 219L333 220L332 219z"/>
<path style="fill:#060912; stroke:none;" d="M337 219C337.065 224.527 338.064 228.073 344 229L344 228C338.844 226.504 338.902 223.357 337 219z"/>
<path style="fill:#5a5e62; stroke:none;" d="M346 219L346 221L348 219L346 219z"/>
<path style="fill:#4361bd; stroke:none;" d="M356.333 219.667L356.667 220.333L356.333 219.667z"/>
<path style="fill:#5f8dd0; stroke:none;" d="M523.333 219.667L523.667 220.333L523.333 219.667z"/>
<path style="fill:#4361bd; stroke:none;" d="M257.333 220.667L257.667 221.333L257.333 220.667z"/>
<path style="fill:#5f8dd0; stroke:none;" d="M260 220L259 223L260 220z"/>
<path style="fill:#4361bd; stroke:none;" d="M285 220L285 225L286 225L285 220M333 220L334 221L333 220z"/>
<path style="fill:#060912; stroke:none;" d="M347 220L347 225L348 225L347 220z"/>
<path style="fill:#5f8dd0; stroke:none;" d="M129 221L130 222L129 221z"/>
<path style="fill:#5a5e62; stroke:none;" d="M228 221L229 222L228 221z"/>
<path style="fill:#5f8dd0; stroke:none;" d="M241 221L242 222L241 221z"/>
<path style="fill:#4361bd; stroke:none;" d="M261 221L258 222C259.499 224.076 262.093 223.887 261 221M297 221L297 224L298 224L297 221M306 221L307 222L306 221M320 221L320 232L321 232L322 221L320 221z"/>
<path style="fill:#060912; stroke:none;" d="M327.333 221.667L327.667 222.333L327.333 221.667z"/>
<path style="fill:#4361bd; stroke:none;" d="M336 221L336 224L337 224L336 221M346 221L347 222L346 221M357 221L358 222L357 221M362 221L363 222L362 221z"/>
<path style="fill:#5a5e62; stroke:none;" d="M129 222L129 224L131 224L129 222z"/>
<path style="fill:#4361bd; stroke:none;" d="M256.333 222.667L256.667 223.333L256.333 222.667M263 222L264 223L263 222M304 222L306 224L304 222z"/>
<path style="fill:#5a5e62; stroke:none;" d="M305 222L306 223L305 222z"/>
<path style="fill:#4361bd; stroke:none;" d="M307 222L308 223L307 222M328 222L327 225L328 222M331 222L332 223L331 222M355 222L356 223L355 222z"/>
<path style="fill:#5f8dd0; stroke:none;" d="M241 223L241 226L242 226L241 223z"/>
<path style="fill:#5a5e62; stroke:none;" d="M263 223L264 224L263 223z"/>
<path style="fill:#060912; stroke:none;" d="M301 223L301 224L305 224L301 223z"/>
<path style="fill:#4361bd; stroke:none;" d="M332 223L333 224L332 223M346 223L343 228L344 229L347 228L348 226L346 223M354 223L355 224L354 223M362 223L363 224L362 223z"/>
<path style="fill:#5f8dd0; stroke:none;" d="M524 223L524 233L525 233L524 223M130 224L130 225L134 225L130 224z"/>
<path style="fill:#5a5e62; stroke:none;" d="M134 224L134 225L137 226L134 224M210 224L211 225L210 224M223.333 224.667L223.667 225.333L223.333 224.667M256 224L257 225L256 224z"/>
<path style="fill:#4361bd; stroke:none;" d="M264.333 224.667L264.667 225.333L264.333 224.667M295.333 224.667L295.667 225.333L295.333 224.667z"/>
<path style="fill:#060912; stroke:none;" d="M328.333 224.667L328.667 225.333L328.333 224.667z"/>
<path style="fill:#4361bd; stroke:none;" d="M353 224L354 225L353 224z"/>
<path style="fill:#5f8dd0; stroke:none;" d="M135 225L135 234L136 234L135 225z"/>
<path style="fill:#5a5e62; stroke:none;" d="M209 225L210 226L209 225z"/>
<path style="fill:#5f8dd0; stroke:none;" d="M239 225L240 226L239 225M250 225L251 226L250 225z"/>
<path style="fill:#060912; stroke:none;" d="M251.333 225.667L251.667 226.333L251.333 225.667z"/>
<path style="fill:#4361bd; stroke:none;" d="M255.333 225.667L255.667 226.333L255.333 225.667z"/>
<path style="fill:#5a5e62; stroke:none;" d="M257 225L258 226L257 225z"/>
<path style="fill:#4361bd; stroke:none;" d="M262 225L263 226L262 225z"/>
<path style="fill:#5a5e62; stroke:none;" d="M328 227L331 225L328 227z"/>
<path style="fill:#4361bd; stroke:none;" d="M338 225L339 226L338 225M352 225L353 226L352 225M354 225L355 226L354 225z"/>
<path style="fill:#5f8dd0; stroke:none;" d="M242 226L243 227L242 226z"/>
<path style="fill:#4361bd; stroke:none;" d="M263.333 226.667L263.667 227.333L263.333 226.667z"/>
<path style="fill:#060912; stroke:none;" d="M287 226L289 228L287 226z"/>
<path style="fill:#4361bd; stroke:none;" d="M294 226L295 227L294 226M296 226L297 227L296 226M331 226L332 227L331 226M337 226L338 227L337 226z"/>
<path style="fill:#060912; stroke:none;" d="M346 226L347 227L346 226z"/>
<path style="fill:#4361bd; stroke:none;" d="M351 226L352 227L351 226M352 227L352 228L358 228L352 227z"/>
<path style="fill:#5f8dd0; stroke:none;" d="M239 227L241 229L241 230L239 232L242 232L243 228L239 227z"/>
<path style="fill:#060912; stroke:none;" d="M250 227L251 228L250 227z"/>
<path style="fill:#4361bd; stroke:none;" d="M256.333 227.667L256.667 228.333L256.333 227.667M265.333 227.667L265.667 228.333L265.333 227.667z"/>
<path style="fill:#5a5e62; stroke:none;" d="M269 227L270 228L269 227z"/>
<path style="fill:#4361bd; stroke:none;" d="M292.667 227.333L293.333 227.667L292.667 227.333M295 227L296 228L295 227M328 227L329 228L328 227z"/>
<path style="fill:#060912; stroke:none;" d="M329 227L329 229L331 227L329 227z"/>
<path style="fill:#5a5e62; stroke:none;" d="M338 227L339 228L338 227M340 227L341 228L340 227z"/>
<path style="fill:#060912; stroke:none;" d="M345 227L346 228L345 227z"/>
<path style="fill:#4361bd; stroke:none;" d="M350.333 227.667L350.667 228.333L350.333 227.667z"/>
<path style="fill:#060912; stroke:none;" d="M367.333 227.667L367.667 228.333L367.333 227.667z"/>
<path style="fill:#4361bd; stroke:none;" d="M368.333 227.667L368.667 228.333L368.333 227.667z"/>
<path style="fill:#060912; stroke:none;" d="M246 228L246 229L250 229L246 228z"/>
<path style="fill:#4361bd; stroke:none;" d="M254 228L255 229L254 228M300.667 228.333L301.333 228.667L300.667 228.333z"/>
<path style="fill:#5a5e62; stroke:none;" d="M321 228L321 231L322 231L321 228z"/>
<path style="fill:#4361bd; stroke:none;" d="M330 228L331 229L330 228M339 228L340 229L339 228M358 228L359 229L358 228z"/>
<path style="fill:#5f8dd0; stroke:none;" d="M235 229L236 230L235 229M237 229L238 230L237 229z"/>
<path style="fill:#4361bd; stroke:none;" d="M244 230L245 234L246 234L246 231L247 231L247 233L248 233L247 230L244 230z"/>
<path style="fill:#5a5e62; stroke:none;" d="M362 230L363 231L362 230z"/>
<path style="fill:#4361bd; stroke:none;" d="M250.667 231.333L251.333 231.667L250.667 231.333z"/>
<path style="fill:#060912; stroke:none;" d="M321 231L321 232L324 232L321 231z"/>
<path style="fill:#4361bd; stroke:none;" d="M360 231L361 232L360 231z"/>
<path style="fill:#060912; stroke:none;" d="M488 264C492.408 272.672 499.088 269.509 506 265.688C516.708 259.768 526.85 249.445 529 237C526.159 236.495 522.096 234.054 519.275 234.816C515.474 235.843 512.463 244.941 510.1 247.985C504.577 255.102 496.203 260.465 488 264z"/>
<path style="fill:#5a5e62; stroke:none;" d="M523 235L524 236L523 235z"/>
<path style="fill:#5f8dd0; stroke:none;" d="M524 235L525 236L524 235M136.333 236.667L136.667 237.333L136.333 236.667z"/>
<path style="fill:#5a5e62; stroke:none;" d="M516.333 236.667L516.667 237.333L516.333 236.667M525 236L525 237L528 237L525 236z"/>
<path style="fill:#5f8dd0; stroke:none;" d="M528.667 236.333L529.333 236.667L528.667 236.333z"/>
<path style="fill:#5a5e62; stroke:none;" d="M529 237L530 238L529 237z"/>
<path style="fill:#5f8dd0; stroke:none;" d="M529 238L530 239L529 238M137.333 239.667L137.667 240.333L137.333 239.667z"/>
<path style="fill:#5a5e62; stroke:none;" d="M528 240L529 241L528 240z"/>
<path style="fill:#5f8dd0; stroke:none;" d="M528 241L529 242L528 241M138 242L139 243L138 242z"/>
<path style="fill:#5a5e62; stroke:none;" d="M527 242L528 243L527 242z"/>
<path style="fill:#5f8dd0; stroke:none;" d="M527 243L528 244L527 243M139 244L140 245L139 244z"/>
<path style="fill:#5a5e62; stroke:none;" d="M526 245L527 246L526 245z"/>
<path style="fill:#5f8dd0; stroke:none;" d="M140 246L141 247L140 246z"/>
<path style="fill:#060912; stroke:none;" d="M137 250C143.406 262.349 158.2 269.48 171 273.279C178.816 275.599 185.761 277.723 188 268C179.528 266.858 170.255 264.049 163 259.455C152.412 252.751 149.754 243.797 137 250z"/>
<path style="fill:#5a5e62; stroke:none;" d="M525 246L526 247L525 246M141 247L142 248L141 247z"/>
<path style="fill:#5f8dd0; stroke:none;" d="M525 247L526 248L525 247M139 248L140 249L139 248z"/>
<path style="fill:#5a5e62; stroke:none;" d="M140 248L141 249L140 248M524 248L525 249L524 248z"/>
<path style="fill:#5f8dd0; stroke:none;" d="M137 249L138 250L137 249z"/>
<path style="fill:#5a5e62; stroke:none;" d="M138 249L139 250L138 249z"/>
<path style="fill:#5f8dd0; stroke:none;" d="M524 249L525 250L524 249M136 250L137 251L136 250z"/>
<path style="fill:#5a5e62; stroke:none;" d="M523 250L524 251L523 250M137 251L138 252L137 251M522 251L523 252L522 251z"/>
<path style="fill:#5f8dd0; stroke:none;" d="M137 252L138 253L137 252z"/>
<path style="fill:#5a5e62; stroke:none;" d="M521 252L520 254L521 252z"/>
<path style="fill:#5f8dd0; stroke:none;" d="M138 253L139 254L138 253M521 253L522 254L521 253M139 254L140 255L139 254M520 254L521 255L520 254M140 255L141 256L140 255z"/>
<path style="fill:#5a5e62; stroke:none;" d="M519 255L520 256L519 255z"/>
<path style="fill:#5f8dd0; stroke:none;" d="M141 256L142 257L141 256z"/>
<path style="fill:#5a5e62; stroke:none;" d="M158 256L159 257L158 256M518 256L519 257L518 256M142 257L143 258L142 257M517 257L518 258L517 257M143 258L144 259L143 258M516 258L517 259L516 258z"/>
<path style="fill:#5f8dd0; stroke:none;" d="M144 259L145 260L144 259z"/>
<path style="fill:#5a5e62; stroke:none;" d="M162 259L163 260L162 259z"/>
<path style="fill:#4361bd; stroke:none;" d="M401 259L402 260L401 259z"/>
<path style="fill:#5f8dd0; stroke:none;" d="M515 259L516 260L515 259M145 260L146 261L145 260z"/>
<path style="fill:#5a5e62; stroke:none;" d="M513 260L512 262L513 260z"/>
<path style="fill:#5f8dd0; stroke:none;" d="M514 260L515 261L514 260M146 261L148 263L146 261z"/>
<path style="fill:#5a5e62; stroke:none;" d="M147 261L148 262L147 261z"/>
<path style="fill:#5f8dd0; stroke:none;" d="M513 261L514 262L513 261z"/>
<path style="fill:#5a5e62; stroke:none;" d="M148 262L149 263L148 262M168 262L169 263L168 262M491 262L492 263L491 262M511 262L512 263L511 262z"/>
<path style="fill:#5f8dd0; stroke:none;" d="M149 263L150 264L149 263z"/>
<path style="fill:#5a5e62; stroke:none;" d="M489 263L490 264L489 263M509 263L510 264L509 263z"/>
<path style="fill:#5f8dd0; stroke:none;" d="M510 263L511 264L510 263M150 264L151 265L150 264z"/>
<path style="fill:#5a5e62; stroke:none;" d="M151 264L152 265L151 264z"/>
<path style="fill:#4361bd; stroke:none;" d="M265 264L265 265L268 265L265 264z"/>
<path style="fill:#5a5e62; stroke:none;" d="M508 264L509 265L508 264M152 265L153 266L152 265M506 265L507 266L506 265z"/>
<path style="fill:#5f8dd0; stroke:none;" d="M507 265L508 266L507 265M153 266L154 267L153 266z"/>
<path style="fill:#5a5e62; stroke:none;" d="M154 266L155 267L154 266M180 266L181 267L180 266z"/>
<path style="fill:#4361bd; stroke:none;" d="M267 266L268 267L267 266M272 266L273 267L272 266z"/>
<path style="fill:#5a5e62; stroke:none;" d="M504.667 266.333L505.333 266.667L504.667 266.333z"/>
<path style="fill:#5f8dd0; stroke:none;" d="M155 267L156 268L155 267z"/>
<path style="fill:#5a5e62; stroke:none;" d="M156 267L157 268L156 267M489 267L490 268L489 267M502.667 267.333L503.333 267.667L502.667 267.333z"/>
<path style="fill:#5f8dd0; stroke:none;" d="M157 268L158 269L157 268z"/>
<path style="fill:#5a5e62; stroke:none;" d="M158 268L159 269L158 268z"/>
<path style="fill:#4361bd; stroke:none;" d="M314 271L315 271L319 269L314 271z"/>
<path style="fill:#5a5e62; stroke:none;" d="M319 268L320 269L319 268z"/>
<path style="fill:#4361bd; stroke:none;" d="M320 268L320 269L358 269L374 271C375.734 266.4 364.813 268 362 268L320 268z"/>
<path style="fill:#5a5e62; stroke:none;" d="M464.667 268.333L465.333 268.667L464.667 268.333z"/>
<path style="fill:#5f8dd0; stroke:none;" d="M488 268L488 269L491 269L488 268z"/>
<path style="fill:#5a5e62; stroke:none;" d="M491 268L492 269L491 268M500.667 268.333L501.333 268.667L500.667 268.333z"/>
<path style="fill:#5f8dd0; stroke:none;" d="M159 269L160 270L159 269z"/>
<path style="fill:#5a5e62; stroke:none;" d="M160 269L161 270L160 269z"/>
<path style="fill:#060912; stroke:none;" d="M221 269L221 277L280 277L280 269L221 269M315 269L315 277L374 277L374 269L315 269M409 269L409 277L468 277L468 269L409 269z"/>
<path style="fill:#5f8dd0; stroke:none;" d="M485 269L485 270L488 270L485 269z"/>
<path style="fill:#5a5e62; stroke:none;" d="M492 269L496 272L496 271L492 269M498.667 269.333L499.333 269.667L498.667 269.333z"/>
<path style="fill:#5f8dd0; stroke:none;" d="M161 270L162 271L161 270z"/>
<path style="fill:#5a5e62; stroke:none;" d="M162 270L163 271L162 270M408 270L408 273L409 273L408 270z"/>
<path style="fill:#5f8dd0; stroke:none;" d="M481 270L481 271L485 271L481 270M492 270L493 271L492 270z"/>
<path style="fill:#5a5e62; stroke:none;" d="M496.667 270.333L497.333 270.667L496.667 270.333z"/>
<path style="fill:#5f8dd0; stroke:none;" d="M163 271L164 272L163 271z"/>
<path style="fill:#5a5e62; stroke:none;" d="M164.667 271.333L165.333 271.667L164.667 271.333M187 271L186 273L187 271M220.333 271.667L220.667 272.333L220.333 271.667M280 271L280 274L281 274L280 271M314.333 271.667L314.667 272.333L314.333 271.667M374.333 271.667L374.667 272.333L374.333 271.667M468.333 271.667L468.667 272.333L468.333 271.667z"/>
<path style="fill:#5f8dd0; stroke:none;" d="M476 271L476 272L481 272L476 271M493 271L494 272L493 271M166 272L167 273L166 272z"/>
<path style="fill:#5a5e62; stroke:none;" d="M167.667 272.333L168.333 272.667L167.667 272.333z"/>
<path style="fill:#5f8dd0; stroke:none;" d="M187 272L187 273L193 273L187 272M195 273L195 274L216 274L216 272L195 273M217 272L218 273L217 272M219 272L220 273L219 272M469 272L469 273L475 273L469 272M169 273L170 274L169 273z"/>
<path style="fill:#5a5e62; stroke:none;" d="M170.667 273.333L171.333 273.667L170.667 273.333z"/>
<path style="fill:#5f8dd0; stroke:none;" d="M218 273L219 274L218 273M220 273L221 274L220 273M468 273L468 277L469 277L468 273M172.667 274.333L173.333 274.667L172.667 274.333z"/>
<path style="fill:#5a5e62; stroke:none;" d="M174.667 274.333L175.333 274.667L174.667 274.333M185 274L186 275L185 274z"/>
<path style="fill:#5f8dd0; stroke:none;" d="M280 274L280 278L281 278L280 274M176.667 275.333L177.333 275.667L176.667 275.333z"/>
<path style="fill:#5a5e62; stroke:none;" d="M178 275L178 276L181 276L178 275z"/>
<path style="fill:#5f8dd0; stroke:none;" d="M185 275L186 276L185 275M181.667 276.333L182.333 276.667L181.667 276.333z"/>
<path style="fill:#5a5e62; stroke:none;" d="M183.667 276.333L184.333 276.667L183.667 276.333M221 277L221 278L280 278L261 277L221 277M315 277L315 278L373 278L354 277L315 277M409 277L409 278L468 278L449 277L409 277z"/>
</svg>
