<?xml version="1.0" standalone="yes"?>
<svg xmlns="http://www.w3.org/2000/svg" width="640" height="480">
<path style="fill:#f7f7f7; stroke:none;" d="M0 0L0 480L640 480L640 0L0 0z"/>
<path style="fill:#5d86d7; stroke:none;" d="M167 152L166 154L167 152z"/>
<path style="fill:#0a132c; stroke:none;" d="M168 152L167 153L167 155L168 156L170 156L171 155L171 153L170 152L168 152z"/>
<path style="fill:#444f64; stroke:none;" d="M170 152L171 153L170 152z"/>
<path style="fill:#3e63bb; stroke:none;" d="M178 152L179 153L178 152z"/>
<path style="fill:#0a132c; stroke:none;" d="M179 152L178 153L178 155L179 156L181 156L182 155L182 153L181 152L179 152z"/>
<path style="fill:#444f64; stroke:none;" d="M181 152L182 153L181 152z"/>
<path style="fill:#3e63bb; stroke:none;" d="M189 152L190 153L189 152z"/>
<path style="fill:#0a132c; stroke:none;" d="M190 152L189 153L189 155L190 156L192 156L193 155L193 153L192 152L190 152z"/>
<path style="fill:#444f64; stroke:none;" d="M192 152L193 153L192 152z"/>
<path style="fill:#5d86d7; stroke:none;" d="M200 152L193 153L194 156C190.83 156.168 189.19 156.523 189 153L182 153L183 156L177 156L178 153L171 153L172 156L145 162L147 158L146 158C142.75 161.893 128.605 171.819 125 167L119 169L120 172L105 177L104 174L98 176L99 179L87 179L89 182L84 184L83 181L77 183L78 186L66 186L68 189L55 189L57 193L34 196L36 200L31 198L30 198L23 204L29 211L30 211L30 206L38 212L39 212C41.5025 210.199 42.4503 211.11 43 214L55 215L53 218L60 221L61 221L60 217L64 221C67.6796 220.834 73.9582 219.795 75 224L81 228L82 228L81 224L85 228C88.4326 227.733 95.4167 226.943 96 231L112 236C114.478 234.266 116.27 234.993 117 238L123 242L124 242L122 238L132 244L133 244C134.747 241.011 137.201 241.71 138 245C144.75 245.848 147.979 245.785 153 251L154 251L176 252L174 256L183 256L181 252L194 256L191 252L198 250L199 250L196 256C199.788 254.008 201.263 253.896 205 256L203 252L212 252L212 251L210 251L210 250L213 248L210 249L211 246C208.318 244.228 208.318 242.772 211 241L210 245L214 246L212 243L214 240L208 240L208 192L212 193L210 189L199 192L199 180L195 180C197.692 174.472 208.948 176.439 214 178L208 175L208 159L215 160L215 159L213 160L213 156L212 156L210 159L209 156L212 152L207 155L209 157L206 158L205 153L204 153L204 157L199 156L200 152z"/>
<path style="fill:#0a132c; stroke:none;" d="M201 152L200 153L200 155L201 156L203 156L204 155L204 153L203 152L201 152z"/>
<path style="fill:#444f64; stroke:none;" d="M203 152L204 153L203 152z"/>
<path style="fill:#0a132c; stroke:none;" d="M212 152L211 153L211 155L212 156L214 156L215 155L215 153L214 152L212 152z"/>
<path style="fill:#444f64; stroke:none;" d="M214 152L215 153L214 152z"/>
<path style="fill:#5d86d7; stroke:none;" d="M222 152L221 154L222 152z"/>
<path style="fill:#0a132c; stroke:none;" d="M223 152L222 153L222 155L223 156L225 156L226 155L226 153L225 152L223 152z"/>
<path style="fill:#444f64; stroke:none;" d="M225 152L226 153L225 152z"/>
<path style="fill:#3e63bb; stroke:none;" d="M233 152L234 153L233 152z"/>
<path style="fill:#0a132c; stroke:none;" d="M234 152L233 153L233 155L234 156L236 156L237 155L237 153L236 152L234 152z"/>
<path style="fill:#444f64; stroke:none;" d="M236 152L237 153L236 152z"/>
<path style="fill:#5d86d7; stroke:none;" d="M244 152L243 154L244 152z"/>
<path style="fill:#0a132c; stroke:none;" d="M245 152L244 153L244 155L245 156L247 156L248 155L248 153L247 152L245 152z"/>
<path style="fill:#444f64; stroke:none;" d="M247 152L248 153L247 152z"/>
<path style="fill:#3e63bb; stroke:none;" d="M255 152L256 153L255 152z"/>
<path style="fill:#0a132c; stroke:none;" d="M256 152L255 153L255 155L256 156L258 156L259 155L259 153L258 152L256 152z"/>
<path style="fill:#444f64; stroke:none;" d="M258 152L259 153L258 152z"/>
<path style="fill:#3e63bb; stroke:none;" d="M266 152L267 153L266 152z"/>
<path style="fill:#0a132c; stroke:none;" d="M267 152L266 153L266 155L270 156L269 152L267 152z"/>
<path style="fill:#444f64; stroke:none;" d="M269 152L270 153L269 152M277 152L278 153L277 152z"/>
<path style="fill:#0a132c; stroke:none;" d="M278 152L277 153L277 155L278 156L280 156L281 155L281 153L280 152L278 152z"/>
<path style="fill:#444f64; stroke:none;" d="M280 152L281 153L280 152z"/>
<path style="fill:#5d86d7; stroke:none;" d="M288 152L287 154L288 152z"/>
<path style="fill:#0a132c; stroke:none;" d="M289 152L288 153L288 155L289 156L291 156L292 155L292 153L291 152L289 152z"/>
<path style="fill:#444f64; stroke:none;" d="M291 152L292 153L291 152z"/>
<path style="fill:#5d86d7; stroke:none;" d="M299 152L298 154L299 152z"/>
<path style="fill:#0a132c; stroke:none;" d="M300 152L299 153L299 155L300 156L302 156L303 155L303 153L302 152L300 152z"/>
<path style="fill:#444f64; stroke:none;" d="M302 152L303 153L302 152z"/>
<path style="fill:#5d86d7; stroke:none;" d="M310 152L309 154L310 152z"/>
<path style="fill:#0a132c; stroke:none;" d="M311 152L310 153L310 155L311 156L313 156L314 155L314 153L313 152L311 152z"/>
<path style="fill:#444f64; stroke:none;" d="M313 152L314 153L313 152z"/>
<path style="fill:#5d86d7; stroke:none;" d="M321 152L320 154L321 152z"/>
<path style="fill:#0a132c; stroke:none;" d="M322 152L321 153L321 155L322 156L324 156L325 155L325 153L324 152L322 152z"/>
<path style="fill:#444f64; stroke:none;" d="M324 152L325 153L324 152z"/>
<path style="fill:#5d86d7; stroke:none;" d="M332 152L331 154L332 152z"/>
<path style="fill:#0a132c; stroke:none;" d="M333 152L332 153L332 155L336 156L335 152L333 152z"/>
<path style="fill:#444f64; stroke:none;" d="M335 152L336 153L335 152M343 152L344 153L343 152z"/>
<path style="fill:#0a132c; stroke:none;" d="M344 152L343 156L347 156L346 152L344 152z"/>
<path style="fill:#444f64; stroke:none;" d="M346 152L347 153L346 152M354 152L355 153L354 152z"/>
<path style="fill:#0a132c; stroke:none;" d="M355 152L354 156L358 156L357 152L355 152z"/>
<path style="fill:#444f64; stroke:none;" d="M357 152L358 153L357 152M365 152L366 153L365 152z"/>
<path style="fill:#0a132c; stroke:none;" d="M366 152L365 153L365 155L369 156L368 152L366 152z"/>
<path style="fill:#444f64; stroke:none;" d="M368 152L369 153L368 152z"/>
<path style="fill:#5d86d7; stroke:none;" d="M376 152L375 154L376 152z"/>
<path style="fill:#0a132c; stroke:none;" d="M377 152L376 156L380 156L379 152L377 152z"/>
<path style="fill:#444f64; stroke:none;" d="M379 152L380 153L379 152z"/>
<path style="fill:#5d86d7; stroke:none;" d="M387 152L386 154L387 152z"/>
<path style="fill:#0a132c; stroke:none;" d="M388 152L387 156L391 156L390 152L388 152z"/>
<path style="fill:#444f64; stroke:none;" d="M390 152L391 153L390 152z"/>
<path style="fill:#5d86d7; stroke:none;" d="M398 152L397 154L398 152z"/>
<path style="fill:#0a132c; stroke:none;" d="M399 152L398 156L402 156L401 152L399 152z"/>
<path style="fill:#444f64; stroke:none;" d="M401 152L402 153L401 152z"/>
<path style="fill:#5d86d7; stroke:none;" d="M409 152L408 154L409 152z"/>
<path style="fill:#0a132c; stroke:none;" d="M410 152L409 156L413 156L412 152L410 152z"/>
<path style="fill:#444f64; stroke:none;" d="M412 152L413 153L412 152z"/>
<path style="fill:#5d86d7; stroke:none;" d="M420 152L419 154L420 152z"/>
<path style="fill:#0a132c; stroke:none;" d="M421 152L420 156L424 156L423 152L421 152z"/>
<path style="fill:#444f64; stroke:none;" d="M423 152L424 153L423 152z"/>
<path style="fill:#5d86d7; stroke:none;" d="M431 152L430 154L431 152z"/>
<path style="fill:#0a132c; stroke:none;" d="M430 155L436 155C433.546 152.703 432.454 152.703 430 155z"/>
<path style="fill:#444f64; stroke:none;" d="M434 152L435 153L434 152M442 152L443 153L442 152z"/>
<path style="fill:#0a132c; stroke:none;" d="M441 155L446 156L445 152L441 155z"/>
<path style="fill:#444f64; stroke:none;" d="M445 152L446 153L445 152M453 152L454 153L453 152z"/>
<path style="fill:#0a132c; stroke:none;" d="M452 155L457 156L456 152L452 155z"/>
<path style="fill:#444f64; stroke:none;" d="M456 152L457 153L456 152z"/>
<path style="fill:#5d86d7; stroke:none;" d="M464 152L463 154L464 152z"/>
<path style="fill:#0a132c; stroke:none;" d="M463 155L468 156L467 152L463 155z"/>
<path style="fill:#444f64; stroke:none;" d="M467 152L468 153L467 152z"/>
<path style="fill:#5d86d7; stroke:none;" d="M215 153L216 154L215 153M226 153L227 154L226 153M232 153L233 154L232 153M237 153L238 154L237 153M248 153L250 155L248 153M254 153L255 154L254 153M259 153L260 154L259 153M265 153L266 154L265 153M270 153L271 154L270 153M276 153L277 154L276 153M281 153L282 154L281 153M292 153L293 154L292 153M303 153L304 154L303 153M314 153L315 154L314 153M325 153L326 154L325 153M336 153L337 154L336 153M342 153L343 154L342 153M347 153L348 154L347 153M353 153L354 154L353 153M358 153L359 154L358 153M364 153L365 154L364 153M369 153L370 154L369 153M380 153L381 154L380 153M391 153L392 154L391 153M402 153L403 154L402 153M413 153L414 154L413 153M424 153L425 154L424 153M435 153L436 154L435 153M441 153L442 154L441 153M446 153L447 154L446 153M452 153L453 154L452 153M457 153L458 154L457 153M468 153L471 155L471 154L468 153z"/>
<path style="fill:#444f64; stroke:none;" d="M166 154L168 156L166 154M171 154L170 156L171 154z"/>
<path style="fill:#3e63bb; stroke:none;" d="M173 154L174 155L173 154z"/>
<path style="fill:#444f64; stroke:none;" d="M177 154L179 156L177 154M182 154L181 156L182 154M188 154L190 156L188 154M193 154L192 156L193 154z"/>
<path style="fill:#3e63bb; stroke:none;" d="M197 154L198 155L197 154z"/>
<path style="fill:#444f64; stroke:none;" d="M199 154L201 156L199 154M204 154L203 156L204 154z"/>
<path style="fill:#3e63bb; stroke:none;" d="M206 154L206 158L209 157L209 155L206 154z"/>
<path style="fill:#444f64; stroke:none;" d="M210 154L212 156L210 154M215 154L214 156L215 154z"/>
<path style="fill:#3e63bb; stroke:none;" d="M213 156L213 160L215 159L215 160L208 159L208 175L214 178L212 177L212 178L215 179L214 189L215 189C215 186.564 215.786 187.385 218 188L220 177L221 177C222.882 184.926 219.519 194.716 210 190L212 193L208 192L208 240L214 240L212 243L214 246L210 245L211 241C207.288 241.795 207.288 245.205 211 246L210 249L213 248L210 250L210 251L212 251L212 252L208 252L208 253L215 253L215 252L213 253L213 252C218.743 251.01 233.49 257.088 237 251L243 252C245.003 254.114 246.45 253.214 248 251C258.11 256.046 272.009 252.91 283 252.91C310.388 252.91 337.93 252.139 365.08 253.613C373.032 254.044 389.468 249.32 396 254C413.741 252.182 437.597 249.407 455 254L475 252L474 249L487 248L499 240L505 241L509 238C509 234.462 515.159 235.633 518 236L519 232L528 233L528 230L524 231L521 229C528.121 226.371 538.362 232.592 541 223L540 223L537 224L538 227L533 224L530 225L531 184C533.856 184.892 538.963 182.987 534 182L534 181L537 181L537 180C533.471 178.094 530.545 176.411 529 181L528 181L528 177L524 177L514 170L513 170L514 172L513 172L492 162C488.58 162.743 484.998 162.91 484 159C478.403 159.426 466.913 157.934 463 154L447 154C443.533 156.511 441.182 154.357 437.285 154.664C426.507 155.512 415.926 154.571 405.17 154.518C363.324 154.312 321.137 155.09 279 155.09C265.557 155.09 251.355 153.159 238 154.79C233.549 155.334 228.766 152.754 226 157C221.001 154.953 218.176 153.826 213 156z"/>
<path style="fill:#5d86d7; stroke:none;" d="M217 154L218 155L217 154z"/>
<path style="fill:#444f64; stroke:none;" d="M221 154L222 155L221 154M226 154L227 155L226 154M232 154L233 155L232 154M237 154L238 155L237 154z"/>
<path style="fill:#5d86d7; stroke:none;" d="M239.667 154.333L240.333 154.667L239.667 154.333z"/>
<path style="fill:#444f64; stroke:none;" d="M243 154L244 155L243 154M248 154L249 155L248 154z"/>
<path style="fill:#5d86d7; stroke:none;" d="M251 154L252 155L251 154z"/>
<path style="fill:#444f64; stroke:none;" d="M254 154L255 155L254 154M259 154L260 155L259 154M265 154L266 155L265 154M270 154L271 155L270 154M276 154L277 155L276 154M281 154L282 155L281 154M287 154L288 155L287 154M292 154L293 155L292 154M298 154L299 155L298 154M303 154L304 155L303 154M309 154L310 155L309 154M314 154L315 155L314 154M320 154L321 155L320 154M325 154L326 155L325 154M331 154L332 155L331 154M336 154L337 155L336 154M341.667 154.333L342.333 154.667L341.667 154.333M347 154L348 155L347 154M353 154L354 155L353 154M358 154L359 155L358 154M364 154L365 155L364 154M369.333 154.667L369.667 155.333L369.333 154.667M375 154L376 155L375 154M380.333 154.667L380.667 155.333L380.333 154.667M386 154L387 155L386 154M391 154L391 156L393 154L391 154M397 154L398 155L397 154M402.333 154.667L402.667 155.333L402.333 154.667M407 154L409 156L409 154L407 154M413.333 154.667L413.667 155.333L413.333 154.667M418 154L420 156L420 154L418 154M424.333 154.667L424.667 155.333L424.333 154.667M428.667 154.333L429.333 154.667L428.667 154.333M439.667 154.333L440.333 154.667L439.667 154.333M446.333 154.667L446.667 155.333L446.333 154.667M448 154L449 155L448 154M450.667 154.333L451.333 154.667L450.667 154.333M457 156L460 155L457 156M461 154L462 155L461 154M468 154L476 159L476 158L475 155L468 154z"/>
<path style="fill:#5d86d7; stroke:none;" d="M475.667 154.333L476.333 154.667L475.667 154.333M156 155L155 157L156 155z"/>
<path style="fill:#444f64; stroke:none;" d="M157 155L156 159L157 159L157 155z"/>
<path style="fill:#0a132c; stroke:none;" d="M158 155L157 159L161 156L158 155z"/>
<path style="fill:#5d86d7; stroke:none;" d="M160 155L161 156L160 155z"/>
<path style="fill:#3e63bb; stroke:none;" d="M166 155L167 156L166 155M171 155L172 156L171 155M177 155L178 156L177 155M182 155L183 156L182 155M188 155L189 156L188 155M193 155L194 156L193 155M195 155L196 156L195 155M199 155L200 156L199 155M204 155L205 156L204 155M209.667 155.333L210.333 155.667L209.667 155.333z"/>
<path style="fill:#5d86d7; stroke:none;" d="M216 155L215 158L219 160L216 155M219.667 155.333L220.333 155.667L219.667 155.333z"/>
<path style="fill:#444f64; stroke:none;" d="M222 155L223 156L222 155M225 155L226 156L225 155z"/>
<path style="fill:#5d86d7; stroke:none;" d="M227 155L230 160L231 160L230 155L227 155z"/>
<path style="fill:#444f64; stroke:none;" d="M233 155L234 156L233 155M236 155L237 156L236 155z"/>
<path style="fill:#5d86d7; stroke:none;" d="M242 155L243 156L242 155z"/>
<path style="fill:#444f64; stroke:none;" d="M244 155L245 156L244 155M247 155L248 156L247 155z"/>
<path style="fill:#5d86d7; stroke:none;" d="M253 155L254 156L253 155z"/>
<path style="fill:#444f64; stroke:none;" d="M255 155L256 156L255 155M258 155L259 156L258 155z"/>
<path style="fill:#5d86d7; stroke:none;" d="M261 155L262 156L261 155z"/>
<path style="fill:#444f64; stroke:none;" d="M266 155L267 156L266 155M277 155L278 156L277 155M280 155L281 156L280 155M288 155L289 156L288 155M291 155L292 156L291 155M299 155L300 156L299 155M302 155L303 156L302 155M310 155L311 156L310 155M313 155L314 156L313 155M321 155L322 156L321 155M324 155L325 156L324 155M332 155L333 156L332 155M365 155L366 156L365 155M430 155L431 156L430 155M435 155L436 156L435 155M441 155L442 156L441 155M452 155L453 156L452 155M463 155L464 156L463 155z"/>
<path style="fill:#5d86d7; stroke:none;" d="M472.667 155.333L473.333 155.667L472.667 155.333z"/>
<path style="fill:#0a132c; stroke:none;" d="M474 156L474 158L478 159L478 155L474 156z"/>
<path style="fill:#5d86d7; stroke:none;" d="M478 155L479 156L478 155z"/>
<path style="fill:#3e63bb; stroke:none;" d="M161 156L160 159L161 156M190 156L191 157L190 156M197 156L197 157L199 159L200 159L197 156M203 156L204 157L203 156M211 156L210 159L213 157L211 156z"/>
<path style="fill:#5d86d7; stroke:none;" d="M223 156L224 157L223 156M225 156L226 157L225 156M232 156L231 158L232 156M239.667 156.333L240.333 156.667L239.667 156.333M251 156L252 157L251 156M256 156L257 157L256 156z"/>
<path style="fill:#444f64; stroke:none;" d="M454 156L455 157L454 156M465 156L466 157L465 156M478 156L478 160L483 160L483 159L478 156M160 157L161 158L160 157z"/>
<path style="fill:#3e63bb; stroke:none;" d="M181 157L180 160L183 160L181 157M193 157L194 158L193 157z"/>
<path style="fill:#5d86d7; stroke:none;" d="M221 157L221 159L223 159L223 157L221 157M224 157L225 158L224 157M226 157L228 160L226 157M234 157L235 158L234 157M236 157L237 158L236 157M242 157L243 158L242 157M479 157L480 158L479 157z"/>
<path style="fill:#444f64; stroke:none;" d="M146 160L149 159L146 160z"/>
<path style="fill:#5d86d7; stroke:none;" d="M149 158L150 159L149 158z"/>
<path style="fill:#3e63bb; stroke:none;" d="M195 158L194 160L195 158M197 158L198 159L197 158M201 158L202 159L201 158M204 158L205 159L204 158M207 158L206 160L207 158z"/>
<path style="fill:#5d86d7; stroke:none;" d="M238 158L239 159L238 158M256 158L257 159L256 158M481.667 158.333L482.333 158.667L481.667 158.333z"/>
<path style="fill:#444f64; stroke:none;" d="M485 158L484 162L485 158z"/>
<path style="fill:#0a132c; stroke:none;" d="M486 158L485 162L489 162L486 158z"/>
<path style="fill:#444f64; stroke:none;" d="M487 158L488 159L487 158z"/>
<path style="fill:#5d86d7; stroke:none;" d="M488 158L489 159L488 158z"/>
<path style="fill:#0a132c; stroke:none;" d="M146 162L150 159L146 162z"/>
<path style="fill:#3e63bb; stroke:none;" d="M150 159L151 160L150 159M185 159L186 160L185 159M190 159L191 160L190 159M192 159L193 160L192 159M211 159L212 160L211 159z"/>
<path style="fill:#5d86d7; stroke:none;" d="M216 159L217 160L216 159M224 159L225 160L224 159M233.667 159.333L234.333 159.667L233.667 159.333M236 159L237 160L236 159M246 159L247 160L246 159M274 159L275 160L274 159M489 159L492 162L492 161L489 159z"/>
<path style="fill:#444f64; stroke:none;" d="M150 160L151 161L150 160z"/>
<path style="fill:#3e63bb; stroke:none;" d="M145 161L146 162L145 161M150 161L151 162L150 161z"/>
<path style="fill:#444f64; stroke:none;" d="M486 162L486 163L491 163L486 162z"/>
<path style="fill:#5d86d7; stroke:none;" d="M496.667 161.333L497.333 161.667L496.667 161.333M135 162L136 163L135 162z"/>
<path style="fill:#444f64; stroke:none;" d="M136 162L135 166L136 166L136 162z"/>
<path style="fill:#0a132c; stroke:none;" d="M137 162L136 166L140 165L140 163L139 162L137 162z"/>
<path style="fill:#5d86d7; stroke:none;" d="M139 162L140 163L139 162z"/>
<path style="fill:#3e63bb; stroke:none;" d="M146 162L147 163L146 162z"/>
<path style="fill:#444f64; stroke:none;" d="M147 162L148 163L147 162z"/>
<path style="fill:#3e63bb; stroke:none;" d="M148.667 162.333L149.333 162.667L148.667 162.333z"/>
<path style="fill:#444f64; stroke:none;" d="M492 162L496 167L496 162L492 162z"/>
<path style="fill:#5d86d7; stroke:none;" d="M493.667 162.333L494.333 162.667L493.667 162.333z"/>
<path style="fill:#0a132c; stroke:none;" d="M495 163L495 165L499 166L499 162L495 163z"/>
<path style="fill:#5d86d7; stroke:none;" d="M499 162L500 163L499 162z"/>
<path style="fill:#3e63bb; stroke:none;" d="M140.333 163.667L140.667 164.333L140.333 163.667z"/>
<path style="fill:#444f64; stroke:none;" d="M499 163C501.15 169.314 508.229 170.606 514 172L513 170L514 170L514 173L524 177L528 177L528 181L529 181C531.179 177.382 533.431 178.715 537 180L537 181L534 181L534 182L537 182L531 184L530 225L533 224L538 227L537 224L540 223L541 223C536.664 232.685 528.261 224.831 521 229L524 231L528 230L528 233L519 232L518 236C514.986 235.513 509.561 234.31 509 238L505 241L501 240L501 241L504 243C511.562 237.887 520.968 234.987 530 234L530 231L573 221L572 217L583 217L582 214L593 213C593.444 209.62 595.588 210.545 598 212L604 210L603 207L613 206C609.732 200.457 604.808 200.061 599 199L601 196C597.655 197.022 596.334 196.591 594 194L593 194L593 197L590 193C586.825 193.467 579.552 193.746 579 190C574.569 190.344 558.548 186.905 558 183L542 178L541 178C535.823 179.506 524.651 174.01 521 170L520 170L519 173L505 168L507 165L499 163z"/>
<path style="fill:#5d86d7; stroke:none;" d="M500 164L501 165L500 164M125 165L126 166L125 165z"/>
<path style="fill:#444f64; stroke:none;" d="M126 165L125 167L126 165z"/>
<path style="fill:#0a132c; stroke:none;" d="M127 165L125 169L129 169L127 165z"/>
<path style="fill:#444f64; stroke:none;" d="M128 165L129 166L128 165z"/>
<path style="fill:#3e63bb; stroke:none;" d="M139 165L140 166L139 165z"/>
<path style="fill:#5d86d7; stroke:none;" d="M502.667 165.333L503.333 165.667L502.667 165.333z"/>
<path style="fill:#0a132c; stroke:none;" d="M505 168L510 169L509 165L505 168z"/>
<path style="fill:#5d86d7; stroke:none;" d="M509 165L510 166L509 165z"/>
<path style="fill:#444f64; stroke:none;" d="M129.333 166.667L129.667 167.333L129.333 166.667M489 166L490 167L489 166M497.667 166.333L498.333 166.667L497.667 166.333z"/>
<path style="fill:#5d86d7; stroke:none;" d="M510.333 166.667L510.667 167.333L510.333 166.667M116.667 168.333L117.333 168.667L116.667 168.333z"/>
<path style="fill:#3e63bb; stroke:none;" d="M129 168L130 169L129 168M511 168L512 169L511 168z"/>
<path style="fill:#5d86d7; stroke:none;" d="M512 168L513 169L512 168M517 168L518 169L517 168z"/>
<path style="fill:#444f64; stroke:none;" d="M518 168L519 169L518 168z"/>
<path style="fill:#5d86d7; stroke:none;" d="M114 169L115 170L114 169z"/>
<path style="fill:#444f64; stroke:none;" d="M115 169L114 172L115 172L115 169z"/>
<path style="fill:#0a132c; stroke:none;" d="M116 169L115 173L119 172L119 170L118 169L116 169z"/>
<path style="fill:#444f64; stroke:none;" d="M118 169L119 170L118 169z"/>
<path style="fill:#3e63bb; stroke:none;" d="M125 169L125 170L128 170L125 169z"/>
<path style="fill:#5d86d7; stroke:none;" d="M514.667 169.333L515.333 169.667L514.667 169.333z"/>
<path style="fill:#0a132c; stroke:none;" d="M516 169L519 173L520 169L516 169z"/>
<path style="fill:#5d86d7; stroke:none;" d="M520 169L521 170L520 169z"/>
<path style="fill:#444f64; stroke:none;" d="M119 170L120 171L119 170z"/>
<path style="fill:#3e63bb; stroke:none;" d="M119 171L120 172L119 171z"/>
<path style="fill:#5d86d7; stroke:none;" d="M521 171L522 172L521 171M104 172L105 173L104 172z"/>
<path style="fill:#444f64; stroke:none;" d="M105 172L104 174L105 172z"/>
<path style="fill:#0a132c; stroke:none;" d="M106 172L104 176L108 176L106 172z"/>
<path style="fill:#444f64; stroke:none;" d="M107 172L108 173L107 172z"/>
<path style="fill:#3e63bb; stroke:none;" d="M114 172L115 173L114 172M118 172L119 173L118 172M522.667 172.333L523.333 172.667L522.667 172.333z"/>
<path style="fill:#5d86d7; stroke:none;" d="M524 172L525 173L524 172M526 172L527 173L526 172z"/>
<path style="fill:#444f64; stroke:none;" d="M527 172L528 173L527 172z"/>
<path style="fill:#0a132c; stroke:none;" d="M526 173L526 175L531 176L530 172L526 173z"/>
<path style="fill:#5d86d7; stroke:none;" d="M530 172L531 173L530 172z"/>
<path style="fill:#444f64; stroke:none;" d="M108.333 173.667L108.667 174.333L108.333 173.667M512 173L513 174L512 173z"/>
<path style="fill:#5d86d7; stroke:none;" d="M531.333 173.667L531.667 174.333L531.333 173.667z"/>
<path style="fill:#444f64; stroke:none;" d="M506 174L507 175L506 174M514 174L515 175L514 174M520 174L521 175L520 174z"/>
<path style="fill:#5d86d7; stroke:none;" d="M95.6667 175.333L96.3333 175.667L95.6667 175.333z"/>
<path style="fill:#3e63bb; stroke:none;" d="M108 175L109 176L108 175z"/>
<path style="fill:#444f64; stroke:none;" d="M516 175L517 176L516 175z"/>
<path style="fill:#3e63bb; stroke:none;" d="M532 175L533 176L532 175z"/>
<path style="fill:#5d86d7; stroke:none;" d="M533 175L534 176L533 175M537 175L538 176L537 175z"/>
<path style="fill:#444f64; stroke:none;" d="M538.667 175.333L539.333 175.667L538.667 175.333M94 176L94 180L95 180L94 176z"/>
<path style="fill:#0a132c; stroke:none;" d="M95 176L94 177L95 180L98 179L98 177L97 176L95 176z"/>
<path style="fill:#444f64; stroke:none;" d="M97 176L98 177L97 176z"/>
<path style="fill:#3e63bb; stroke:none;" d="M105.667 176.333L106.333 176.667L105.667 176.333M184 176L183 183L184 183L184 176M189 176L189 177L195 181L193 176L189 176M197 176L198 177L197 176M201 176L202 177L201 176M204 176L205 177L204 176M209 176L209 178L211 178L209 176z"/>
<path style="fill:#5d86d7; stroke:none;" d="M216 176L216 177L220 177L220 176L216 176M222 176L223 177L222 176M225 176L224 178L225 176M233 176L234 177L233 176M243 176L244 177L243 176z"/>
<path style="fill:#444f64; stroke:none;" d="M355 176L354 178L355 176z"/>
<path style="fill:#0a132c; stroke:none;" d="M352 185L352 186L359 196C356.46 187.059 356.269 184.743 359 176L352 185z"/>
<path style="fill:#444f64; stroke:none;" d="M395 176L393 184L394 184L395 176z"/>
<path style="fill:#0a132c; stroke:none;" d="M395 177L395 178C400.169 183.459 397.509 189.581 396 196C403.278 193.505 403.657 175.677 395 177z"/>
<path style="fill:#444f64; stroke:none;" d="M399 176L400 177L399 176z"/>
<path style="fill:#3e63bb; stroke:none;" d="M535.667 176.333L536.333 176.667L535.667 176.333z"/>
<path style="fill:#0a132c; stroke:none;" d="M536 177L536 178L541 180L541 176L536 177z"/>
<path style="fill:#5d86d7; stroke:none;" d="M541.333 176.667L541.667 177.333L541.333 176.667z"/>
<path style="fill:#444f64; stroke:none;" d="M98 177L99 178L98 177z"/>
<path style="fill:#3e63bb; stroke:none;" d="M160 177L161 185L162 185L160 177z"/>
<path style="fill:#444f64; stroke:none;" d="M161 177L162 178L161 177z"/>
<path style="fill:#0a132c; stroke:none;" d="M162 177L165 192L172 177L165 186L162 177z"/>
<path style="fill:#3e63bb; stroke:none;" d="M163 177L164 178L163 177M169 177L168 180L169 180L169 177z"/>
<path style="fill:#444f64; stroke:none;" d="M170 177L171 178L170 177z"/>
<path style="fill:#3e63bb; stroke:none;" d="M172.667 177.333L173.333 177.667L172.667 177.333z"/>
<path style="fill:#0a132c; stroke:none;" d="M174 177L177 180L174 192L183 191L183 190L179 189L179 180L183 179L174 177z"/>
<path style="fill:#444f64; stroke:none;" d="M182 177L183 178L182 177z"/>
<path style="fill:#0a132c; stroke:none;" d="M185 177L187 191L186 187L194 191L195 190L191 187C195.233 180.928 191.565 177.679 185 177z"/>
<path style="fill:#444f64; stroke:none;" d="M189 177L190 178L189 177z"/>
<path style="fill:#3e63bb; stroke:none;" d="M195 177L195 180L196 180L195 177z"/>
<path style="fill:#0a132c; stroke:none;" d="M196 177L196 180L201 180L201 191L203 191L203 180L209 179L196 177z"/>
<path style="fill:#444f64; stroke:none;" d="M208 177L209 178L208 177M211 177L212 187L213 187L211 177M220 177L219 182L220 182L220 177z"/>
<path style="fill:#5d86d7; stroke:none;" d="M227 177L227 180L228 180L227 177z"/>
<path style="fill:#444f64; stroke:none;" d="M229 180L233 178L229 180z"/>
<path style="fill:#5d86d7; stroke:none;" d="M235 177L236 178L235 177z"/>
<path style="fill:#444f64; stroke:none;" d="M239 177L240 189L241 189L239 177M261 177L262 178L261 177z"/>
<path style="fill:#0a132c; stroke:none;" d="M262.043 177.786C253.944 180.538 256.169 194.316 264.895 191.214C272.172 188.626 270.717 174.839 262.043 177.786z"/>
<path style="fill:#444f64; stroke:none;" d="M266 177L267 178L266 177M273 177L274 187L275 187L273 177M282 177L281 179L282 177M285 177L286 180L285 177z"/>
<path style="fill:#0a132c; stroke:none;" d="M286 177L286 180L290 180L291 191L293 191L292 180L298 180L298 177L286 177z"/>
<path style="fill:#444f64; stroke:none;" d="M298 177L298 180L300 177L298 177z"/>
<path style="fill:#0a132c; stroke:none;" d="M299 191L301 191L301 186C314.422 183.259 299.44 170.651 299.015 183.999C298.941 186.329 299 188.669 299 191z"/>
<path style="fill:#444f64; stroke:none;" d="M305 177L306 178L305 177M307 179L308 183L309 183L312 178L307 179M319 177L318 185L319 185L319 178L321 178L321 185L322 185L323 178L319 177z"/>
<path style="fill:#0a132c; stroke:none;" d="M323 177L323 180L328 180L328 191L330 191L330 180L336 179L323 177z"/>
<path style="fill:#444f64; stroke:none;" d="M335 177L336 178L335 177M359 177L360 182L361 182L361 177L359 177z"/>
<path style="fill:#0a132c; stroke:none;" d="M361 177L364 192L366 192L371 177L366 186L365 186L361 177z"/>
<path style="fill:#444f64; stroke:none;" d="M362 177L363 178L362 177M369 177L370 178L369 177M371 177L372 178L371 177M375 177C372.144 181.327 371.53 185.015 373 190L374 190L375 177z"/>
<path style="fill:#0a132c; stroke:none;" d="M376.225 178.086C370.756 180.896 372.781 194.734 379.775 190.928C385.126 188.016 382.822 174.697 376.225 178.086z"/>
<path style="fill:#444f64; stroke:none;" d="M380 177L381 178L380 177M387 177C383.267 181.415 382.972 184.441 384 190L385 190L392 180L384 187L387 177z"/>
<path style="fill:#0a132c; stroke:none;" d="M385 182L392 180L385 191L394 191L394 188L388 188C389.781 186.016 393.206 183.859 393.534 181.015C394.292 174.454 386.47 179.088 385 182z"/>
<path style="fill:#444f64; stroke:none;" d="M392 177L393 178L392 177M400 177L400 183L401 183L400 177z"/>
<path style="fill:#3e63bb; stroke:none;" d="M98 178L99 179L98 178z"/>
<path style="fill:#444f64; stroke:none;" d="M163.333 178.667L163.667 179.333L163.333 178.667M169 178L170 179L169 178M172 178L174 180L174 178L172 178M184 178L185 192L186 192L184 178M191 178L192 179L191 178M209 178L209 182L210 182L209 178z"/>
<path style="fill:#0a132c; stroke:none;" d="M210 178C210.002 194.191 221.31 193.827 222 178L220 178C218.558 189.099 212.034 189.78 212 178L210 178z"/>
<path style="fill:#5d86d7; stroke:none;" d="M215 178L215 182L216 182L217 182L215 178z"/>
<path style="fill:#0a132c; stroke:none;" d="M224 192L233 188L235 192L233 178C227.797 180.695 224.898 186.325 224 192M238 178C238 186.621 236.915 191.964 247 192L247 189L240 189L240 178L238 178z"/>
<path style="fill:#444f64; stroke:none;" d="M259 178L260 179L259 178M268 178L269 179L268 178z"/>
<path style="fill:#0a132c; stroke:none;" d="M272 178C272.002 194.213 283.318 193.848 284 178L281 179C281.704 190.032 274.031 188.67 274 178L272 178M310 178C308.585 182.797 311.12 197.437 318.486 189.678C321.371 186.64 320.989 181.859 321 178L319 178C318.757 189.331 312.009 189.537 312 178L310 178z"/>
<path style="fill:#444f64; stroke:none;" d="M363 178L363 181L364 181L363 178M368 178L369 179L368 178M381 178L382 179L381 178z"/>
<path style="fill:#5d86d7; stroke:none;" d="M542 178L543 179L542 178M83 179L84 180L83 179z"/>
<path style="fill:#444f64; stroke:none;" d="M84 179L83 183L84 183L84 179z"/>
<path style="fill:#0a132c; stroke:none;" d="M85 179L84 183L87 183L85 179z"/>
<path style="fill:#444f64; stroke:none;" d="M86 179L87 180L86 179M96 179L97 180L96 179z"/>
<path style="fill:#3e63bb; stroke:none;" d="M97 179L98 180L97 179M164.333 179.667L164.667 180.333L164.333 179.667M172 179L173 180L172 179z"/>
<path style="fill:#444f64; stroke:none;" d="M182 179L183 180L182 179z"/>
<path style="fill:#5d86d7; stroke:none;" d="M213.667 179.333L214.333 179.667L213.667 179.333M223 179L224 180L223 179z"/>
<path style="fill:#444f64; stroke:none;" d="M233 179L233 182L234 182L233 179z"/>
<path style="fill:#5d86d7; stroke:none;" d="M235.667 179.333L236.333 179.667L235.667 179.333z"/>
<path style="fill:#444f64; stroke:none;" d="M258 179L259 180L258 179M269 179L270 180L269 179M271 179L271 187L272 187L271 179M335 179L336 180L335 179M353.333 179.667L353.667 180.333L353.333 179.667M356 179L356 185L357 185L358 179L356 179M371.333 179.667L371.667 180.333L371.333 179.667M382.333 179.667L382.667 180.333L382.333 179.667M397 179L397 185L398 185L397 179z"/>
<path style="fill:#3e63bb; stroke:none;" d="M544 179L545 180L544 179z"/>
<path style="fill:#5d86d7; stroke:none;" d="M545 179L546 180L545 179M547 179L548 180L547 179z"/>
<path style="fill:#0a132c; stroke:none;" d="M547 180L547 182L552 183C551 179.964 550.137 179.506 547 180z"/>
<path style="fill:#5d86d7; stroke:none;" d="M551 179L552 180L551 179z"/>
<path style="fill:#444f64; stroke:none;" d="M87.3333 180.667L87.6667 181.333L87.3333 180.667M168.333 180.667L168.667 181.333L168.333 180.667M171 180L172 181L171 180z"/>
<path style="fill:#3e63bb; stroke:none;" d="M175 180L176 181L175 180z"/>
<path style="fill:#444f64; stroke:none;" d="M176 180L176 189L177 189L176 180M179.333 180.667L179.667 181.333L179.333 180.667z"/>
<path style="fill:#5d86d7; stroke:none;" d="M180 180L180 189L183 189L182 180L180 180z"/>
<path style="fill:#3e63bb; stroke:none;" d="M187 180L187 184L188 184L189 180L187 180z"/>
<path style="fill:#444f64; stroke:none;" d="M189 180L190 181L189 180M193 180L194 181L193 180z"/>
<path style="fill:#3e63bb; stroke:none;" d="M199 180L200 184L201 184L199 180z"/>
<path style="fill:#444f64; stroke:none;" d="M200 180L200 183L201 183L200 180M203 180L204 181L203 180z"/>
<path style="fill:#5d86d7; stroke:none;" d="M204 180L207 186L207 185L205 184L208 181L204 180z"/>
<path style="fill:#3e63bb; stroke:none;" d="M206 180L206 181L208 182C206.063 182.929 205.029 183.665 207 185L207 186L204 185L203 192L210 189L208 185L208 184C209.594 181.581 208.668 180.747 206 180z"/>
<path style="fill:#5d86d7; stroke:none;" d="M225 180L226 181L225 180z"/>
<path style="fill:#444f64; stroke:none;" d="M257.333 180.667L257.667 181.333L257.333 180.667M261 180L259 184L260 184L261 180z"/>
<path style="fill:#3e63bb; stroke:none;" d="M262.21 181.086C258.135 183.276 260.072 190.394 264.571 187.762C268.042 185.732 266.653 178.699 262.21 181.086z"/>
<path style="fill:#444f64; stroke:none;" d="M266 180L267 181L266 180M289 180L290 181L289 180M292 180L292 183L293 183L292 180M302 180L303 181L302 180z"/>
<path style="fill:#3e63bb; stroke:none;" d="M303 180L302 183L305 181L303 180z"/>
<path style="fill:#444f64; stroke:none;" d="M304 180L305 181L304 180M327 180L327 187L328 187L327 180M330 180L330 191L331 191L330 180M367.333 180.667L367.667 181.333L367.333 180.667M376.667 180.333L377.333 180.667L376.667 180.333z"/>
<path style="fill:#3e63bb; stroke:none;" d="M376 188C380.153 186.621 380.107 183.885 379 180L376 188z"/>
<path style="fill:#444f64; stroke:none;" d="M379 180L380 181L379 180M388 180L387 182L388 180z"/>
<path style="fill:#3e63bb; stroke:none;" d="M389 180L384 181L384 187L389 180z"/>
<path style="fill:#5d86d7; stroke:none;" d="M552.333 180.667L552.667 181.333L552.333 180.667z"/>
<path style="fill:#3e63bb; stroke:none;" d="M88 181L89 182L88 181z"/>
<path style="fill:#444f64; stroke:none;" d="M161 181L162 182L161 181M164.333 181.667L164.667 182.333L164.333 181.667z"/>
<path style="fill:#3e63bb; stroke:none;" d="M167.333 181.667L167.667 182.333L167.333 181.667M171 181L172 182L171 181z"/>
<path style="fill:#5d86d7; stroke:none;" d="M188 184L191 182C188.604 181.425 188.513 181.525 188 184z"/>
<path style="fill:#3e63bb; stroke:none;" d="M190 181L191 182L190 181z"/>
<path style="fill:#444f64; stroke:none;" d="M191.333 181.667L191.667 182.333L191.333 181.667M194 181L191 187L194 181z"/>
<path style="fill:#3e63bb; stroke:none;" d="M197.333 181.667L197.667 182.333L197.333 181.667M203 181L204 182L203 181M205 181L206 182L205 181z"/>
<path style="fill:#5d86d7; stroke:none;" d="M213 181L214 182L213 181z"/>
<path style="fill:#444f64; stroke:none;" d="M228 181L229 182L228 181M267 181L267 185L268 185L267 181M281 181L282 182L281 181M305 181L306 182L305 181M370.333 181.667L370.667 182.333L370.333 181.667M526 181L526 182L529 187L531 181L526 181z"/>
<path style="fill:#3e63bb; stroke:none;" d="M538 181L539 182L538 181M540 181L541 184L545 181L540 181z"/>
<path style="fill:#5d86d7; stroke:none;" d="M74.6667 182.333L75.3333 182.667L74.6667 182.333z"/>
<path style="fill:#3e63bb; stroke:none;" d="M87 182L88 183L87 182z"/>
<path style="fill:#444f64; stroke:none;" d="M170 182L171 183L170 182z"/>
<path style="fill:#3e63bb; stroke:none;" d="M179 182L179 188L180 188L179 182z"/>
<path style="fill:#444f64; stroke:none;" d="M203 182L203 191L204 191L203 182z"/>
<path style="fill:#5d86d7; stroke:none;" d="M225.333 182.667L225.667 183.333L225.333 182.667z"/>
<path style="fill:#444f64; stroke:none;" d="M230 182L229 185L232 185L230 182M301 182L302 183L301 182M304 182L305 183L304 182M353.333 182.667L353.667 183.333L353.333 182.667M366 182L364 183L365 186L366 186L366 182M375 182L375 187L376 187L375 182M380 182L380 187L381 187L380 182z"/>
<path style="fill:#3e63bb; stroke:none;" d="M553 182L554 183L553 182z"/>
<path style="fill:#5d86d7; stroke:none;" d="M554 182L555 183L554 182M558 182L559 183L558 182z"/>
<path style="fill:#444f64; stroke:none;" d="M559.667 182.333L560.333 182.667L559.667 182.333z"/>
<path style="fill:#5d86d7; stroke:none;" d="M561 182L562 185L563 185L561 182z"/>
<path style="fill:#444f64; stroke:none;" d="M73 183L74 184L73 183z"/>
<path style="fill:#0a132c; stroke:none;" d="M73 186L77 183L73 186z"/>
<path style="fill:#3e63bb; stroke:none;" d="M84.6667 183.333L85.3333 183.667L84.6667 183.333z"/>
<path style="fill:#444f64; stroke:none;" d="M162 183L162 186L163 186L162 183z"/>
<path style="fill:#3e63bb; stroke:none;" d="M165 183L167 185L165 183z"/>
<path style="fill:#444f64; stroke:none;" d="M167 183L168 184L167 183z"/>
<path style="fill:#3e63bb; stroke:none;" d="M170.333 183.667L170.667 184.333L170.333 183.667M175 183L176 184L175 183M189 183L190 184L189 183z"/>
<path style="fill:#444f64; stroke:none;" d="M190 183L191 184L190 183z"/>
<path style="fill:#3e63bb; stroke:none;" d="M196 183L196 185L198 185L196 183z"/>
<path style="fill:#5d86d7; stroke:none;" d="M207 183L208 184L207 183z"/>
<path style="fill:#444f64; stroke:none;" d="M209 183L209 186L210 186L209 183z"/>
<path style="fill:#5d86d7; stroke:none;" d="M214 183L215 184L214 183M217 183L216 185L217 183z"/>
<path style="fill:#444f64; stroke:none;" d="M221 183L221 187L222 187L221 183z"/>
<path style="fill:#5d86d7; stroke:none;" d="M223 183L224 184L223 183z"/>
<path style="fill:#444f64; stroke:none;" d="M227 183L228 184L227 183z"/>
<path style="fill:#5d86d7; stroke:none;" d="M235 183L236 184L235 183z"/>
<path style="fill:#444f64; stroke:none;" d="M256 183L257 184L256 183M283 183L283 186L284 186L283 183M307 183L308 184L307 183M361 183L361 186L362 186L361 183M369.333 183.667L369.667 184.333L369.333 183.667M401 183L402 184L401 183M533 183L534 184L533 183z"/>
<path style="fill:#3e63bb; stroke:none;" d="M538.667 183.333L539.333 183.667L538.667 183.333M556 183L557 184L556 183z"/>
<path style="fill:#0a132c; stroke:none;" d="M557 184L561 187L562 183L557 184z"/>
<path style="fill:#5d86d7; stroke:none;" d="M72 184L73 185L72 184z"/>
<path style="fill:#444f64; stroke:none;" d="M77 184L78 185L77 184M165 184L165 186L167 186L165 184z"/>
<path style="fill:#3e63bb; stroke:none;" d="M183 184L183 191L184 191L183 184M194 184L195 185L194 184z"/>
<path style="fill:#444f64; stroke:none;" d="M200 184L201 185L200 184z"/>
<path style="fill:#5d86d7; stroke:none;" d="M208 184L209 185L208 184M213 184L214 185L213 184z"/>
<path style="fill:#444f64; stroke:none;" d="M226 184L227 185L226 184z"/>
<path style="fill:#3e63bb; stroke:none;" d="M230 184L231 185L230 184z"/>
<path style="fill:#444f64; stroke:none;" d="M234 184L234 187L235 187L234 184M237 184L237 191L238 191L237 184M280 184L280 187L281 187L280 184M306 184L307 185L306 184M352 184L353 185L352 184M391 184L392 185L391 184M402 184L402 187L403 187L402 184z"/>
<path style="fill:#3e63bb; stroke:none;" d="M552 184L554 187L554 186L552 184z"/>
<path style="fill:#444f64; stroke:none;" d="M72 185L73 186L72 185z"/>
<path style="fill:#3e63bb; stroke:none;" d="M77 185L78 186L77 185z"/>
<path style="fill:#444f64; stroke:none;" d="M169 185L170 186L169 185z"/>
<path style="fill:#3e63bb; stroke:none;" d="M193 185L194 186L193 185M195 185L196 186L195 185M200 185C199.299 188.169 198.144 191.385 202 192L200 185z"/>
<path style="fill:#444f64; stroke:none;" d="M218.333 185.667L218.667 186.333L218.333 185.667z"/>
<path style="fill:#5d86d7; stroke:none;" d="M224 185L225 186L224 185z"/>
<path style="fill:#444f64; stroke:none;" d="M258 185L259 186L258 185z"/>
<path style="fill:#5d86d7; stroke:none;" d="M265 185L266 186L265 185z"/>
<path style="fill:#444f64; stroke:none;" d="M290 185L290 191L291 191L290 185M298 185L298 190L299 190L298 185M304.667 185.333L305.333 185.667L304.667 185.333M355 185L356 186L355 185M390 185L391 186L390 185M398.333 185.667L398.667 186.333L398.333 185.667z"/>
<path style="fill:#5d86d7; stroke:none;" d="M563 185L564 186L563 185M568 187L571 186L568 187z"/>
<path style="fill:#444f64; stroke:none;" d="M63 186L62 190L63 190L63 186z"/>
<path style="fill:#0a132c; stroke:none;" d="M64 186L63 190L67 187L64 186z"/>
<path style="fill:#444f64; stroke:none;" d="M73 186L73 187L76 187L73 186z"/>
<path style="fill:#3e63bb; stroke:none;" d="M76 186L77 187L76 186M162.333 186.667L162.667 187.333L162.333 186.667M169.333 186.667L169.667 187.333L169.333 186.667M192 186L193 187L192 186M198 186L199 187L198 186z"/>
<path style="fill:#5d86d7; stroke:none;" d="M208 186L205 187L205 188L208 186M223 186L224 187L223 186z"/>
<path style="fill:#444f64; stroke:none;" d="M266 186L267 187L266 186M269.333 186.667L269.667 187.333L269.333 186.667M301 186L301 191L302 191L301 186M312.333 186.667L312.667 187.333L312.333 186.667M317.333 186.667L317.667 187.333L317.333 186.667M320.333 186.667L320.667 187.333L320.333 186.667M352 186L353 187L352 186M356 186L356 192L357 192L356 186M362 186L362 189L363 189L362 186M368.333 186.667L368.667 187.333L368.333 186.667M388.333 186.667L388.667 187.333L388.333 186.667z"/>
<path style="fill:#3e63bb; stroke:none;" d="M536 186L532 188L532 189L534 190L532 192L536 192L535 189L538 187L536 186M565 186L566 187L565 186z"/>
<path style="fill:#5d86d7; stroke:none;" d="M566 186L567 187L566 186z"/>
<path style="fill:#0a132c; stroke:none;" d="M568 187L568 189L573 189L572 186L568 187z"/>
<path style="fill:#5d86d7; stroke:none;" d="M572 186L573 187L572 186z"/>
<path style="fill:#444f64; stroke:none;" d="M163.333 187.667L163.667 188.333L163.333 187.667M168.333 187.667L168.667 188.333L168.333 187.667z"/>
<path style="fill:#3e63bb; stroke:none;" d="M175 187L176 188L175 187z"/>
<path style="fill:#444f64; stroke:none;" d="M186 189L189 188L186 189M193 187L194 188L193 187z"/>
<path style="fill:#3e63bb; stroke:none;" d="M196 187L198 189L196 187z"/>
<path style="fill:#5d86d7; stroke:none;" d="M214 187L215 189L216 189L217 187L214 187z"/>
<path style="fill:#444f64; stroke:none;" d="M220.333 187.667L220.667 188.333L220.333 187.667z"/>
<path style="fill:#5d86d7; stroke:none;" d="M245 187L246 188L245 187z"/>
<path style="fill:#444f64; stroke:none;" d="M256.333 187.667L256.667 188.333L256.333 187.667M259 187L260 188L259 187M279 187L280 188L279 187M309.333 187.667L309.667 188.333L309.333 187.667M353 187L353 193L354 193L353 187M379 187L380 188L379 187M397.333 187.667L397.667 188.333L397.333 187.667M401 187L402 188L401 187z"/>
<path style="fill:#3e63bb; stroke:none;" d="M545 187L546 188L545 187z"/>
<path style="fill:#444f64; stroke:none;" d="M572 187L573 188L572 187M66 188L67 189L66 188z"/>
<path style="fill:#3e63bb; stroke:none;" d="M67 188L68 189L67 188z"/>
<path style="fill:#444f64; stroke:none;" d="M179 188L180 189L179 188z"/>
<path style="fill:#3e63bb; stroke:none;" d="M187 188L187 191L188 191L187 188M189 188L191 190L189 188z"/>
<path style="fill:#444f64; stroke:none;" d="M190 188L191 189L190 188M194 188L195 189L194 188M210.333 188.667L210.667 189.333L210.333 188.667M213 188L214 189L213 188M216 188L217 189L216 188z"/>
<path style="fill:#5d86d7; stroke:none;" d="M222 188L223 189L222 188z"/>
<path style="fill:#444f64; stroke:none;" d="M224 188L225 189L224 188M227 188L228 189L227 188z"/>
<path style="fill:#5d86d7; stroke:none;" d="M229 188L230 189L229 188z"/>
<path style="fill:#444f64; stroke:none;" d="M232.333 188.667L232.667 189.333L232.333 188.667M235.333 188.667L235.667 189.333L235.333 188.667z"/>
<path style="fill:#5d86d7; stroke:none;" d="M247 188L248 189L247 188z"/>
<path style="fill:#444f64; stroke:none;" d="M260 188L261 189L260 188M264 188L265 189L264 188M268 188L269 189L268 188M272.333 188.667L272.667 189.333L272.333 188.667M275 188L276 189L275 188M278 188L279 189L278 188M282 188L283 189L282 188M293 188L294 189L293 188M313 188L314 189L313 188M316 188L317 189L316 188M327 188L328 189L327 188M376 188L376 189L379 189L376 188M382.333 188.667L382.667 189.333L382.333 188.667M394 188L394 191L395 191L394 188M526 189L527 193L530 188L526 189z"/>
<path style="fill:#3e63bb; stroke:none;" d="M540 188L541 189L540 188M555 188L556 189L555 188z"/>
<path style="fill:#5d86d7; stroke:none;" d="M573 188L574 189L573 188M53 189L54 190L53 189z"/>
<path style="fill:#444f64; stroke:none;" d="M54 189L55 190L54 189z"/>
<path style="fill:#3e63bb; stroke:none;" d="M66 189L67 190L66 189M163 189L165 192L163 189M168 189L169 190L168 189M173 189L173 192L174 192L173 189z"/>
<path style="fill:#444f64; stroke:none;" d="M182 189L183 190L182 189M191 189L192 190L191 189z"/>
<path style="fill:#3e63bb; stroke:none;" d="M195.333 189.667L195.667 190.333L195.333 189.667z"/>
<path style="fill:#5d86d7; stroke:none;" d="M205 189L206 190L205 189z"/>
<path style="fill:#444f64; stroke:none;" d="M219 189L220 190L219 189z"/>
<path style="fill:#5d86d7; stroke:none;" d="M231 189L232 190L231 189z"/>
<path style="fill:#444f64; stroke:none;" d="M257 189L258 190L257 189M281 189L282 190L281 189M310.333 189.667L310.667 190.333L310.333 189.667M319 189L320 190L319 189M367.333 189.667L367.667 190.333L367.333 189.667M401 189L402 190L401 189z"/>
<path style="fill:#3e63bb; stroke:none;" d="M537 189L538 190L537 189M558.667 189.333L559.333 189.667L558.667 189.333M574 189L575 190L574 189z"/>
<path style="fill:#5d86d7; stroke:none;" d="M575 189L576 190L575 189M579 189L580 190L579 189z"/>
<path style="fill:#0a132c; stroke:none;" d="M578 192L583 193C582.023 189.567 580.357 189.553 578 192z"/>
<path style="fill:#444f64; stroke:none;" d="M581 189L582 190L581 189z"/>
<path style="fill:#5d86d7; stroke:none;" d="M582 189L583 190L582 189z"/>
<path style="fill:#444f64; stroke:none;" d="M52 190L53 191L52 190z"/>
<path style="fill:#0a132c; stroke:none;" d="M52 193L56 190L52 193z"/>
<path style="fill:#444f64; stroke:none;" d="M164 190L165 191L164 190M167 190L166 192L167 190M173 190L174 191L173 190z"/>
<path style="fill:#3e63bb; stroke:none;" d="M192 190L193 191L192 190z"/>
<path style="fill:#444f64; stroke:none;" d="M194 190L195 191L194 190z"/>
<path style="fill:#3e63bb; stroke:none;" d="M197.667 190.333L198.333 190.667L197.667 190.333M208 190L209 191L208 190z"/>
<path style="fill:#444f64; stroke:none;" d="M211 190L212 191L211 190z"/>
<path style="fill:#5d86d7; stroke:none;" d="M219 192L222 190L219 192z"/>
<path style="fill:#444f64; stroke:none;" d="M226 190L227 191L226 190z"/>
<path style="fill:#5d86d7; stroke:none;" d="M230 190L231 191L230 190z"/>
<path style="fill:#444f64; stroke:none;" d="M247.333 190.667L247.667 191.333L247.333 190.667M258 190L259 191L258 190M267 190L268 191L267 190M273 190L274 191L273 190M318 190L319 191L318 190M363 190L364 191L363 190M381 190L382 191L381 190M397 190L397 193L398 193L397 190z"/>
<path style="fill:#3e63bb; stroke:none;" d="M541 190L543 192L541 190M577 190L578 191L577 190z"/>
<path style="fill:#5d86d7; stroke:none;" d="M583.333 190.667L583.667 191.333L583.333 190.667M51 191L52 192L51 191z"/>
<path style="fill:#444f64; stroke:none;" d="M56 191L57 192L56 191z"/>
<path style="fill:#3e63bb; stroke:none;" d="M167 191L168 192L167 191M171 191L172 192L171 191z"/>
<path style="fill:#444f64; stroke:none;" d="M182 191L183 192L182 191z"/>
<path style="fill:#3e63bb; stroke:none;" d="M184 191L185 192L184 191M186 191L187 192L186 191M193 191L194 192L193 191z"/>
<path style="fill:#444f64; stroke:none;" d="M202 191L203 192L202 191M212 191L213 192L212 191M217 191L218 192L217 191z"/>
<path style="fill:#5d86d7; stroke:none;" d="M228.667 191.333L229.333 191.667L228.667 191.333M231 191L232 192L231 191z"/>
<path style="fill:#444f64; stroke:none;" d="M235 191L236 192L235 191M238 191L239 192L238 191M260 191L261 192L260 191M265 191L266 192L265 191M274 191L275 192L274 191M279 191L280 192L279 191M291 191L292 192L291 191M299.667 191.333L300.333 191.667L299.667 191.333M312 191L313 192L312 191M317 191L318 192L317 191M328.667 191.333L329.333 191.667L328.667 191.333M366 191L367 192L366 191M375 191L376 192L375 191M380 191L381 192L380 191z"/>
<path style="fill:#3e63bb; stroke:none;" d="M556 191L557 192L556 191M574 191L575 192L574 191M51 192L52 193L51 192M56 192L57 193L56 192z"/>
<path style="fill:#5d86d7; stroke:none;" d="M213 192L213 193L216 193L213 192z"/>
<path style="fill:#444f64; stroke:none;" d="M357 192L358 193L357 192M400.333 192.667L400.667 193.333L400.333 192.667z"/>
<path style="fill:#3e63bb; stroke:none;" d="M537 192L537 193L541 193L537 192z"/>
<path style="fill:#5d86d7; stroke:none;" d="M584 192L585 193L584 192M590.667 192.333L591.333 192.667L590.667 192.333z"/>
<path style="fill:#444f64; stroke:none;" d="M42 193L41 196L42 196L42 193z"/>
<path style="fill:#0a132c; stroke:none;" d="M43 193L42 197L46 196L46 194L45 193L43 193z"/>
<path style="fill:#5d86d7; stroke:none;" d="M45 193L46 194L45 193z"/>
<path style="fill:#3e63bb; stroke:none;" d="M52 193L53 194L52 193z"/>
<path style="fill:#444f64; stroke:none;" d="M53.6667 193.333L54.3333 193.667L53.6667 193.333z"/>
<path style="fill:#3e63bb; stroke:none;" d="M55 193L56 194L55 193z"/>
<path style="fill:#444f64; stroke:none;" d="M354.333 193.667L354.667 194.333L354.333 193.667M395 193L395 196L396 196L395 193z"/>
<path style="fill:#3e63bb; stroke:none;" d="M586 193L587 194L586 193z"/>
<path style="fill:#5d86d7; stroke:none;" d="M587.667 193.333L588.333 193.667L587.667 193.333z"/>
<path style="fill:#0a132c; stroke:none;" d="M589 194L589 196L593 197L593 193L589 194z"/>
<path style="fill:#5d86d7; stroke:none;" d="M593 193L594 194L593 193z"/>
<path style="fill:#3e63bb; stroke:none;" d="M46.3333 194.667L46.6667 195.333L46.3333 194.667z"/>
<path style="fill:#444f64; stroke:none;" d="M359 194L360 195L359 194M399.333 194.667L399.667 195.333L399.333 194.667M355 195L356 196L355 195z"/>
<path style="fill:#5d86d7; stroke:none;" d="M594 195L595 196L594 195M32 196L33 197L32 196z"/>
<path style="fill:#444f64; stroke:none;" d="M33 196L34 197L33 196z"/>
<path style="fill:#3e63bb; stroke:none;" d="M41 196L42 197L41 196z"/>
<path style="fill:#444f64; stroke:none;" d="M44 196L45 197L44 196z"/>
<path style="fill:#3e63bb; stroke:none;" d="M45 196L46 197L45 196M595 196L596 197L595 196z"/>
<path style="fill:#5d86d7; stroke:none;" d="M596 196L597 197L596 196z"/>
<path style="fill:#0a132c; stroke:none;" d="M599 199L604 200C603.023 196.567 601.357 196.553 599 199z"/>
<path style="fill:#444f64; stroke:none;" d="M602 196L603 197L602 196z"/>
<path style="fill:#5d86d7; stroke:none;" d="M603 196L604 197L603 196z"/>
<path style="fill:#444f64; stroke:none;" d="M31 197L32 198L31 197z"/>
<path style="fill:#0a132c; stroke:none;" d="M31 200L35 197L31 200z"/>
<path style="fill:#444f64; stroke:none;" d="M526.667 197.333L527.333 197.667L526.667 197.333z"/>
<path style="fill:#3e63bb; stroke:none;" d="M598 197L599 198L598 197z"/>
<path style="fill:#5d86d7; stroke:none;" d="M604.333 197.667L604.667 198.333L604.333 197.667z"/>
<path style="fill:#444f64; stroke:none;" d="M35 198L36 199L35 198z"/>
<path style="fill:#3e63bb; stroke:none;" d="M35 199L36 200L35 199z"/>
<path style="fill:#5d86d7; stroke:none;" d="M605 199L606 200L605 199M611.667 199.333L612.333 199.667L611.667 199.333z"/>
<path style="fill:#444f64; stroke:none;" d="M21 200L18 206L19 206L21 200z"/>
<path style="fill:#0a132c; stroke:none;" d="M22 200L19 207L23 206L22 204L25 203L25 201L24 200L22 200z"/>
<path style="fill:#3e63bb; stroke:none;" d="M24 200L25 201L24 200M31 200L32 201L31 200z"/>
<path style="fill:#444f64; stroke:none;" d="M32.6667 200.333L33.3333 200.667L32.6667 200.333z"/>
<path style="fill:#3e63bb; stroke:none;" d="M34 200L35 201L34 200z"/>
<path style="fill:#444f64; stroke:none;" d="M527 200L528 201L527 200z"/>
<path style="fill:#3e63bb; stroke:none;" d="M607 200L608 201L607 200z"/>
<path style="fill:#5d86d7; stroke:none;" d="M608.667 200.333L609.333 200.667L608.667 200.333z"/>
<path style="fill:#444f64; stroke:none;" d="M610 200L611 201L610 200z"/>
<path style="fill:#0a132c; stroke:none;" d="M609 201L617 207L618 206L618 204L614 200L609 201z"/>
<path style="fill:#5d86d7; stroke:none;" d="M614 200L615 201L614 200z"/>
<path style="fill:#3e63bb; stroke:none;" d="M25.3333 201.667L25.6667 202.333L25.3333 201.667z"/>
<path style="fill:#444f64; stroke:none;" d="M614.333 201.667L614.667 202.333L614.333 201.667z"/>
<path style="fill:#5d86d7; stroke:none;" d="M615 202L616 203L615 202M18 203L19 204L18 203z"/>
<path style="fill:#444f64; stroke:none;" d="M23 203L24 204L23 203z"/>
<path style="fill:#3e63bb; stroke:none;" d="M24 203L25 204L24 203z"/>
<path style="fill:#444f64; stroke:none;" d="M617 203L618 204L617 203z"/>
<path style="fill:#5d86d7; stroke:none;" d="M618 203L618 206L619 206L618 203M17 204L18 205L17 204z"/>
<path style="fill:#444f64; stroke:none;" d="M22 204L23 205L22 204z"/>
<path style="fill:#3e63bb; stroke:none;" d="M23 205L24 206L23 205z"/>
<path style="fill:#444f64; stroke:none;" d="M526.667 205.333L527.333 205.667L526.667 205.333z"/>
<path style="fill:#5d86d7; stroke:none;" d="M18 206L19 207L18 206z"/>
<path style="fill:#444f64; stroke:none;" d="M22 206L23 207L22 206z"/>
<path style="fill:#3e63bb; stroke:none;" d="M30 206L31 207L30 206z"/>
<path style="fill:#0a132c; stroke:none;" d="M603 207L603 209L607 210L608 207L603 207z"/>
<path style="fill:#3e63bb; stroke:none;" d="M610 206L611 207L610 206z"/>
<path style="fill:#5d86d7; stroke:none;" d="M611 206L612 207L611 206M613 206L614 207L613 206z"/>
<path style="fill:#444f64; stroke:none;" d="M614 206L615 207L614 206z"/>
<path style="fill:#5d86d7; stroke:none;" d="M617 206L618 207L617 206M20 207L21 208L20 207z"/>
<path style="fill:#0a132c; stroke:none;" d="M29 207L32 211L33 208L29 207z"/>
<path style="fill:#444f64; stroke:none;" d="M32 207L33 208L32 207z"/>
<path style="fill:#3e63bb; stroke:none;" d="M33.3333 207.667L33.6667 208.333L33.3333 207.667z"/>
<path style="fill:#5d86d7; stroke:none;" d="M608 207L609 208L608 207z"/>
<path style="fill:#444f64; stroke:none;" d="M527 208L528 209L527 208M607 208L608 209L607 208M33 209L34 210L33 209z"/>
<path style="fill:#3e63bb; stroke:none;" d="M601 209L602 210L601 209z"/>
<path style="fill:#5d86d7; stroke:none;" d="M602 209L603 210L602 209M607 209L608 210L607 209z"/>
<path style="fill:#444f64; stroke:none;" d="M30 210L31 211L30 210z"/>
<path style="fill:#5d86d7; stroke:none;" d="M32 210L33 211L32 210z"/>
<path style="fill:#3e63bb; stroke:none;" d="M39 210L40 211L39 210z"/>
<path style="fill:#0a132c; stroke:none;" d="M40 210L43 214L42 210L40 210z"/>
<path style="fill:#444f64; stroke:none;" d="M42 210L43 211L42 210z"/>
<path style="fill:#0a132c; stroke:none;" d="M592 211L596 214L597 210L592 211z"/>
<path style="fill:#5d86d7; stroke:none;" d="M599 210L600 211L599 210M604 210L605 211L604 210z"/>
<path style="fill:#444f64; stroke:none;" d="M605 210L606 211L605 210M39.3333 211.667L39.6667 212.333L39.3333 211.667M43.3333 211.667L43.6667 212.333L43.3333 211.667z"/>
<path style="fill:#3e63bb; stroke:none;" d="M586 211L587 212L586 211z"/>
<path style="fill:#5d86d7; stroke:none;" d="M597 212L598 213L597 212M39 213L40 214L39 213z"/>
<path style="fill:#3e63bb; stroke:none;" d="M50.6667 213.333L51.3333 213.667L50.6667 213.333z"/>
<path style="fill:#444f64; stroke:none;" d="M526.667 213.333L527.333 213.667L526.667 213.333z"/>
<path style="fill:#0a132c; stroke:none;" d="M582 214L582 216L586 217L587 214L582 214z"/>
<path style="fill:#3e63bb; stroke:none;" d="M589 213L590 214L589 213z"/>
<path style="fill:#5d86d7; stroke:none;" d="M590 213L591 214L590 213z"/>
<path style="fill:#3e63bb; stroke:none;" d="M593 213L594 214L593 213z"/>
<path style="fill:#444f64; stroke:none;" d="M596 213L597 214L596 213z"/>
<path style="fill:#5d86d7; stroke:none;" d="M41 214L42 215L41 214z"/>
<path style="fill:#444f64; stroke:none;" d="M49.3333 214.667L49.6667 215.333L49.3333 214.667z"/>
<path style="fill:#0a132c; stroke:none;" d="M50 214L54 217L50 214z"/>
<path style="fill:#444f64; stroke:none;" d="M53 214L54 215L53 214z"/>
<path style="fill:#5d86d7; stroke:none;" d="M587.333 214.667L587.667 215.333L587.333 214.667z"/>
<path style="fill:#444f64; stroke:none;" d="M54 215L55 216L54 215M586.333 215.667L586.667 216.333L586.333 215.667z"/>
<path style="fill:#5d86d7; stroke:none;" d="M49 216L50 217L49 216z"/>
<path style="fill:#444f64; stroke:none;" d="M527 216L528 217L527 216z"/>
<path style="fill:#3e63bb; stroke:none;" d="M552 216L553 217L552 216M563 216L564 217L563 216M580 216L581 217L580 216z"/>
<path style="fill:#5d86d7; stroke:none;" d="M581 216L582 217L581 216M50 217L51 218L50 217z"/>
<path style="fill:#444f64; stroke:none;" d="M51.6667 217.333L52.3333 217.667L51.6667 217.333z"/>
<path style="fill:#3e63bb; stroke:none;" d="M60 217L61 218L60 217z"/>
<path style="fill:#0a132c; stroke:none;" d="M61 217L60 218L60 220L64 221L63 217L61 217z"/>
<path style="fill:#444f64; stroke:none;" d="M63 217L64 218L63 217z"/>
<path style="fill:#3e63bb; stroke:none;" d="M565.667 217.333L566.333 217.667L565.667 217.333z"/>
<path style="fill:#0a132c; stroke:none;" d="M572 217L573 221L575 221L577 217L572 217z"/>
<path style="fill:#3e63bb; stroke:none;" d="M577 217L578 218L577 217z"/>
<path style="fill:#5d86d7; stroke:none;" d="M578 217L579 218L578 217M583 217L584 218L583 217z"/>
<path style="fill:#444f64; stroke:none;" d="M584 217L585 218L584 217z"/>
<path style="fill:#5d86d7; stroke:none;" d="M585 217L586 218L585 217z"/>
<path style="fill:#444f64; stroke:none;" d="M64.3333 218.667L64.6667 219.333L64.3333 218.667M576 218L577 219L576 218z"/>
<path style="fill:#3e63bb; stroke:none;" d="M552 219L553 220L552 219z"/>
<path style="fill:#5d86d7; stroke:none;" d="M576 219L577 220L576 219z"/>
<path style="fill:#3e63bb; stroke:none;" d="M71 220L72 221L71 220z"/>
<path style="fill:#444f64; stroke:none;" d="M72 220L73 221L72 220z"/>
<path style="fill:#3e63bb; stroke:none;" d="M73 220L74 221L73 220z"/>
<path style="fill:#0a132c; stroke:none;" d="M561 221L561 223C564.137 223.494 565 223.036 566 220L561 221z"/>
<path style="fill:#3e63bb; stroke:none;" d="M568 220L569 221L568 220z"/>
<path style="fill:#5d86d7; stroke:none;" d="M569 220L570 221L569 220z"/>
<path style="fill:#444f64; stroke:none;" d="M575 220L576 221L575 220z"/>
<path style="fill:#5d86d7; stroke:none;" d="M62 221L63 222L62 221z"/>
<path style="fill:#444f64; stroke:none;" d="M70.3333 221.667L70.6667 222.333L70.3333 221.667z"/>
<path style="fill:#0a132c; stroke:none;" d="M71 221L75 224L71 221z"/>
<path style="fill:#444f64; stroke:none;" d="M74 221L75 222L74 221M526.667 221.333L527.333 221.667L526.667 221.333z"/>
<path style="fill:#5d86d7; stroke:none;" d="M566.333 221.667L566.667 222.333L566.333 221.667z"/>
<path style="fill:#3e63bb; stroke:none;" d="M75 222L76 223L75 222z"/>
<path style="fill:#5d86d7; stroke:none;" d="M70 223L71 224L70 223z"/>
<path style="fill:#3e63bb; stroke:none;" d="M559 223L560 224L559 223z"/>
<path style="fill:#5d86d7; stroke:none;" d="M560 223L561 224L560 223z"/>
<path style="fill:#3e63bb; stroke:none;" d="M561 223L562 224L561 223z"/>
<path style="fill:#444f64; stroke:none;" d="M565 223L566 224L565 223z"/>
<path style="fill:#5d86d7; stroke:none;" d="M71 224L72 225L71 224z"/>
<path style="fill:#444f64; stroke:none;" d="M72.6667 224.333L73.3333 224.667L72.6667 224.333M81 224L82 225L81 224z"/>
<path style="fill:#0a132c; stroke:none;" d="M82 224L81 225L81 227L85 228L84 224L82 224z"/>
<path style="fill:#444f64; stroke:none;" d="M84 224L85 225L84 224M522 224L522 226L524 226L524 224L522 224M526 225L526 226L529 226L526 225z"/>
<path style="fill:#3e63bb; stroke:none;" d="M543 224L545 227L546 227L548 224L543 224z"/>
<path style="fill:#0a132c; stroke:none;" d="M551 225L551 227L554 228L556 224L551 225z"/>
<path style="fill:#3e63bb; stroke:none;" d="M556 224L557 225L556 224z"/>
<path style="fill:#5d86d7; stroke:none;" d="M557 224L558 225L557 224M562 224L562 225L565 225L562 224z"/>
<path style="fill:#444f64; stroke:none;" d="M85.3333 225.667L85.6667 226.333L85.3333 225.667M555.333 225.667L555.667 226.333L555.333 225.667M531.667 226.333L532.333 226.667L531.667 226.333M535.333 226.667L535.667 227.333L535.333 226.667M92 227L91 231L92 231L94 228L92 227z"/>
<path style="fill:#0a132c; stroke:none;" d="M540 230L544 231L545 227L540 230z"/>
<path style="fill:#3e63bb; stroke:none;" d="M547 227L548 228L547 227z"/>
<path style="fill:#5d86d7; stroke:none;" d="M548 227L549 228L548 227M551 227L552 228L551 227z"/>
<path style="fill:#444f64; stroke:none;" d="M552 227L553 228L552 227M554 227L555 228L554 227z"/>
<path style="fill:#0a132c; stroke:none;" d="M92 228L92 231L96 230L92 228z"/>
<path style="fill:#444f64; stroke:none;" d="M95 228L96 229L95 228z"/>
<path style="fill:#3e63bb; stroke:none;" d="M545 228L546 229L545 228M96 229L97 230L96 229z"/>
<path style="fill:#444f64; stroke:none;" d="M505.667 229.333L506.333 229.667L505.667 229.333z"/>
<path style="fill:#5d86d7; stroke:none;" d="M545 229L546 230L545 229z"/>
<path style="fill:#444f64; stroke:none;" d="M95 230L96 231L95 230z"/>
<path style="fill:#3e63bb; stroke:none;" d="M538 230L539 231L538 230z"/>
<path style="fill:#5d86d7; stroke:none;" d="M539 230L539 231L544 232L544 231L539 230z"/>
<path style="fill:#444f64; stroke:none;" d="M541 230L542 231L541 230M544 230L545 231L544 230z"/>
<path style="fill:#5d86d7; stroke:none;" d="M92 231L93 232L92 231z"/>
<path style="fill:#444f64; stroke:none;" d="M93.6667 231.333L94.3333 231.667L93.6667 231.333z"/>
<path style="fill:#3e63bb; stroke:none;" d="M101.333 231.667L101.667 232.333L101.333 231.667z"/>
<path style="fill:#0a132c; stroke:none;" d="M102 231L103 235L105 235L106 234L106 232L102 231z"/>
<path style="fill:#444f64; stroke:none;" d="M105 231L106 232L105 231M518 231L517 233L518 231z"/>
<path style="fill:#0a132c; stroke:none;" d="M530 231L533 235L535 231L530 231z"/>
<path style="fill:#3e63bb; stroke:none;" d="M535 231L536 232L535 231z"/>
<path style="fill:#5d86d7; stroke:none;" d="M536 231L537 232L536 231z"/>
<path style="fill:#3e63bb; stroke:none;" d="M106 232L107 233L106 232z"/>
<path style="fill:#444f64; stroke:none;" d="M506 232L507 233L506 232M534 232L535 233L534 232z"/>
<path style="fill:#5d86d7; stroke:none;" d="M101 233L102 234L101 233z"/>
<path style="fill:#444f64; stroke:none;" d="M106 233L107 234L106 233z"/>
<path style="fill:#3e63bb; stroke:none;" d="M534 233L535 234L534 233z"/>
<path style="fill:#5d86d7; stroke:none;" d="M102 234L103 235L102 234z"/>
<path style="fill:#444f64; stroke:none;" d="M105 234L106 235L105 234z"/>
<path style="fill:#3e63bb; stroke:none;" d="M112 234L113 235L112 234z"/>
<path style="fill:#444f64; stroke:none;" d="M113 234L112 238L113 238L115 235L113 234z"/>
<path style="fill:#3e63bb; stroke:none;" d="M115 234L116 235L115 234z"/>
<path style="fill:#444f64; stroke:none;" d="M513 234L514 235L513 234z"/>
<path style="fill:#0a132c; stroke:none;" d="M519 237L523 238L524 234L519 237z"/>
<path style="fill:#5d86d7; stroke:none;" d="M526.667 234.333L527.333 234.667L526.667 234.333M530 234L531 235L530 234z"/>
<path style="fill:#444f64; stroke:none;" d="M531 234L532 235L531 234M533 234L534 235L533 234z"/>
<path style="fill:#0a132c; stroke:none;" d="M113 235L113 238L117 237L113 235z"/>
<path style="fill:#444f64; stroke:none;" d="M116 235L117 236L116 235z"/>
<path style="fill:#5d86d7; stroke:none;" d="M524.333 235.667L524.667 236.333L524.333 235.667z"/>
<path style="fill:#3e63bb; stroke:none;" d="M117 236L118 237L117 236z"/>
<path style="fill:#444f64; stroke:none;" d="M504 236L505 237L504 236M116 237L117 238L116 237z"/>
<path style="fill:#3e63bb; stroke:none;" d="M517 237L518 238L517 237z"/>
<path style="fill:#5d86d7; stroke:none;" d="M518.667 237.333L519.333 237.667L518.667 237.333z"/>
<path style="fill:#444f64; stroke:none;" d="M520 237L521 238L520 237M523 237L524 238L523 237z"/>
<path style="fill:#5d86d7; stroke:none;" d="M113 238L113 239L116 239L113 238z"/>
<path style="fill:#3e63bb; stroke:none;" d="M122 238L123 239L122 238z"/>
<path style="fill:#0a132c; stroke:none;" d="M123 238L124 242L126 242L127 241L127 239L123 238z"/>
<path style="fill:#444f64; stroke:none;" d="M126 238L127 239L126 238z"/>
<path style="fill:#0a132c; stroke:none;" d="M509 239L509 241L512 242L514 238L509 239z"/>
<path style="fill:#3e63bb; stroke:none;" d="M514 238L515 239L514 238z"/>
<path style="fill:#5d86d7; stroke:none;" d="M515 238L516 239L515 238M521 238L522 239L521 238z"/>
<path style="fill:#444f64; stroke:none;" d="M127.333 239.667L127.667 240.333L127.333 239.667M513.333 239.667L513.667 240.333L513.333 239.667z"/>
<path style="fill:#5d86d7; stroke:none;" d="M222 240L223 241L222 240z"/>
<path style="fill:#444f64; stroke:none;" d="M491 240L492 241L491 240M499 240L486 247L489 248C489.65 242.709 500.955 246.386 499 240z"/>
<path style="fill:#3e63bb; stroke:none;" d="M508 240L509 241L508 240z"/>
<path style="fill:#444f64; stroke:none;" d="M126 241L127 242L126 241z"/>
<path style="fill:#3e63bb; stroke:none;" d="M133 241L134 242L133 241z"/>
<path style="fill:#444f64; stroke:none;" d="M134.667 241.333L135.333 241.667L134.667 241.333z"/>
<path style="fill:#3e63bb; stroke:none;" d="M136 241L137 242L136 241z"/>
<path style="fill:#444f64; stroke:none;" d="M494 241L495 242L494 241z"/>
<path style="fill:#0a132c; stroke:none;" d="M498 244L502 245L503 241L498 244z"/>
<path style="fill:#5d86d7; stroke:none;" d="M505.667 241.333L506.333 241.667L505.667 241.333M509 241L510 242L509 241z"/>
<path style="fill:#444f64; stroke:none;" d="M510 241L511 242L510 241M512 241L513 242L512 241z"/>
<path style="fill:#0a132c; stroke:none;" d="M133 242L138 244L133 242z"/>
<path style="fill:#444f64; stroke:none;" d="M137 242L138 243L137 242M492 242L493 243L492 242z"/>
<path style="fill:#3e63bb; stroke:none;" d="M138 243L139 244L138 243z"/>
<path style="fill:#5d86d7; stroke:none;" d="M503 243L504 244L503 243z"/>
<path style="fill:#444f64; stroke:none;" d="M133 244L134 245L133 244M137 244L138 245L137 244z"/>
<path style="fill:#3e63bb; stroke:none;" d="M144 244L144 245L147 245L144 244z"/>
<path style="fill:#0a132c; stroke:none;" d="M488 246L488 247C491.046 247.484 492.073 247.177 492 244L488 246z"/>
<path style="fill:#5d86d7; stroke:none;" d="M496.667 244.333L497.333 244.667L496.667 244.333z"/>
<path style="fill:#444f64; stroke:none;" d="M499 244L500 245L499 244M502 244L503 245L502 244z"/>
<path style="fill:#5d86d7; stroke:none;" d="M135.667 245.333L136.333 245.667L135.667 245.333z"/>
<path style="fill:#444f64; stroke:none;" d="M143.333 245.667L143.667 246.333L143.333 245.667z"/>
<path style="fill:#0a132c; stroke:none;" d="M144 245L145 249L147 249L148 248L148 246L144 245z"/>
<path style="fill:#444f64; stroke:none;" d="M147 245L148 246L147 245z"/>
<path style="fill:#3e63bb; stroke:none;" d="M493 245L494 246L493 245z"/>
<path style="fill:#5d86d7; stroke:none;" d="M494 245L495 246L494 245z"/>
<path style="fill:#444f64; stroke:none;" d="M148 246L149 247L148 246z"/>
<path style="fill:#5d86d7; stroke:none;" d="M221 246L222 247L221 246M493 246L494 247L493 246M143 247L144 248L143 247z"/>
<path style="fill:#3e63bb; stroke:none;" d="M148 247L149 248L148 247z"/>
<path style="fill:#444f64; stroke:none;" d="M481 247L481 252L482 252L486 248L486 247L481 247z"/>
<path style="fill:#5d86d7; stroke:none;" d="M487 247L488 248L487 247z"/>
<path style="fill:#444f64; stroke:none;" d="M492 247L493 248L492 247z"/>
<path style="fill:#5d86d7; stroke:none;" d="M144 248L145 249L144 248M147 248L148 249L147 248z"/>
<path style="fill:#444f64; stroke:none;" d="M154 248L154 252L155 252L154 248z"/>
<path style="fill:#0a132c; stroke:none;" d="M155 248L158 252L157 248L155 248z"/>
<path style="fill:#3e63bb; stroke:none;" d="M157.667 248.333L158.333 248.667L157.667 248.333M186 248L185 250L186 248M189 248L190 249L189 248M198 248L198 249L200 252L202 248L198 248M203 251L204 251L205 249C207.172 250.551 208.642 250.846 209 248L208 248L209 250C206.08 248.916 203.809 247.303 203 251z"/>
<path style="fill:#5d86d7; stroke:none;" d="M216 249L223 251L223 250L219 251C219.028 248.563 218.444 248.697 216 249M222 248L223 249L222 248M231 248L232 249L231 248M235 248L236 249L235 248z"/>
<path style="fill:#444f64; stroke:none;" d="M478 248L474 249C475.545 251.122 478.122 250.952 478 248z"/>
<path style="fill:#0a132c; stroke:none;" d="M478 249L478 251L479 252L481 252L482 248L478 249z"/>
<path style="fill:#5d86d7; stroke:none;" d="M484.667 248.333L485.333 248.667L484.667 248.333M489 248L490 249L489 248z"/>
<path style="fill:#444f64; stroke:none;" d="M490.667 248.333L491.333 248.667L490.667 248.333M158.333 249.667L158.667 250.333L158.333 249.667z"/>
<path style="fill:#3e63bb; stroke:none;" d="M177 249L178 250L177 249M191 249L189 252L191 249M193 249L194 250L193 249M196 249L195 251L197 251L196 249z"/>
<path style="fill:#5d86d7; stroke:none;" d="M214 249L215 250L214 249z"/>
<path style="fill:#3e63bb; stroke:none;" d="M217 249L218 250L217 249z"/>
<path style="fill:#5d86d7; stroke:none;" d="M226 249L227 250L226 249M228 249L229 250L228 249M233 249L232 251L233 249M244 249L245 250L244 249z"/>
<path style="fill:#3e63bb; stroke:none;" d="M159 250L160 251L159 250M179 250L180 251L179 250M187 250L188 251L187 250M198 250L197 253L198 250z"/>
<path style="fill:#5d86d7; stroke:none;" d="M235 250L236 251L235 250M239 250L240 251L239 250M242 250L243 251L242 250M270 250L271 251L270 250M158 251L159 252L158 251z"/>
<path style="fill:#3e63bb; stroke:none;" d="M165 251L165 252L168 252L165 251M193 251L191 252L191 253L193 251M204 251L203 253L204 251M206 251L207 252L206 251z"/>
<path style="fill:#5d86d7; stroke:none;" d="M213 253L217 252L213 253M225 251L226 252L225 251M227 251L228 252L227 251M237 251L238 252L237 251M248 251L249 252L248 251z"/>
<path style="fill:#444f64; stroke:none;" d="M465 253L465 254L470 252L465 253z"/>
<path style="fill:#0a132c; stroke:none;" d="M467 253L467 254C470.046 254.484 471.073 254.177 471 251L467 253z"/>
<path style="fill:#444f64; stroke:none;" d="M471 251L471 252L474 252L471 251z"/>
<path style="fill:#5d86d7; stroke:none;" d="M475.667 251.333L476.333 251.667L475.667 251.333z"/>
<path style="fill:#3e63bb; stroke:none;" d="M478 251L479 252L478 251z"/>
<path style="fill:#5d86d7; stroke:none;" d="M155.667 252.333L156.333 252.667L155.667 252.333z"/>
<path style="fill:#444f64; stroke:none;" d="M164 252L164 255L165 255L164 252z"/>
<path style="fill:#0a132c; stroke:none;" d="M165 252L166 256L168 256L169 253L165 252z"/>
<path style="fill:#444f64; stroke:none;" d="M168 252L171 254L171 253L168 252z"/>
<path style="fill:#3e63bb; stroke:none;" d="M169.667 252.333L170.333 252.667L169.667 252.333z"/>
<path style="fill:#0a132c; stroke:none;" d="M171 252L172 256L174 256L175 252L171 252z"/>
<path style="fill:#3e63bb; stroke:none;" d="M175 252L176 253L175 252M181 252L182 253L181 252z"/>
<path style="fill:#0a132c; stroke:none;" d="M182 252L183 256L185 256L186 255L186 253L182 252z"/>
<path style="fill:#444f64; stroke:none;" d="M185 252L187 254L185 252z"/>
<path style="fill:#3e63bb; stroke:none;" d="M186 252L187 253L186 252z"/>
<path style="fill:#0a132c; stroke:none;" d="M193 252L194 256L196 256L197 252L193 252M204 252L205 256L207 256L208 255L208 253L204 252z"/>
<path style="fill:#444f64; stroke:none;" d="M207 252L208 253L207 252z"/>
<path style="fill:#0a132c; stroke:none;" d="M215 252L216 256L218 256L219 255L219 253L215 252z"/>
<path style="fill:#444f64; stroke:none;" d="M218 252L219 253L218 252z"/>
<path style="fill:#0a132c; stroke:none;" d="M226 252L227 256L229 256L230 252L226 252M237 252L238 256L240 256L241 252L237 252z"/>
<path style="fill:#5d86d7; stroke:none;" d="M242 252L241 255L242 252z"/>
<path style="fill:#0a132c; stroke:none;" d="M248 252L249 256L251 256L252 252L248 252M259 252L260 256L262 256L263 252L259 252M270 252L271 256L273 256L274 252L270 252M281 252L282 256L284 256L285 252L281 252z"/>
<path style="fill:#444f64; stroke:none;" d="M291.333 252.667L291.667 253.333L291.333 252.667z"/>
<path style="fill:#0a132c; stroke:none;" d="M292 252L293 256L295 256L296 252L292 252M303 252L304 256L306 256L307 255L307 253L303 252z"/>
<path style="fill:#444f64; stroke:none;" d="M306 252L307 253L306 252z"/>
<path style="fill:#0a132c; stroke:none;" d="M314 252L315 256L317 256L318 252L314 252z"/>
<path style="fill:#444f64; stroke:none;" d="M324.333 252.667L324.667 253.333L324.333 252.667z"/>
<path style="fill:#0a132c; stroke:none;" d="M325 252L326 256L328 256L329 252L325 252z"/>
<path style="fill:#444f64; stroke:none;" d="M329.333 252.667L329.667 253.333L329.333 252.667z"/>
<path style="fill:#0a132c; stroke:none;" d="M336 252L337 256L339 256L340 252L336 252z"/>
<path style="fill:#444f64; stroke:none;" d="M340.333 252.667L340.667 253.333L340.333 252.667z"/>
<path style="fill:#0a132c; stroke:none;" d="M347 252L348 256L350 256L351 252L347 252z"/>
<path style="fill:#444f64; stroke:none;" d="M351.333 252.667L351.667 253.333L351.333 252.667z"/>
<path style="fill:#0a132c; stroke:none;" d="M358 252L359 256L361 256L362 252L358 252z"/>
<path style="fill:#444f64; stroke:none;" d="M362.333 252.667L362.667 253.333L362.333 252.667M368.333 252.667L368.667 253.333L368.333 252.667z"/>
<path style="fill:#0a132c; stroke:none;" d="M369 252L370 256L372 256L373 252L369 252z"/>
<path style="fill:#444f64; stroke:none;" d="M373.333 252.667L373.667 253.333L373.333 252.667M379.333 252.667L379.667 253.333L379.333 252.667z"/>
<path style="fill:#0a132c; stroke:none;" d="M380 252L381 256L383 256L384 252L380 252z"/>
<path style="fill:#444f64; stroke:none;" d="M384.333 252.667L384.667 253.333L384.333 252.667M390 252L389 254L390 252z"/>
<path style="fill:#0a132c; stroke:none;" d="M390 253L394 256L395 252L390 253z"/>
<path style="fill:#444f64; stroke:none;" d="M395.333 252.667L395.667 253.333L395.333 252.667M401.333 252.667L401.667 253.333L401.333 252.667z"/>
<path style="fill:#0a132c; stroke:none;" d="M402 252L403 256L405 256L406 252L402 252z"/>
<path style="fill:#444f64; stroke:none;" d="M406 252L406 254L408 254L406 252M412.333 252.667L412.667 253.333L412.333 252.667z"/>
<path style="fill:#0a132c; stroke:none;" d="M413 252L414 256L416 256L417 252L413 252z"/>
<path style="fill:#444f64; stroke:none;" d="M417.333 252.667L417.667 253.333L417.333 252.667M423 252L424 253L423 252z"/>
<path style="fill:#0a132c; stroke:none;" d="M423 253L427 256L428 252L423 253z"/>
<path style="fill:#444f64; stroke:none;" d="M428 252L428 254L430 254L428 252M434 252L433 254L434 252z"/>
<path style="fill:#0a132c; stroke:none;" d="M434 253L438 256L439 252L434 253z"/>
<path style="fill:#444f64; stroke:none;" d="M439.333 252.667L439.667 253.333L439.333 252.667M445 252L443 253L443 254L445 252z"/>
<path style="fill:#0a132c; stroke:none;" d="M446 252L447 256L449 256L450 252L446 252z"/>
<path style="fill:#444f64; stroke:none;" d="M450 252L453 254L453 253L450 252M455 252L455 254L457 252L455 252z"/>
<path style="fill:#0a132c; stroke:none;" d="M456 253L460 256L461 252L456 253z"/>
<path style="fill:#444f64; stroke:none;" d="M461 252L461 254L463 254L461 252z"/>
<path style="fill:#3e63bb; stroke:none;" d="M472 252L473 253L472 252z"/>
<path style="fill:#5d86d7; stroke:none;" d="M473 252L474 253L473 252z"/>
<path style="fill:#444f64; stroke:none;" d="M175 253L176 254L175 253M181 253L182 254L181 253z"/>
<path style="fill:#3e63bb; stroke:none;" d="M187 253L188 254L187 253z"/>
<path style="fill:#444f64; stroke:none;" d="M192 253L193 254L192 253M197 253L198 254L197 253z"/>
<path style="fill:#3e63bb; stroke:none;" d="M199 253L200 254L199 253M201 253L202 254L201 253z"/>
<path style="fill:#444f64; stroke:none;" d="M203 253L204 254L203 253M208 253L209 254L208 253z"/>
<path style="fill:#5d86d7; stroke:none;" d="M209 253L210 254L209 253M211 253L212 254L211 253z"/>
<path style="fill:#444f64; stroke:none;" d="M214 253L215 254L214 253M219 253L220 254L219 253z"/>
<path style="fill:#5d86d7; stroke:none;" d="M220 253L221 254L220 253M222 253L223 254L222 253M224 253L226 255L224 253z"/>
<path style="fill:#444f64; stroke:none;" d="M225 253L226 254L225 253M230 253L231 254L230 253z"/>
<path style="fill:#5d86d7; stroke:none;" d="M233 253L234 254L233 253M235 253L237 255L235 253z"/>
<path style="fill:#444f64; stroke:none;" d="M236 253L237 254L236 253M241 253L242 254L241 253z"/>
<path style="fill:#5d86d7; stroke:none;" d="M246 253L248 255L246 253z"/>
<path style="fill:#444f64; stroke:none;" d="M247 253L248 254L247 253M252 253L253 254L252 253z"/>
<path style="fill:#5d86d7; stroke:none;" d="M256 253L257 254L256 253z"/>
<path style="fill:#444f64; stroke:none;" d="M258 253L259 254L258 253M263 253L264 254L263 253M269 253L270 254L269 253M274 253L275 254L274 253M280 253L281 254L280 253M285 253L286 254L285 253M296 253L297 254L296 253M302 253L303 254L302 253M307 253L308 254L307 253M313 253L314 254L313 253M318 253L319 254L318 253M335 253L336 254L335 253M346 253L347 254L346 253M357 253L358 254L357 253M397 253L398 254L397 253z"/>
<path style="fill:#5d86d7; stroke:none;" d="M472 253L473 254L472 253z"/>
<path style="fill:#444f64; stroke:none;" d="M168 254L169 255L168 254z"/>
<path style="fill:#5d86d7; stroke:none;" d="M170 254L171 255L170 254M186 254L187 255L186 254M208 254L209 255L208 254M214 254L215 255L214 254M219 254L220 255L219 254M230 254L231 255L230 254M252 254L253 255L252 254M258 254L259 255L258 254M263 254L264 255L263 254M269 254L270 255L269 254M274 254L275 255L274 254M280 254L281 255L280 254M285 254L286 255L285 254M291 254L292 255L291 254M296 254L297 255L296 254M302 254L303 255L302 254M307 254L308 255L307 254M313 254L314 255L313 254M318 254L319 255L318 254M324 254L325 255L324 254M329 254L330 255L329 254M335 254L336 255L335 254M340 254L341 255L340 254M346 254L347 255L346 254M351 254L352 255L351 254M357 254L358 255L357 254M362 254L363 255L362 254M368 254L369 255L368 254M373 254L374 255L373 254M379 254L380 255L379 254M384 254L385 255L384 254M390 254L391 255L390 254M395 254L396 255L395 254M401 254L402 255L401 254M406 254L407 255L406 254M412 254L413 255L412 254M417 254L418 255L417 254M423 254L424 255L423 254M428 254L429 255L428 254M434 254L435 255L434 254M439 254L440 255L439 254M445 254L446 255L445 254M450 254L451 255L450 254M456 254L457 255L456 254M461 254L462 255L461 254M467 254L468 255L467 254z"/>
<path style="fill:#444f64; stroke:none;" d="M471 254L472 255L471 254z"/>
<path style="fill:#5d86d7; stroke:none;" d="M165 255L166 256L165 255M168 255L169 256L168 255M171 255L172 256L171 255M185 255L186 256L185 255M207 255L208 256L207 255M215 255L216 256L215 255M218 255L219 256L218 255M226 255L227 256L226 255M229 255L230 256L229 255M237 255L238 256L237 255M240 255L241 256L240 255M248 255L249 256L248 255M251 255L252 256L251 255M259 255L260 256L259 255M262 255L263 256L262 255M270 255L271 256L270 255M273 255L274 256L273 255M281 255L282 256L281 255M284 255L285 256L284 255M292 255L293 256L292 255M295 255L296 256L295 255M303 255L304 256L303 255M306 255L307 256L306 255M314 255L315 256L314 255M317 255L318 256L317 255M325 255L326 256L325 255M328 255L329 256L328 255M336 255L337 256L336 255M339 255L340 256L339 255M347 255L348 256L347 255M350 255L351 256L350 255M358 255L359 256L358 255M361 255L362 256L361 255M369 255L370 256L369 255M372 255L373 256L372 255M380 255L381 256L380 255M383 255L384 256L383 255M391 255L392 256L391 255M394 255L395 256L394 255M402 255L403 256L402 255M405 255L406 256L405 255M413 255L414 256L413 255M416 255L417 256L416 255M424 255L425 256L424 255M427 255L428 256L427 255M435 255L436 256L435 255M438 255L439 256L438 255M446 255L447 256L446 255M449 255L450 256L449 255M457 255L458 256L457 255M460 255L461 256L460 255M468 255L469 256L468 255z"/>
<path style="fill:#444f64; stroke:none;" d="M469 255L470 256L469 255z"/>
<path style="fill:#5d86d7; stroke:none;" d="M470 255L471 256L470 255z"/>
</svg>
