<?xml version="1.0" standalone="yes"?>
<svg xmlns="http://www.w3.org/2000/svg" width="640" height="480">
<path style="fill:#f7f7f7; stroke:none;" d="M0 0L0 480L640 480L640 0L0 0z"/>
<path style="fill:#9a9a9a; stroke:none;" d="M194 82L194 83L225 82L282 82L465 82C458.564 79.2993 448.951 81 442 81L392 81L257 81C237.863 81 212.32 76.585 194 82z"/>
<path style="fill:#060604; stroke:none;" d="M195 82L195 224L109 224L109 215L76 215.424L56.3179 214.972L54 206C49.4243 209.225 36.2068 220.056 36.2068 225.996C36.2068 231.612 50.6516 241.937 55 245L55 235L109 235L109 226L195 226L195 351L465 351L465 228L546 228L546 238L600 238L600 247C604.584 243.771 617.793 234.056 617.793 228C617.793 222.057 604.883 212.277 600 210L600 218L546 218L546 226L465 226L465 82L195 82z"/>
<path style="fill:#d8d53a; stroke:none;" d="M194 83L194 224L195 224L195 125C195 113.056 198.607 93.9799 194 83z"/>
<path style="fill:#906a41; stroke:none;" d="M215 102L215 332L384 332L427 332L443.397 330.972L445 316L445 274L445 102L215 102z"/>
<path style="fill:#060604; stroke:none;" d="M323 135L323 136C329.936 138.105 329.994 149.695 324 153L324 154L335 154L335 153C328.875 149.623 331 140.127 331 134L323 135z"/>
<path style="fill:#9a9a9a; stroke:none;" d="M300 138L303 142L300 138z"/>
<path style="fill:#d8d53a; stroke:none;" d="M300 140L300 147L273 147L272.211 185L253 225L273 225L273 252L256 252L256 244C240.392 254.192 246.973 268.83 255 281L256 281L256 272L285 272C285 257.821 288.018 239.594 284 226L301 225L283.652 188L284 166L300 166L300 173C311.229 163.444 311.237 149.632 300 140z"/>
<path style="fill:#9a9a9a; stroke:none;" d="M303 143L304 144L303 143M304 145L305 146L304 145M361 146L361 147L364 147L361 146z"/>
<path style="fill:#d8d53a; stroke:none;" d="M362 146C353.323 153.508 350.431 160.139 363 166L363 162L386 162L387 191L368 192L386.526 229L387 272C395.103 272 416.696 268.195 421 276C433.014 270.397 430.425 262.64 421 256C418.578 263.979 404.78 261 398 261L398.637 229L416 191L397 191L397 150L363 150L362 146z"/>
<path style="fill:#9a9a9a; stroke:none;" d="M305 147L306 148L305 147M306 149L307 150L306 149M358 149L359 150L358 149M363 149L364 150L363 149M307.333 150.667L307.667 151.333L307.333 150.667M357 150L358 151L357 150M366 150L367 151L366 150M397 150L397 173L398 173L397 150M356 151L357 152L356 151M308 152L309 153L308 152M354 153L355 154L354 153M309 154L310 155L309 154M352 155L353 156L352 155M310.333 156.667L310.667 157.333L310.333 156.667M309 159L310 160L309 159M308 160L309 161L308 160M356 161L357 162L356 161M307 162L308 163L307 162M363 162L362 167L363 162M272 164L273 165L272 164M306 164L307 165L306 164M272 166L272 180L273 180L272 166M299 166L300 175L301 175L302 172L299 166M305 166L306 167L305 166M304 167L305 168L304 167M303 169L304 170L303 169M302 171L303 172L302 171M397.333 174.667L397.667 175.333L397.333 174.667M283 176L283 185L284 185L283 176z"/>
<path style="fill:#060604; stroke:none;" d="M271 183L249 227L273 227L273 226L251 226L266.691 196L271 183z"/>
<path style="fill:#9a9a9a; stroke:none;" d="M272 184L273 185L272 184z"/>
<path style="fill:#906a41; stroke:none;" d="M271 186L272 187L271 186z"/>
<path style="fill:#9a9a9a; stroke:none;" d="M271 187L272 188L271 187z"/>
<path style="fill:#060604; stroke:none;" d="M284 187L287 194L288 194L284 187z"/>
<path style="fill:#906a41; stroke:none;" d="M270 188L271 189L270 188z"/>
<path style="fill:#9a9a9a; stroke:none;" d="M283 188L284 189L283 188M270 189L271 190L270 189z"/>
<path style="fill:#906a41; stroke:none;" d="M284.333 189.667L284.667 190.333L284.333 189.667z"/>
<path style="fill:#060604; stroke:none;" d="M364 190L385 230L386 230L367 191L386 191L386 189L364 190z"/>
<path style="fill:#9a9a9a; stroke:none;" d="M386 189L387 190L386 189M397.333 189.667L397.667 190.333L397.333 189.667z"/>
<path style="fill:#060604; stroke:none;" d="M398 191L417 190L399 230L400 230L420 189C414.439 189 401.804 186.646 398 191z"/>
<path style="fill:#906a41; stroke:none;" d="M269 190L270 191L269 190M386 190L387 191L386 190M401 190L401 191L417 191L401 190z"/>
<path style="fill:#9a9a9a; stroke:none;" d="M269 191L270 192L269 191z"/>
<path style="fill:#906a41; stroke:none;" d="M285.333 191.667L285.667 192.333L285.333 191.667z"/>
<path style="fill:#9a9a9a; stroke:none;" d="M367 193L379 192C375.479 190.522 369.661 189.955 367 193M416.333 191.667L416.667 192.333L416.333 191.667z"/>
<path style="fill:#906a41; stroke:none;" d="M268 192L269 193L268 192z"/>
<path style="fill:#9a9a9a; stroke:none;" d="M268 193L269 194L268 193z"/>
<path style="fill:#906a41; stroke:none;" d="M286 193L287 194L286 193M416 193L417 194L416 193z"/>
<path style="fill:#9a9a9a; stroke:none;" d="M267 194L268 195L267 194M287 194L288 195L287 194z"/>
<path style="fill:#906a41; stroke:none;" d="M368 194L369 195L368 194z"/>
<path style="fill:#9a9a9a; stroke:none;" d="M415 194L416 195L415 194z"/>
<path style="fill:#906a41; stroke:none;" d="M415 195L416 196L415 195M266 196L267 197L266 196z"/>
<path style="fill:#060604; stroke:none;" d="M288 196L303 226C298.07 226 288.413 224.094 285 228L305 228C302.519 219.387 295.558 200.951 288 196z"/>
<path style="fill:#906a41; stroke:none;" d="M369 196L370 197L369 196z"/>
<path style="fill:#9a9a9a; stroke:none;" d="M414 196L415 197L414 196M266 197L267 198L266 197z"/>
<path style="fill:#906a41; stroke:none;" d="M288.333 197.667L288.667 198.333L288.333 197.667M265 198L266 199L265 198M370 198L371 199L370 198z"/>
<path style="fill:#9a9a9a; stroke:none;" d="M413 198L414 199L413 198z"/>
<path style="fill:#906a41; stroke:none;" d="M264.333 199.667L264.667 200.333L264.333 199.667M289.333 199.667L289.667 200.333L289.333 199.667M413 199L414 200L413 199M371 200L372 201L371 200z"/>
<path style="fill:#9a9a9a; stroke:none;" d="M412 200L413 201L412 200z"/>
<path style="fill:#906a41; stroke:none;" d="M263 201L264 202L263 201M290.333 201.667L290.667 202.333L290.333 201.667M412 201L413 202L412 201z"/>
<path style="fill:#9a9a9a; stroke:none;" d="M263 202L264 203L263 202z"/>
<path style="fill:#906a41; stroke:none;" d="M372 202L373 203L372 202M411 202L412 203L411 202M262 203L263 204L262 203M291.333 203.667L291.667 204.333L291.333 203.667z"/>
<path style="fill:#9a9a9a; stroke:none;" d="M373 203L374 204L373 203M262 204L263 205L262 204z"/>
<path style="fill:#906a41; stroke:none;" d="M373 204L374 205L373 204M410 204L411 205L410 204z"/>
<path style="fill:#9a9a9a; stroke:none;" d="M53 205L54 211L55 211L53 205z"/>
<path style="fill:#906a41; stroke:none;" d="M261 205L262 206L261 205M292.333 205.667L292.667 206.333L292.333 205.667z"/>
<path style="fill:#9a9a9a; stroke:none;" d="M374 205L375 206L374 205M52 206L53 207L52 206M261 206L262 207L261 206z"/>
<path style="fill:#906a41; stroke:none;" d="M374 206L375 207L374 206M409 206L410 207L409 206z"/>
<path style="fill:#9a9a9a; stroke:none;" d="M51 207L52 208L51 207z"/>
<path style="fill:#906a41; stroke:none;" d="M260 207L261 208L260 207M293.333 207.667L293.667 208.333L293.333 207.667z"/>
<path style="fill:#9a9a9a; stroke:none;" d="M375 207L376 208L375 207M50 208L51 209L50 208M260 208L261 209L260 208z"/>
<path style="fill:#906a41; stroke:none;" d="M375 208L376 209L375 208M408 208L409 209L408 208z"/>
<path style="fill:#9a9a9a; stroke:none;" d="M599 208L599 218L600 218L599 208z"/>
<path style="fill:#906a41; stroke:none;" d="M600 208L616.944 228L600 248C604.744 244.658 618.793 234.236 618.793 228C618.793 221.764 604.744 211.342 600 208z"/>
<path style="fill:#9a9a9a; stroke:none;" d="M601 208L602 209L601 208M49 209L50 210L49 209z"/>
<path style="fill:#906a41; stroke:none;" d="M259 209L260 210L259 209M294 209L295 210L294 209z"/>
<path style="fill:#9a9a9a; stroke:none;" d="M376 209L377 210L376 209M602 209L603 210L602 209M48 210L49 211L48 210M259 210L260 211L259 210M294 210L295 211L294 210z"/>
<path style="fill:#906a41; stroke:none;" d="M376 210L377 211L376 210M407 210L408 211L407 210z"/>
<path style="fill:#9a9a9a; stroke:none;" d="M603 210L604 211L603 210M47 211L48 212L47 211z"/>
<path style="fill:#906a41; stroke:none;" d="M54 211L55 212L54 211M258 211L259 212L258 211M295.333 211.667L295.667 212.333L295.333 211.667M377 211L378 212L377 211z"/>
<path style="fill:#9a9a9a; stroke:none;" d="M604 211L605 212L604 211M46 212L47 213L46 212M54 212L55 213L54 212M258 212L259 213L258 212z"/>
<path style="fill:#906a41; stroke:none;" d="M406 212L407 213L406 212z"/>
<path style="fill:#9a9a9a; stroke:none;" d="M605 212L606 213L605 212M45 213L46 214L45 213z"/>
<path style="fill:#906a41; stroke:none;" d="M54 213C57.5505 218.477 70.0416 216 76 216L76 215L54 213M257 213L258 214L257 213M296 213L297 214L296 213M378 213L379 214L378 213z"/>
<path style="fill:#9a9a9a; stroke:none;" d="M606 213L607 214L606 213z"/>
<path style="fill:#d8d53a; stroke:none;" d="M44 214L38 221L44 214M55 214L56 215L55 214M64 214L64 215L73 215L64 214z"/>
<path style="fill:#9a9a9a; stroke:none;" d="M73 214L73 215L109 215L109 222C114.162 209.563 80.4024 214 73 214z"/>
<path style="fill:#d8d53a; stroke:none;" d="M109 214L110 215L109 214z"/>
<path style="fill:#9a9a9a; stroke:none;" d="M257 214L258 215L257 214M296 214L297 215L296 214M379 214L380 215L379 214z"/>
<path style="fill:#906a41; stroke:none;" d="M405 214L406 215L405 214z"/>
<path style="fill:#9a9a9a; stroke:none;" d="M607 214L608 215L607 214z"/>
<path style="fill:#906a41; stroke:none;" d="M44 215L45 216L44 215M256 215L257 216L256 215M297 215L298 216L297 215M379 215L380 216L379 215z"/>
<path style="fill:#9a9a9a; stroke:none;" d="M608 215L609 216L608 215z"/>
<path style="fill:#906a41; stroke:none;" d="M43 216L44 217L43 216z"/>
<path style="fill:#9a9a9a; stroke:none;" d="M256 216L257 217L256 216M297 216L298 217L297 216M380 216L381 217L380 216z"/>
<path style="fill:#906a41; stroke:none;" d="M404.333 216.667L404.667 217.333L404.333 216.667z"/>
<path style="fill:#9a9a9a; stroke:none;" d="M609 216L610 217L609 216z"/>
<path style="fill:#906a41; stroke:none;" d="M42 217L43 218L42 217M255 217L256 218L255 217M298 217L299 218L298 217M380 217L381 218L380 217z"/>
<path style="fill:#9a9a9a; stroke:none;" d="M610 217L611 218L610 217z"/>
<path style="fill:#906a41; stroke:none;" d="M41 218L42 219L41 218z"/>
<path style="fill:#9a9a9a; stroke:none;" d="M255 218L256 219L255 218M298 218L299 219L298 218M381 218L382 219L381 218z"/>
<path style="fill:#906a41; stroke:none;" d="M403.333 218.667L403.667 219.333L403.333 218.667M545 218L545 226L546 226L545 218z"/>
<path style="fill:#9a9a9a; stroke:none;" d="M611 218L612 219L611 218z"/>
<path style="fill:#906a41; stroke:none;" d="M40 219L41 220L40 219M254 219L255 220L254 219M299 219L300 220L299 219M381 219L382 220L381 219z"/>
<path style="fill:#9a9a9a; stroke:none;" d="M612 219L613 220L612 219z"/>
<path style="fill:#906a41; stroke:none;" d="M39 220L40 221L39 220z"/>
<path style="fill:#9a9a9a; stroke:none;" d="M254 220L255 221L254 220M299 220L300 221L299 220M382 220L383 223L384 223L382 220z"/>
<path style="fill:#906a41; stroke:none;" d="M402.333 220.667L402.667 221.333L402.333 220.667z"/>
<path style="fill:#9a9a9a; stroke:none;" d="M613 220L614 221L613 220z"/>
<path style="fill:#906a41; stroke:none;" d="M38 221L39 222L38 221M253 221L254 222L253 221M300 221L301 222L300 221M382 221L383 222L382 221z"/>
<path style="fill:#9a9a9a; stroke:none;" d="M614 221L615 222L614 221z"/>
<path style="fill:#906a41; stroke:none;" d="M37 222L38 223L37 222M109.333 222.667L109.667 223.333L109.333 222.667z"/>
<path style="fill:#9a9a9a; stroke:none;" d="M253 222L254 223L253 222M300 222L301 223L300 222z"/>
<path style="fill:#906a41; stroke:none;" d="M401.333 222.667L401.667 223.333L401.333 222.667z"/>
<path style="fill:#9a9a9a; stroke:none;" d="M615 222L616 223L615 222z"/>
<path style="fill:#906a41; stroke:none;" d="M36 223L37 224L36 223M252 223L253 224L252 223M301 223L302 224L301 223M383 223L384 224L383 223z"/>
<path style="fill:#9a9a9a; stroke:none;" d="M616 223L617 224L616 223z"/>
<path style="fill:#906a41; stroke:none;" d="M35 224L36 225L35 224z"/>
<path style="fill:#9a9a9a; stroke:none;" d="M252 224C255.71 228.245 267.594 226 273 226L273 225L252 224M301 224L285 225L285 226L301 224z"/>
<path style="fill:#906a41; stroke:none;" d="M384 224L385 225L384 224M400.333 224.667L400.667 225.333L400.333 224.667z"/>
<path style="fill:#9a9a9a; stroke:none;" d="M617 224L618 225L617 224z"/>
<path style="fill:#906a41; stroke:none;" d="M34 225L35 226L34 225M251 225L252 226L251 225M302 225L303 226L302 225z"/>
<path style="fill:#9a9a9a; stroke:none;" d="M385 225L386 226L385 225M618 225L619 226L618 225M34 226L35 227L34 226z"/>
<path style="fill:#906a41; stroke:none;" d="M109 226L109 235L110 235L109 226z"/>
<path style="fill:#d8d53a; stroke:none;" d="M194 226L194 350L195 350L195 264C195 253.104 198.208 236.028 194 226z"/>
<path style="fill:#9a9a9a; stroke:none;" d="M284 226L285 227L284 226z"/>
<path style="fill:#906a41; stroke:none;" d="M385.333 226.667L385.667 227.333L385.333 226.667M399.333 226.667L399.667 227.333L399.333 226.667z"/>
<path style="fill:#9a9a9a; stroke:none;" d="M619 226L620 227L619 226M35 227L36 228L35 227M620 227L621 228L620 227M36 228L37 229L36 228M398 228L399 229L398 228z"/>
<path style="fill:#906a41; stroke:none;" d="M545 228L545 238L546 238L545 228z"/>
<path style="fill:#d8d53a; stroke:none;" d="M620 228L621 229L620 228z"/>
<path style="fill:#9a9a9a; stroke:none;" d="M37 229L38 230L37 229z"/>
<path style="fill:#d8d53a; stroke:none;" d="M619 229L620 230L619 229z"/>
<path style="fill:#9a9a9a; stroke:none;" d="M38 230L39 231L38 230z"/>
<path style="fill:#d8d53a; stroke:none;" d="M618 230L619 231L618 230z"/>
<path style="fill:#9a9a9a; stroke:none;" d="M39 231L40 232L39 231M387.333 231.667L387.667 232.333L387.333 231.667z"/>
<path style="fill:#d8d53a; stroke:none;" d="M617 231L618 232L617 231M40 232L46 238L40 232z"/>
<path style="fill:#906a41; stroke:none;" d="M41 232L42 233L41 232z"/>
<path style="fill:#d8d53a; stroke:none;" d="M616 232L617 233L616 232z"/>
<path style="fill:#906a41; stroke:none;" d="M42 233L43 234L42 233z"/>
<path style="fill:#d8d53a; stroke:none;" d="M615 233L616 234L615 233z"/>
<path style="fill:#906a41; stroke:none;" d="M43 234L44 235L43 234z"/>
<path style="fill:#d8d53a; stroke:none;" d="M614 234L615 235L614 234z"/>
<path style="fill:#906a41; stroke:none;" d="M44 235L45 236L44 235M55 235L55 236L67 236L55 235z"/>
<path style="fill:#9a9a9a; stroke:none;" d="M67 235L67 236L85 236L67 235z"/>
<path style="fill:#d8d53a; stroke:none;" d="M85 235L85 236L90 236L85 235M613 235L614 236L613 235z"/>
<path style="fill:#906a41; stroke:none;" d="M45 236L46 237L45 236z"/>
<path style="fill:#d8d53a; stroke:none;" d="M55 236L55 245L56 245L55 236M612 236L613 237L612 236z"/>
<path style="fill:#906a41; stroke:none;" d="M46 237L47 238L46 237z"/>
<path style="fill:#d8d53a; stroke:none;" d="M611 237L612 238L611 237z"/>
<path style="fill:#906a41; stroke:none;" d="M47 238L48 239L47 238z"/>
<path style="fill:#9a9a9a; stroke:none;" d="M599 238L599 248L600 248L599 238z"/>
<path style="fill:#d8d53a; stroke:none;" d="M610 238L611 239L610 238z"/>
<path style="fill:#906a41; stroke:none;" d="M48 239L49 240L48 239z"/>
<path style="fill:#d8d53a; stroke:none;" d="M609 239L610 240L609 239z"/>
<path style="fill:#906a41; stroke:none;" d="M49 240L50 241L49 240z"/>
<path style="fill:#d8d53a; stroke:none;" d="M608 240L609 241L608 240z"/>
<path style="fill:#906a41; stroke:none;" d="M50 241L51 242L50 241z"/>
<path style="fill:#d8d53a; stroke:none;" d="M607 241L608 242L607 241z"/>
<path style="fill:#906a41; stroke:none;" d="M51 242L52 243L51 242z"/>
<path style="fill:#d8d53a; stroke:none;" d="M606 242L607 243L606 242z"/>
<path style="fill:#906a41; stroke:none;" d="M52 243L53 244L52 243z"/>
<path style="fill:#9a9a9a; stroke:none;" d="M255 243L256 244L255 243z"/>
<path style="fill:#d8d53a; stroke:none;" d="M605 243L606 244L605 243z"/>
<path style="fill:#906a41; stroke:none;" d="M53 244L54 245L53 244z"/>
<path style="fill:#d8d53a; stroke:none;" d="M604 244L605 245L604 244z"/>
<path style="fill:#9a9a9a; stroke:none;" d="M54 245L55 246L54 245M253 245L254 246L253 245z"/>
<path style="fill:#d8d53a; stroke:none;" d="M603 245L604 246L603 245M602 246L603 247L602 246z"/>
<path style="fill:#9a9a9a; stroke:none;" d="M252 247L253 248L252 247z"/>
<path style="fill:#d8d53a; stroke:none;" d="M601 247L602 248L601 247z"/>
<path style="fill:#9a9a9a; stroke:none;" d="M251 249L252 250L251 249M249 252L250 253L249 252M248 254L249 255L248 254M420 256L420 260L421 260L420 256M246 257L247 258L246 257M245 259L246 260L245 259M386 259L386 272L387 272L386 259M398 260L398 261L419 261L398 260M244 261L245 262L244 261M245 264L246 265L245 264M246 266L247 267L246 266M431.333 266.667L431.667 267.333L431.333 266.667M247 268L248 269L247 268M430 268L431 269L430 268M429 269L430 270L429 269M428 270L429 271L428 270M249 271L250 272L249 271M427 271L428 272L427 271M419 272L420 273L419 272M250 273L251 274L250 273M420 273L423 277L423 276L420 273M425 273L426 274L425 273M251 275L252 276L251 275M253 278L254 279L253 278M255 279L256 280L255 279M254 280L255 281L254 280M255 281L256 282L255 281M194 350L195 351L194 350z"/>
<path style="fill:#906a41; stroke:none;" d="M195 351L195 352L465 352L440 351L385 351L195 351z"/>
</svg>
