<?xml version="1.0" standalone="yes"?>
<svg xmlns="http://www.w3.org/2000/svg" width="640" height="480">
<path style="fill:#f7f7f7; stroke:none;" d="M0 0L0 480L640 480L640 0L0 0z"/>
<path style="fill:#9c999a; stroke:none;" d="M66 192L69 194L69 193L66 192M77 192L79 194L77 192M88 192L91 194L91 193L88 192M99 192L102 194L102 193L99 192M110 192L112 194L110 192M118 195L125 195C122.272 192.554 120.663 192.472 118 195M129 195L135 194C132.318 192.412 131.199 192.876 129 195M143 192L146 194L146 193L143 192M151 195L157 194C154.318 192.412 153.199 192.876 151 195M165 192L166 193L165 192M172 194L172 195L179 194L172 194M187 192L190 194L190 193L187 192M195 195L199 193L195 195M206 195L212 194C209.318 192.412 208.199 192.876 206 195M220 192L223 194L223 193L220 192M231 192L231 193L235 195L235 194L231 192M239 195L245 194C242.318 192.412 241.199 192.876 239 195M253 192L254 193L253 192M261 195L267 194C264.318 192.412 263.199 192.876 261 195M275 192L277 194L275 192M283 195L288 194L283 195M294 195L298 193L294 195M308 192L311 194L311 193L308 192M316 195L322 194C319.318 192.412 318.199 192.876 316 195M330 192L333 194L333 193L330 192M341 192L343 194L341 192M350 193L350 194L356 196L350 193M64 193L63 195L64 193z"/>
<path style="fill:#401210; stroke:none;" d="M65 193L64 197L69 196L65 193z"/>
<path style="fill:#9c999a; stroke:none;" d="M75 193L74 195L75 193z"/>
<path style="fill:#401210; stroke:none;" d="M76 193L75 197L80 196L76 193z"/>
<path style="fill:#9c999a; stroke:none;" d="M86 193L84 194L84 195L86 193z"/>
<path style="fill:#401210; stroke:none;" d="M87 193L86 197L91 196L87 193z"/>
<path style="fill:#9c999a; stroke:none;" d="M97 193L96 195L97 193z"/>
<path style="fill:#401210; stroke:none;" d="M98 193L97 197L102 196L98 193z"/>
<path style="fill:#9c999a; stroke:none;" d="M108 193L107 195L108 193z"/>
<path style="fill:#401210; stroke:none;" d="M109 193L108 197L113 196L109 193M120 193L119 197L124 196L120 193M131 193L130 197L135 196L131 193z"/>
<path style="fill:#9c999a; stroke:none;" d="M141 193L139 194L139 195L141 193z"/>
<path style="fill:#401210; stroke:none;" d="M142 193L141 197L146 196L142 193M153 193L152 197L157 196L153 193z"/>
<path style="fill:#9c999a; stroke:none;" d="M163 193L162 195L163 193z"/>
<path style="fill:#401210; stroke:none;" d="M164 193L163 197L168 196L164 193z"/>
<path style="fill:#c75758; stroke:none;" d="M166 193L167 194L166 193z"/>
<path style="fill:#401210; stroke:none;" d="M175 193L174 197L179 196L175 193z"/>
<path style="fill:#9c999a; stroke:none;" d="M185 193L184 195L185 193z"/>
<path style="fill:#401210; stroke:none;" d="M186 193L185 197L190 196L186 193M197 193L196 197L201 196L197 193z"/>
<path style="fill:#c75758; stroke:none;" d="M199 193L201 195L199 193z"/>
<path style="fill:#9c999a; stroke:none;" d="M200 193L201 194L200 193z"/>
<path style="fill:#401210; stroke:none;" d="M208 193L207 194L207 196L212 196L208 193z"/>
<path style="fill:#9c999a; stroke:none;" d="M218 193L217 195L218 193z"/>
<path style="fill:#401210; stroke:none;" d="M219 193L218 197L223 196L219 193z"/>
<path style="fill:#9c999a; stroke:none;" d="M229 193L228 195L229 193z"/>
<path style="fill:#401210; stroke:none;" d="M230 193L229 197L234 196L230 193M241 193L240 197L245 196L241 193z"/>
<path style="fill:#9c999a; stroke:none;" d="M251 193L250 195L251 193z"/>
<path style="fill:#401210; stroke:none;" d="M252 193L251 197L256 196L252 193z"/>
<path style="fill:#c75758; stroke:none;" d="M254 193L255 194L254 193z"/>
<path style="fill:#401210; stroke:none;" d="M263 193L262 197L267 196L263 193z"/>
<path style="fill:#9c999a; stroke:none;" d="M273 193L272 195L273 193z"/>
<path style="fill:#401210; stroke:none;" d="M274 193L273 197L278 196L274 193M285 193L284 197L289 196L285 193M296 193L295 197L300 196L296 193z"/>
<path style="fill:#c75758; stroke:none;" d="M298 193L300 195L298 193z"/>
<path style="fill:#9c999a; stroke:none;" d="M299 193L300 194L299 193M306 193L305 195L306 193z"/>
<path style="fill:#401210; stroke:none;" d="M307 193L306 197L311 196L307 193M318 193L317 197L322 196L318 193z"/>
<path style="fill:#9c999a; stroke:none;" d="M328 193L329 194L328 193z"/>
<path style="fill:#401210; stroke:none;" d="M329 193L328 197L333 196L329 193z"/>
<path style="fill:#9c999a; stroke:none;" d="M339 193L340 194L339 193z"/>
<path style="fill:#401210; stroke:none;" d="M340 193L339 197L344 196L340 193M350 194L350 197L355 196L350 194z"/>
<path style="fill:#9c999a; stroke:none;" d="M362 193L362 194L381 196L381 195L362 193M385 193L388 196L385 193z"/>
<path style="fill:#c75758; stroke:none;" d="M68 194L69 195L68 194z"/>
<path style="fill:#9c999a; stroke:none;" d="M71 194L72 195L71 194z"/>
<path style="fill:#c75758; stroke:none;" d="M79 194L80 195L79 194M90 194L91 195L90 194M101 194L102 195L101 194z"/>
<path style="fill:#9c999a; stroke:none;" d="M105 194L106 195L105 194z"/>
<path style="fill:#c75758; stroke:none;" d="M112 194L113 195L112 194M123 194L124 195L123 194M134 194L135 195L134 194M145 194L146 195L145 194M156 194L157 195L156 194z"/>
<path style="fill:#9c999a; stroke:none;" d="M159 194L160 195L159 194z"/>
<path style="fill:#c75758; stroke:none;" d="M167 194L168 195L167 194z"/>
<path style="fill:#9c999a; stroke:none;" d="M170 194L171 195L170 194z"/>
<path style="fill:#c75758; stroke:none;" d="M178 194L179 195L178 194M189 194L190 195L189 194M211 194L212 195L211 194z"/>
<path style="fill:#9c999a; stroke:none;" d="M214.667 194.333L215.333 194.667L214.667 194.333z"/>
<path style="fill:#c75758; stroke:none;" d="M222 194L223 195L222 194M233 194L234 195L233 194M244 194L245 195L244 194M255 194L256 195L255 194M266 194L267 195L266 194M277 194L278 195L277 194M288 194L289 195L288 194M310 194L311 195L310 194M321 194L322 195L321 194M332 194L333 195L332 194M343 194L344 195L343 194z"/>
<path style="fill:#401210; stroke:none;" d="M361 194L365 198L366 197L366 195L361 194M372 195L372 197L377 197L377 195L372 195z"/>
<path style="fill:#9c999a; stroke:none;" d="M383 194L384 195L383 194z"/>
<path style="fill:#c75758; stroke:none;" d="M384 194L385 195L384 194z"/>
<path style="fill:#401210; stroke:none;" d="M383 198L388 197C385.643 194.553 383.977 194.567 383 198z"/>
<path style="fill:#9c999a; stroke:none;" d="M392 196L392 197L402 197C398.475 194.511 395.971 194.432 392 196z"/>
<path style="fill:#c75758; stroke:none;" d="M61 195L61 196L64 196L61 195M69 195L69 196L75 196L69 195M80 195L80 196L86 196L80 195M91 195L91 196L97 196L91 195M102 195L102 196L108 196L102 195M113 195L113 196L119 196L113 195M124 195L124 196L130 196L124 195M135 195L135 196L141 196L135 195M146 195L146 196L152 196L146 195M157 195L157 196L163 196L157 195M168 195L168 196L174 196L168 195M179 195L179 196L185 196L179 195M190 195L190 196L196 196L190 195M201 195L201 196L207 196L201 195M212 195L212 196L218 196L212 195M223 195L223 196L229 196L223 195M234 195L234 196L240 196L234 195M245 195L245 196L251 196L245 195M256 195L256 196L262 196L256 195M267 195L267 196L273 196L267 195M278 195L278 196L284 196L278 195M289 195L289 196L295 196L289 195M300 195L300 196L306 196L300 195M311 195L311 196L317 196L311 195M322 195L322 196L328 196L322 195M333 195L333 196L339 196L333 195M344 195L344 196L350 196L344 195M356 195L357 196L356 195z"/>
<path style="fill:#9c999a; stroke:none;" d="M357 195L357 196L361 196L357 195z"/>
<path style="fill:#401210; stroke:none;" d="M394 196L394 198L399 198L399 196L394 196z"/>
<path style="fill:#9c999a; stroke:none;" d="M404 197L407 196L404 197z"/>
<path style="fill:#401210; stroke:none;" d="M405 199L410 198C407.643 195.553 405.977 195.567 405 199z"/>
<path style="fill:#9c999a; stroke:none;" d="M408 195L409 196L408 195M410 197L410 198L421 197L410 197z"/>
<path style="fill:#c92b2b; stroke:none;" d="M61 196C63.0231 203.146 61.0833 210.713 61.3827 218C62.0518 234.284 62.0895 250.698 62.0895 267C62.0895 272.903 58.5303 288.895 64.4028 292.968C66.8941 294.695 70.2653 293.071 73 293.165C80.3379 293.419 87.686 292.912 95 293.165C123.867 294.164 153.133 294.164 182 293.165C284.65 289.614 387.451 299 490 283.01C512.144 279.557 533.378 275.345 555.089 269.93C564.297 267.634 579.552 264.453 585 256L586 256L588 258L592 254C592.727 248.135 597.236 245.67 593.741 239.129C589.894 231.93 577.676 227.15 570.424 224.895C550.841 218.806 531.585 211.938 511.001 209.355C504.071 208.485 486.986 208.666 482 204L464 202L435 200.16L358.004 196.15L149 196.124L61 196z"/>
<path style="fill:#c75758; stroke:none;" d="M377 196L377 197L383 197L377 196M388 196L388 197L392 197L388 196z"/>
<path style="fill:#9c999a; stroke:none;" d="M409 196L410 197L409 196z"/>
<path style="fill:#401210; stroke:none;" d="M416 197L416 199L421 199L421 197L416 197z"/>
<path style="fill:#9c999a; stroke:none;" d="M428 196L428 197L433 199L428 196z"/>
<path style="fill:#c75758; stroke:none;" d="M399 197L399 198L405 198L399 197M427 197L428 198L427 197z"/>
<path style="fill:#401210; stroke:none;" d="M427 198L427 200L432 200L431 197L427 198z"/>
<path style="fill:#9c999a; stroke:none;" d="M438 197L438 198L445 200L438 197M59 198L60 199L59 198z"/>
<path style="fill:#c75758; stroke:none;" d="M60 198L59 200L60 198z"/>
<path style="fill:#401210; stroke:none;" d="M61 198L62 204L61 198z"/>
<path style="fill:#c75758; stroke:none;" d="M421 198L421 199L426 199L421 198z"/>
<path style="fill:#9c999a; stroke:none;" d="M426 198L427 199L426 198z"/>
<path style="fill:#c75758; stroke:none;" d="M431 198L432 199L431 198z"/>
<path style="fill:#401210; stroke:none;" d="M438 198C439 201.036 439.863 201.494 443 201L443 199L438 198z"/>
<path style="fill:#9c999a; stroke:none;" d="M449 198L449 199L456 201L449 198z"/>
<path style="fill:#c75758; stroke:none;" d="M432 199L432 200L438 200L432 199z"/>
<path style="fill:#401210; stroke:none;" d="M449 199L450 203L454 202L449 199z"/>
<path style="fill:#9c999a; stroke:none;" d="M460 199L460 200L464 200L460 199z"/>
<path style="fill:#c75758; stroke:none;" d="M443 200L443 201L449 201L443 200M453 200L454 201L453 200z"/>
<path style="fill:#401210; stroke:none;" d="M460 200L464 204L464 200L460 200z"/>
<path style="fill:#9c999a; stroke:none;" d="M472.667 200.333L473.333 200.667L472.667 200.333z"/>
<path style="fill:#c75758; stroke:none;" d="M454 201L454 202L460 202L454 201M464 201L465 202L464 201M471 201L472 202L471 201z"/>
<path style="fill:#401210; stroke:none;" d="M472 201L471 205L476 204L472 201z"/>
<path style="fill:#c75758; stroke:none;" d="M474 201L475 202L474 201z"/>
<path style="fill:#9c999a; stroke:none;" d="M59 202L60 203L59 202z"/>
<path style="fill:#c75758; stroke:none;" d="M465 202L465 203L469 203L465 202z"/>
<path style="fill:#9c999a; stroke:none;" d="M469.667 202.333L470.333 202.667L469.667 202.333M475 202L476 203L475 202M482 202L476 203L476 204L483 203L482 202z"/>
<path style="fill:#c75758; stroke:none;" d="M483 202L484 203L483 202z"/>
<path style="fill:#9c999a; stroke:none;" d="M484 202L484 203L490 205L490 204L484 202M60 203L61 204L60 203z"/>
<path style="fill:#401210; stroke:none;" d="M482 203L485 207L486 203L482 203z"/>
<path style="fill:#9c999a; stroke:none;" d="M493 203L493 204L496 204L493 203z"/>
<path style="fill:#c75758; stroke:none;" d="M480 204L481 205L480 204M486 204L487 205L486 204z"/>
<path style="fill:#401210; stroke:none;" d="M493 204L493 208L497 208L493 204z"/>
<path style="fill:#c75758; stroke:none;" d="M496 204L497 205L496 204M488 205L488 206L493 206L488 205z"/>
<path style="fill:#9c999a; stroke:none;" d="M497 205L498 206L497 205M500 206L500 207L508 206L500 206z"/>
<path style="fill:#c75758; stroke:none;" d="M497 206L497 207L500 207L497 206z"/>
<path style="fill:#401210; stroke:none;" d="M503 207L508 210L508 206L503 207z"/>
<path style="fill:#c75758; stroke:none;" d="M502 207L503 208L502 207z"/>
<path style="fill:#9c999a; stroke:none;" d="M508 207L509 208L508 207M515 207L516 208L515 207z"/>
<path style="fill:#c75758; stroke:none;" d="M516 207L517 208L516 207z"/>
<path style="fill:#9c999a; stroke:none;" d="M517 207L518 208L517 207z"/>
<path style="fill:#c75758; stroke:none;" d="M508 208L508 209L512 209L508 208z"/>
<path style="fill:#9c999a; stroke:none;" d="M512.667 208.333L513.333 208.667L512.667 208.333z"/>
<path style="fill:#c75758; stroke:none;" d="M514 208L513 210L514 208z"/>
<path style="fill:#401210; stroke:none;" d="M514 209L514 211L518 212L519 208L514 209z"/>
<path style="fill:#c75758; stroke:none;" d="M60 209L59 211L60 209z"/>
<path style="fill:#401210; stroke:none;" d="M61 209L62 215L61 209z"/>
<path style="fill:#9c999a; stroke:none;" d="M519 209L520 210L519 209M526 209L526 210L529 210L526 209z"/>
<path style="fill:#c75758; stroke:none;" d="M519 210L519 211L523 211L519 210z"/>
<path style="fill:#9c999a; stroke:none;" d="M523.667 210.333L524.333 210.667L523.667 210.333z"/>
<path style="fill:#c75758; stroke:none;" d="M525 210L524 212L525 210z"/>
<path style="fill:#401210; stroke:none;" d="M525 211L525 213L530 213L530 211L525 211z"/>
<path style="fill:#c75758; stroke:none;" d="M529 210L530 211L529 210z"/>
<path style="fill:#9c999a; stroke:none;" d="M536 211L536 212L540 212L536 211z"/>
<path style="fill:#c75758; stroke:none;" d="M530 212L530 213L533 213L530 212z"/>
<path style="fill:#9c999a; stroke:none;" d="M533.667 212.333L534.333 212.667L533.667 212.333z"/>
<path style="fill:#401210; stroke:none;" d="M536 212L536 216L541 215L536 212z"/>
<path style="fill:#9c999a; stroke:none;" d="M59 213L60 214L59 213z"/>
<path style="fill:#c75758; stroke:none;" d="M266 217L261 217C255.445 213.189 244.493 216.467 238 217L234 218L234 230L226 221L225 221L225 230L223 230L223 218L222 218L221 221L219 221L218 218L217 218L221 230C216.309 225.988 214.691 225.988 210 230L213 220L212 220L209 226L203 224L203 228L209 227L201 230L201 224L200 224L194 227L194 228L200 229L200 230L190 229L192 227L192 226L187 232L186 232L180 230L184 236L178 240L178 236L176 236L178 240C175.741 249.603 183.747 254.626 192.015 257.931C208.202 264.401 224.818 267.824 242 270.3C296.064 278.091 349.167 276.237 403.424 272.486C421.551 271.233 439.955 262.705 458 263L464 261L464 260L462 259L481 249C476.427 229.868 460.391 234.933 448 224C429.323 224.95 407.06 217.736 388.184 215.569C361.465 212.501 334.832 213.025 308 213.741C295.396 214.077 277.567 211.197 266 217M534.667 213.333L535.333 213.667L534.667 213.333z"/>
<path style="fill:#9c999a; stroke:none;" d="M540 213L541 214L540 213M60 214L61 215L60 214M541.667 214.333L542.333 214.667L541.667 214.333M547 214L545 215L545 216L547 214z"/>
<path style="fill:#c75758; stroke:none;" d="M548 214L549 215L548 214z"/>
<path style="fill:#9c999a; stroke:none;" d="M549.667 214.333L550.333 214.667L549.667 214.333z"/>
<path style="fill:#c75758; stroke:none;" d="M542 215L542 216L545 216L542 215z"/>
<path style="fill:#401210; stroke:none;" d="M546 216L550 219L551 215L546 216z"/>
<path style="fill:#c75758; stroke:none;" d="M201 216L202 217L201 216M203 216L203 217L208 217L203 216M213 218L216 217L213 218M223 216L223 217L230 225L231 225L231 217L230 217L229 219L228 219L223 216M233 216L234 217L233 216z"/>
<path style="fill:#c92b2b; stroke:none;" d="M269 216L270 217L269 216z"/>
<path style="fill:#9c999a; stroke:none;" d="M551 216L554 218L554 217L551 216z"/>
<path style="fill:#401210; stroke:none;" d="M114 217L114 230L116 230L116 225L123 230L120 224C125.248 219.412 118.013 217.097 114 217M145 223L140 223L140 224L143 224C140.14 233.178 130.732 218.011 144 219C140.061 214.516 133.258 219.48 134.478 224.981C136.263 233.034 144.77 230.019 145 223M153 217L153 230C157.558 229.889 160.08 229.348 162 225L159 224C161.921 218.313 158.34 217.13 153 217M167.228 217.758C160.991 220.449 164.577 232.347 171.772 229.242C178.009 226.551 174.423 214.653 167.228 217.758M181.228 217.758C174.987 220.451 178.915 232.086 185.772 229.238C192.034 226.638 188.431 214.649 181.228 217.758M192 217L192 230L199 230L199 229L194 229L194 217L192 217M202 217L202 230L209 230L209 229C205.418 228.432 204.057 227.492 203 224L208 224L208 223C203.845 221.709 203.845 219.291 208 218L202 217z"/>
<path style="fill:#c92b2b; stroke:none;" d="M214 217L215 218L214 217z"/>
<path style="fill:#401210; stroke:none;" d="M215 217L210 230L211 230C214.418 226.255 216.582 226.255 220 230L221 230L215 217M223 217L223 230L224 230L224 220L233 230L233 217L232 217L232 227L231 227L225 217L223 217z"/>
<path style="fill:#c92b2b; stroke:none;" d="M225 217L226 218L225 217M243 217L244 218L243 217z"/>
<path style="fill:#401210; stroke:none;" d="M244.228 217.758C237.991 220.449 241.577 232.347 248.772 229.242C255.009 226.551 251.423 214.653 244.228 217.758z"/>
<path style="fill:#c92b2b; stroke:none;" d="M249 217L250 218L249 217z"/>
<path style="fill:#401210; stroke:none;" d="M255 217L255 230L256 230L257 221L258 221L265 230L265 217L264 217L264 227L263 227L255 217z"/>
<path style="fill:#c92b2b; stroke:none;" d="M257 217L258 218L257 217M263.333 217.667L263.667 218.333L263.333 217.667M265 217L265 221L266 221L265 217z"/>
<path style="fill:#c75758; stroke:none;" d="M551 217L552 218L551 217z"/>
<path style="fill:#9c999a; stroke:none;" d="M558 217L558 218L562 219L562 218L558 217z"/>
<path style="fill:#c92b2b; stroke:none;" d="M116 218L116 224C120.649 222.574 120.649 219.426 116 218M154 218L154 223L160 221L154 218M168.224 218.89C163.307 220.285 165.011 229.407 170.331 228.319C175.859 227.187 173.736 217.327 168.224 218.89M180 219L179 226L184 229L187 228L186 225C190.224 226.689 186.822 219.714 187 219L180 219z"/>
<path style="fill:#c75758; stroke:none;" d="M188 218L190 220L188 218z"/>
<path style="fill:#c92b2b; stroke:none;" d="M245 218L245 219L248 219L245 218M252 218L253 219L252 218z"/>
<path style="fill:#c75758; stroke:none;" d="M554.667 218.333L555.333 218.667L554.667 218.333z"/>
<path style="fill:#9c999a; stroke:none;" d="M556 218L557 219L556 218z"/>
<path style="fill:#c75758; stroke:none;" d="M557 218L558 219L557 218z"/>
<path style="fill:#401210; stroke:none;" d="M557 219L557 221L562 222C561 218.964 560.137 218.506 557 219z"/>
<path style="fill:#c75758; stroke:none;" d="M181 219L182 220L181 219M185 219L186 220L185 219z"/>
<path style="fill:#c92b2b; stroke:none;" d="M188 219L189 220L188 219M203.333 219.667L203.667 220.333L203.333 219.667z"/>
<path style="fill:#c75758; stroke:none;" d="M204 219L203 222L209 221L206 222L204 219z"/>
<path style="fill:#c92b2b; stroke:none;" d="M217 219L218 220L217 219M226 219L227 220L226 219M238 219L239 220L238 219M241 219L242 220L241 219z"/>
<path style="fill:#c75758; stroke:none;" d="M244.6 220.047C241.057 222.667 243.742 230.553 248.57 227.638C252.972 224.981 248.92 216.851 244.6 220.047z"/>
<path style="fill:#c92b2b; stroke:none;" d="M249 219L250 220L249 219M251 219L252 220L251 219M253 219L254 220L253 219z"/>
<path style="fill:#c75758; stroke:none;" d="M60 220L59 222L60 220z"/>
<path style="fill:#401210; stroke:none;" d="M61 220L62 226L61 220M124 220L124 230L127 227L132 230L132 220L129 223L127 223L124 220z"/>
<path style="fill:#c75758; stroke:none;" d="M180 220L181 221L180 220M186 220L187 221L186 220M215 220L214 224L217 224L217 223L215 220z"/>
<path style="fill:#c92b2b; stroke:none;" d="M224 220L224 230L225 230L224 220M246 220L245 222L246 220z"/>
<path style="fill:#9c999a; stroke:none;" d="M562.667 220.333L563.333 220.667L562.667 220.333M569 220L569 221L573 225L574 225L569 220z"/>
<path style="fill:#c92b2b; stroke:none;" d="M214.333 221.667L214.667 222.333L214.333 221.667M218.333 221.667L218.667 222.333L218.333 221.667M242 221L242 226L243 226L242 221M250 221L251 222L250 221M252 221L252 225L253 225L252 221z"/>
<path style="fill:#c75758; stroke:none;" d="M563.667 221.333L564.333 221.667L563.667 221.333z"/>
<path style="fill:#9c999a; stroke:none;" d="M565 221L565 222L568 222L565 221z"/>
<path style="fill:#c75758; stroke:none;" d="M568 221L566 222L566 223L568 221z"/>
<path style="fill:#401210; stroke:none;" d="M567 224L571 226L571 221L567 224z"/>
<path style="fill:#c75758; stroke:none;" d="M155 222L156 223L155 222M191 222L190 225L191 225L192 225L191 222z"/>
<path style="fill:#c92b2b; stroke:none;" d="M212 222L213 223L212 222M216 222L217 223L216 222M226 222L227 223L226 222M228 222L229 223L228 222M233 222L234 223L233 222M240 222L240 225L241 225L240 222M260 222L261 223L260 222M191 223L192 224L191 223M245 223L246 224L245 223M265 223L266 224L265 223z"/>
<path style="fill:#9c999a; stroke:none;" d="M59 224L60 225L59 224z"/>
<path style="fill:#c92b2b; stroke:none;" d="M154 224L154 229L160 228C158.901 224.679 157.41 224.263 154 224z"/>
<path style="fill:#c75758; stroke:none;" d="M176 224L177 225L176 224M194 224L195 225L194 224z"/>
<path style="fill:#c92b2b; stroke:none;" d="M215.667 224.333L216.333 224.667L215.667 224.333z"/>
<path style="fill:#c75758; stroke:none;" d="M572 224L573 225L572 224z"/>
<path style="fill:#9c999a; stroke:none;" d="M60 225L61 226L60 225z"/>
<path style="fill:#c75758; stroke:none;" d="M180 225L185 228L180 225M186.333 225.667L186.667 226.333L186.333 225.667M195 225L196 226L195 225z"/>
<path style="fill:#c92b2b; stroke:none;" d="M205 225L206 226L205 225M211 225L212 226L211 225M219 225L220 226L219 225M228 225L229 226L228 225M262 225L263 226L262 225z"/>
<path style="fill:#c75758; stroke:none;" d="M574 225L574 226L578 227L578 226L574 225z"/>
<path style="fill:#9c999a; stroke:none;" d="M576 225L577 226L576 225M578 225L578 226L582 226L578 225z"/>
<path style="fill:#c75758; stroke:none;" d="M175 226L176 227L175 226z"/>
<path style="fill:#c92b2b; stroke:none;" d="M203 226L204 227L203 226M207 226L208 227L207 226M209 226L210 227L209 226z"/>
<path style="fill:#c75758; stroke:none;" d="M231 226L232 227L231 226z"/>
<path style="fill:#401210; stroke:none;" d="M578 226L582 230L582 226L578 226z"/>
<path style="fill:#c75758; stroke:none;" d="M155 227L156 228L155 227z"/>
<path style="fill:#c92b2b; stroke:none;" d="M180 227L181 228L180 227M188.333 227.667L188.667 228.333L188.333 227.667M190 227L190 229L192 227L190 227M208 227L204 228L204 229L208 227M212 227L213 228L212 227M218 227L219 228L218 227M229 227L230 228L229 227M241 227L242 228L241 227M251 227L252 228L251 227M256 227L257 228L256 227z"/>
<path style="fill:#9c999a; stroke:none;" d="M582 227L586 231L586 230L582 227z"/>
<path style="fill:#c75758; stroke:none;" d="M169 228L170 229L169 228z"/>
<path style="fill:#c92b2b; stroke:none;" d="M182 228L183 229L182 228M194 228L195 229L194 228M196 228L196 229L199 229L196 228M247 228L248 229L247 228z"/>
<path style="fill:#c75758; stroke:none;" d="M165 229L167 231L165 229z"/>
<path style="fill:#c92b2b; stroke:none;" d="M166 229L167 230L166 229M172 229L173 230L172 229z"/>
<path style="fill:#c75758; stroke:none;" d="M173 229L174 230L173 229M178 229L177 231L178 229z"/>
<path style="fill:#c92b2b; stroke:none;" d="M186 229L186 232L187 232L186 229M199 229L200 230L199 229M211 229L212 230L211 229M219 229L220 230L219 229M233 229L234 230L233 229M256 229L257 230L256 229z"/>
<path style="fill:#c75758; stroke:none;" d="M582 229L583 230L582 229M172 230L173 231L172 230z"/>
<path style="fill:#c92b2b; stroke:none;" d="M181 230L182 231L181 230M188 231L191 233L191 230L188 231z"/>
<path style="fill:#c75758; stroke:none;" d="M584 230L585 231L584 230z"/>
<path style="fill:#9c999a; stroke:none;" d="M587 231L587 232L592 233L587 231z"/>
<path style="fill:#c75758; stroke:none;" d="M60 231L59 233L60 231z"/>
<path style="fill:#401210; stroke:none;" d="M61 231L62 237L61 231z"/>
<path style="fill:#c92b2b; stroke:none;" d="M182 231L182 232L186 234L182 231M197 231L198 232L197 231M221 231L222 232L221 231z"/>
<path style="fill:#c75758; stroke:none;" d="M586 231L587 232L586 231z"/>
<path style="fill:#401210; stroke:none;" d="M588 231C587.506 234.137 587.964 235 591 236L590 231L588 231z"/>
<path style="fill:#c75758; stroke:none;" d="M179 232L178 234L180 234L179 232M591 233L591 236L592 236L591 233z"/>
<path style="fill:#9c999a; stroke:none;" d="M59 235L60 236L59 235M60 236L61 237L60 236z"/>
<path style="fill:#c75758; stroke:none;" d="M592 236L593 237L592 236M593 237L594 238L593 237z"/>
<path style="fill:#401210; stroke:none;" d="M336 246L336 247L342 254L342 253C338.553 248.679 338.568 243.329 342 239L336 246M344 238L344 251L346 251L346 246L353 251C349.938 244.027 353.877 238.24 344 238M375 244L370 244L370 245L373 245L373 250C364.051 248.606 364.821 239.316 374 240C369.177 236.408 362.294 240.663 364.758 246.891C367.718 254.377 374.664 250.067 375 244z"/>
<path style="fill:#c92b2b; stroke:none;" d="M373 238L374 239L373 238z"/>
<path style="fill:#401210; stroke:none;" d="M382 238L382 251C393.253 250.867 393.175 238.132 382 238z"/>
<path style="fill:#c92b2b; stroke:none;" d="M396 238L397 239L396 238z"/>
<path style="fill:#401210; stroke:none;" d="M397.148 238.762C391.264 241.127 393.955 252.713 400.942 250.353C407.962 247.981 404.433 235.832 397.148 238.762M411.148 238.762C405.298 241.114 408.116 252.678 414.945 250.353C421.957 247.965 418.431 235.833 411.148 238.762M422 238L422 251L429 251L429 250L424 250L424 238L422 238M432 241C435.503 241 434 248.039 434 251L436 251L436 238L432 241z"/>
<path style="fill:#c92b2b; stroke:none;" d="M440 238L442 240L440 238z"/>
<path style="fill:#401210; stroke:none;" d="M441 238C443.233 244.088 443.26 247.941 441 254L446 246L441 238z"/>
<path style="fill:#9c999a; stroke:none;" d="M594 238L595 239L594 238z"/>
<path style="fill:#c75758; stroke:none;" d="M173 239L174 240L173 239z"/>
<path style="fill:#9c999a; stroke:none;" d="M342 239L343 240L342 239z"/>
<path style="fill:#c75758; stroke:none;" d="M346 239C346.627 246.842 352.93 241.124 346 239M384 239L384 244C388.992 243.168 388.992 239.832 384 239M398.21 239.851C393.718 241.41 394.745 250.343 399.935 249.168C405.384 247.935 403.924 237.869 398.21 239.851z"/>
<path style="fill:#c92b2b; stroke:none;" d="M403 239L404 240L403 239z"/>
<path style="fill:#c75758; stroke:none;" d="M412.21 239.89C407.611 241.228 408.806 250.356 413.91 249.168C418.994 247.985 417.511 238.348 412.21 239.89z"/>
<path style="fill:#c92b2b; stroke:none;" d="M417 239L418 240L417 239z"/>
<path style="fill:#c75758; stroke:none;" d="M595 239L596 240L595 239z"/>
<path style="fill:#9c999a; stroke:none;" d="M596 239L597 240L596 239z"/>
<path style="fill:#c92b2b; stroke:none;" d="M416 240L417 241L416 240M431 240L431 242L433 242L431 240z"/>
<path style="fill:#401210; stroke:none;" d="M594 240L594 244L598 243L598 241L594 240z"/>
<path style="fill:#c75758; stroke:none;" d="M597 240L598 241L597 240z"/>
<path style="fill:#401210; stroke:none;" d="M354 241L354 251L359 247L362 251L362 241L359 244L357 244L354 241z"/>
<path style="fill:#c92b2b; stroke:none;" d="M442 241L442 245L443 245L442 241z"/>
<path style="fill:#c75758; stroke:none;" d="M60 242L59 244L60 242z"/>
<path style="fill:#401210; stroke:none;" d="M61 242L62 248L61 242z"/>
<path style="fill:#c92b2b; stroke:none;" d="M390 242L391 243L390 242M403 242L404 243L403 242M417.333 242.667L417.667 243.333L417.333 242.667M393 243L393 246L394 246L393 243M407 243L407 246L408 246L407 243z"/>
<path style="fill:#9c999a; stroke:none;" d="M597 243L598 244L597 243M336 244L337 245L336 244M346.667 244.333L347.333 244.667L346.667 244.333z"/>
<path style="fill:#c75758; stroke:none;" d="M596 244L597 245L596 244M384 245L384 250C387.474 249.423 388.423 248.474 389 245L384 245z"/>
<path style="fill:#c92b2b; stroke:none;" d="M390 245L391 246L390 245M417.333 245.667L417.667 246.333L417.333 245.667z"/>
<path style="fill:#9c999a; stroke:none;" d="M596.333 245.667L596.667 246.333L596.333 245.667M59 246L60 247L59 246z"/>
<path style="fill:#c75758; stroke:none;" d="M338 246L339 247L338 246z"/>
<path style="fill:#9c999a; stroke:none;" d="M339 246L340 247L339 246M346.667 246.333L347.333 246.667L346.667 246.333z"/>
<path style="fill:#c92b2b; stroke:none;" d="M389.333 246.667L389.667 247.333L389.333 246.667M403 246L404 247L403 246z"/>
<path style="fill:#9c999a; stroke:none;" d="M60 247L61 248L60 247M336 247L338 249L336 247z"/>
<path style="fill:#c75758; stroke:none;" d="M337 247L338 248L337 247z"/>
<path style="fill:#c92b2b; stroke:none;" d="M395 247L396 248L395 247M444 247L445 248L444 247M355 248L356 249L355 248M402 248L403 249L402 248M408 248L409 249L408 248M442 248L442 251L443 251L442 248z"/>
<path style="fill:#c75758; stroke:none;" d="M595 248L596 249L595 248z"/>
<path style="fill:#c92b2b; stroke:none;" d="M368 249L369 250L368 249M372 249L373 250L372 249M374 249L375 250L374 249M390 249L391 250L390 249M417 249L418 250L417 249M425.667 249.333L426.333 249.667L425.667 249.333M428 249L429 250L428 249z"/>
<path style="fill:#401210; stroke:none;" d="M593 249L591 253L596 253L595 249L593 249z"/>
<path style="fill:#9c999a; stroke:none;" d="M595 249L596 250L595 249z"/>
<path style="fill:#c92b2b; stroke:none;" d="M355 250L356 251L355 250M360 250L361 251L360 250M410 250L411 251L410 250M429 250L430 251L429 250z"/>
<path style="fill:#c75758; stroke:none;" d="M595 250L596 251L595 250z"/>
<path style="fill:#c92b2b; stroke:none;" d="M338 252L339 253L338 252M441 252L442 253L441 252z"/>
<path style="fill:#9c999a; stroke:none;" d="M59 253L60 254L59 253z"/>
<path style="fill:#c75758; stroke:none;" d="M60 253L59 255L60 253z"/>
<path style="fill:#401210; stroke:none;" d="M61 253L62 259L61 253z"/>
<path style="fill:#c92b2b; stroke:none;" d="M440 253L441 254L440 253M442 253L443 254L442 253z"/>
<path style="fill:#9c999a; stroke:none;" d="M595 253L596 254L595 253z"/>
<path style="fill:#c75758; stroke:none;" d="M590 254L588 257L590 254z"/>
<path style="fill:#9c999a; stroke:none;" d="M591 254L591 255L595 255L591 254M590 255L591 256L590 255z"/>
<path style="fill:#401210; stroke:none;" d="M585 256L583 260L584 261L588 259L588 258L585 256z"/>
<path style="fill:#9c999a; stroke:none;" d="M589 256L590 257L589 256M59 257L60 258L59 257M60 258L61 259L60 258M587 259L588 260L587 259z"/>
<path style="fill:#c75758; stroke:none;" d="M578 262L578 263L584 261L578 262z"/>
<path style="fill:#9c999a; stroke:none;" d="M586 260L587 261L586 260M581 261L582 262L581 261M584.667 261.333L585.333 261.667L584.667 261.333z"/>
<path style="fill:#401210; stroke:none;" d="M573 263L573 265C576.137 265.494 577 265.036 578 262L573 263z"/>
<path style="fill:#9c999a; stroke:none;" d="M579 262L580 263L579 262M59 264L60 265L59 264z"/>
<path style="fill:#c75758; stroke:none;" d="M60 264L59 266L60 264z"/>
<path style="fill:#401210; stroke:none;" d="M61 264L62 270L61 264z"/>
<path style="fill:#c75758; stroke:none;" d="M568 266L568 267L572 266L568 266z"/>
<path style="fill:#9c999a; stroke:none;" d="M572.667 265.333L573.333 265.667L572.667 265.333M577 265L578 266L577 265z"/>
<path style="fill:#401210; stroke:none;" d="M563 267L563 269L564 270L568 266L563 267z"/>
<path style="fill:#9c999a; stroke:none;" d="M570 266L571 267L570 266M574 266L574 267L577 267L574 266M59 268L60 269L59 268z"/>
<path style="fill:#c75758; stroke:none;" d="M562 268L564 270L562 268M567 268L566 270L567 268z"/>
<path style="fill:#9c999a; stroke:none;" d="M60 269L61 270L60 269z"/>
<path style="fill:#401210; stroke:none;" d="M552 270L552 272L557 273L557 269L552 270z"/>
<path style="fill:#c75758; stroke:none;" d="M559.667 269.333L560.333 269.667L559.667 269.333z"/>
<path style="fill:#9c999a; stroke:none;" d="M561.667 269.333L562.333 269.667L561.667 269.333M567 269L568 270L567 269z"/>
<path style="fill:#c75758; stroke:none;" d="M557 270L558 271L557 270z"/>
<path style="fill:#9c999a; stroke:none;" d="M558 270L559 271L558 270M564.667 270.333L565.333 270.667L564.667 270.333M557 271L558 272L557 271z"/>
<path style="fill:#401210; stroke:none;" d="M542 273L542 275L547 275L547 273L542 273z"/>
<path style="fill:#c75758; stroke:none;" d="M548 272L548 273L551 273L548 272z"/>
<path style="fill:#9c999a; stroke:none;" d="M551.667 272.333L552.333 272.667L551.667 272.333M547.667 273.333L548.333 273.667L547.667 273.333M553 273L553 274L557 274L553 273z"/>
<path style="fill:#401210; stroke:none;" d="M531 275L531 278L536 278L536 275L531 275z"/>
<path style="fill:#c75758; stroke:none;" d="M540.667 274.333L541.333 274.667L540.667 274.333z"/>
<path style="fill:#9c999a; stroke:none;" d="M59 275L60 276L59 275z"/>
<path style="fill:#c75758; stroke:none;" d="M60 275L59 277L60 275z"/>
<path style="fill:#401210; stroke:none;" d="M61 275L62 281L61 275z"/>
<path style="fill:#c75758; stroke:none;" d="M536 275L536 276L539 276L536 275z"/>
<path style="fill:#9c999a; stroke:none;" d="M539.667 275.333L540.333 275.667L539.667 275.333z"/>
<path style="fill:#c75758; stroke:none;" d="M542 275L543 276L542 275z"/>
<path style="fill:#9c999a; stroke:none;" d="M546 275L547 276L546 275M536 276L537 277L536 276M543 276L543 277L546 277L543 276z"/>
<path style="fill:#401210; stroke:none;" d="M520 278L520 280C523.137 280.494 524 280.036 525 277L520 278z"/>
<path style="fill:#c75758; stroke:none;" d="M525 278L525 279L530 278L525 278z"/>
<path style="fill:#9c999a; stroke:none;" d="M530 277L531 278L530 277M526.667 278.333L527.333 278.667L526.667 278.333M531 278L532 279L531 278z"/>
<path style="fill:#c75758; stroke:none;" d="M532 278L533 279L532 278z"/>
<path style="fill:#9c999a; stroke:none;" d="M534.667 278.333L535.333 278.667L534.667 278.333M59 279L60 280L59 279z"/>
<path style="fill:#401210; stroke:none;" d="M510 279L511 283L513 283L514 279L510 279z"/>
<path style="fill:#c75758; stroke:none;" d="M517 279L517 280L520 280L517 279z"/>
<path style="fill:#9c999a; stroke:none;" d="M533 279L534 280L533 279M60 280L61 281L60 280z"/>
<path style="fill:#c75758; stroke:none;" d="M514 280L515 281L514 280z"/>
<path style="fill:#9c999a; stroke:none;" d="M515 280L515 281L518 281L515 280M520 280L521 281L520 280M524 280L525 281L524 280z"/>
<path style="fill:#401210; stroke:none;" d="M499 281L499 284L503 284L503 281L499 281z"/>
<path style="fill:#c75758; stroke:none;" d="M503 282L503 283L510 282L503 282z"/>
<path style="fill:#9c999a; stroke:none;" d="M514 281L515 282L514 281M521.667 281.333L522.333 281.667L521.667 281.333z"/>
<path style="fill:#401210; stroke:none;" d="M488 286L493 283C489.863 282.506 489 282.964 488 286z"/>
<path style="fill:#9c999a; stroke:none;" d="M504.667 282.333L505.333 282.667L504.667 282.333z"/>
<path style="fill:#c75758; stroke:none;" d="M510 282L511 283L510 282z"/>
<path style="fill:#9c999a; stroke:none;" d="M513 282L514 283L513 282z"/>
<path style="fill:#c75758; stroke:none;" d="M493 283L493 284L496 284L493 283z"/>
<path style="fill:#9c999a; stroke:none;" d="M496 283L496 284L499 284L496 283M511.667 283.333L512.333 283.667L511.667 283.333z"/>
<path style="fill:#401210; stroke:none;" d="M477 284L478 288L480 288L481 284L477 284z"/>
<path style="fill:#c75758; stroke:none;" d="M484 284L484 285L488 285L484 284M492 284L493 285L492 284z"/>
<path style="fill:#9c999a; stroke:none;" d="M499 284L500 285L499 284z"/>
<path style="fill:#c75758; stroke:none;" d="M500.667 284.333L501.333 284.667L500.667 284.333z"/>
<path style="fill:#9c999a; stroke:none;" d="M502 284L503 285L502 284z"/>
<path style="fill:#401210; stroke:none;" d="M466 286L466 288L471 288L471 286L466 286z"/>
<path style="fill:#c75758; stroke:none;" d="M481 285L482 286L481 285z"/>
<path style="fill:#9c999a; stroke:none;" d="M482 285L482 286L485 286L482 285M492 285L493 286L492 285M59 286L60 287L59 286z"/>
<path style="fill:#c75758; stroke:none;" d="M60 286L59 288L60 286z"/>
<path style="fill:#401210; stroke:none;" d="M61 286L59 295L64 295L61 286M455 287L455 289L460 289L460 287L455 287z"/>
<path style="fill:#c75758; stroke:none;" d="M471 286L471 287L474 287L471 286z"/>
<path style="fill:#9c999a; stroke:none;" d="M474 286L474 287L477 287L474 286M481 286L482 287L481 286M489 286L489 287L492 287L489 286z"/>
<path style="fill:#401210; stroke:none;" d="M444 288L444 290L449 290L449 288L448 287L444 288z"/>
<path style="fill:#c75758; stroke:none;" d="M460 287L460 288L465 288L460 287z"/>
<path style="fill:#9c999a; stroke:none;" d="M465 287L466 288L465 287M477 287L478 288L477 287M480 287L481 288L480 287z"/>
<path style="fill:#401210; stroke:none;" d="M433 289L433 291L438 291L438 289L433 289z"/>
<path style="fill:#c75758; stroke:none;" d="M449 288L449 289L454 289L449 288z"/>
<path style="fill:#9c999a; stroke:none;" d="M454 288L455 289L454 288M460 288L461 289L460 288M466 288L467 289L466 288M470 288L471 289L470 288M479 288L480 289L479 288z"/>
<path style="fill:#401210; stroke:none;" d="M422 290L422 292L427 292L427 290L422 290z"/>
<path style="fill:#c75758; stroke:none;" d="M438 289L438 290L444 290L438 289z"/>
<path style="fill:#9c999a; stroke:none;" d="M449.667 289.333L450.333 289.667L449.667 289.333z"/>
<path style="fill:#c75758; stroke:none;" d="M455 289L456 290L455 289z"/>
<path style="fill:#9c999a; stroke:none;" d="M459 289L460 290L459 289M467 289L467 290L470 290L467 289M59 290L60 291L59 290z"/>
<path style="fill:#401210; stroke:none;" d="M400 291L400 293L405 293L405 291L400 291M411 291L411 293C414.081 293.283 415.144 293.03 416 290L411 291z"/>
<path style="fill:#c75758; stroke:none;" d="M427 290L427 291L432 291L427 290z"/>
<path style="fill:#9c999a; stroke:none;" d="M432 290L433 291L432 290M438.667 290.333L439.333 290.667L438.667 290.333M444 290L445 291L444 290M448 290L449 291L448 290M456 290L456 291L459 291L456 290M60.3333 291.667L60.6667 292.333L60.3333 291.667z"/>
<path style="fill:#401210; stroke:none;" d="M378 292L378 294L383 294L383 292L382 291L378 292M389 292L389 294L394 294L394 292L389 292z"/>
<path style="fill:#c75758; stroke:none;" d="M409.667 291.333L410.333 291.667L409.667 291.333M416 291L416 292L419 292L416 291z"/>
<path style="fill:#9c999a; stroke:none;" d="M419 291L419 292L422 292L419 291M433 291L434 292L433 291M437 291L438 292L437 291M445 291L445 292L448 292L445 291z"/>
<path style="fill:#401210; stroke:none;" d="M70 293L70 295L75 295L75 293L70 293M81 293L81 295L86 295L86 293L81 293M92 293L92 295L97 295L97 293L92 293M103 293L103 295L108 295L108 293L103 293M114 293L114 295L119 295L119 293L114 293M125 293L125 295L130 295L130 293L125 293M136 293L136 295L141 295L141 293L136 293M147 293L147 295L152 295L152 293L147 293M158 293L158 295L163 295L163 293L158 293M169 293L169 295L174 295L174 293L169 293M180 293L180 295L185 295L185 293L180 293M191 293L191 295L196 295L196 293L191 293M202 293L202 295L207 295L207 293L202 293M213 293L213 295L218 295L218 293L213 293M224 293L224 295L229 295L229 293L224 293M235 293L235 295L240 295L240 293L235 293M246 293L246 295L251 295L251 293L246 293M257 293L257 295L262 295L262 293L257 293M268 293L268 295L273 295L273 293L268 293M279 293L279 295L284 295L284 293L279 293M290 293L290 295L295 295L295 293L290 293M301 293L301 295L306 295L306 293L301 293M312 293L312 295L317 295L317 293L312 293M323 293L323 295L328 295L328 293L323 293M334 293L334 295L339 295L339 293L334 293M345 293L345 295L350 295L350 293L345 293M356 293L356 295L361 295L361 293L356 293M367 293C369.357 295.447 371.023 295.433 372 292L367 293z"/>
<path style="fill:#c75758; stroke:none;" d="M387.667 292.333L388.333 292.667L387.667 292.333M394 292L394 293L399 293L394 292z"/>
<path style="fill:#9c999a; stroke:none;" d="M399 292L400 293L399 292M405 292L405 293L410 293L405 292M422 292L423 293L422 292M426 292L427 293L426 292M434 292L434 293L437 293L434 292M59 293L60 294L59 293z"/>
<path style="fill:#c75758; stroke:none;" d="M350 293L351 294L350 293M355 293L356 294L355 293M361 293L361 294L367 294L361 293M372 293L372 294L378 294L372 293z"/>
<path style="fill:#9c999a; stroke:none;" d="M383 293L383 294L389 294L383 293M400 293L401 294L400 293z"/>
<path style="fill:#c75758; stroke:none;" d="M404 293L405 294L404 293z"/>
<path style="fill:#9c999a; stroke:none;" d="M411.667 293.333L412.333 293.667L411.667 293.333z"/>
<path style="fill:#c75758; stroke:none;" d="M414 293L415 294L414 293z"/>
<path style="fill:#9c999a; stroke:none;" d="M415 293L416 294L415 293M423 293L423 294L426 294L423 293M64 294L64 295L70 295L64 294M75 294L75 295L81 295L75 294M86 294L86 295L92 295L86 294M97 294L97 295L103 295L97 294M108 294L108 295L114 295L108 294M119 294L119 295L125 295L119 294M130 294L130 295L136 295L130 294M141 294L141 295L147 295L141 294M152 294L152 295L158 295L152 294M163 294L163 295L169 295L163 294M174 294L174 295L180 295L174 294M185 294L185 295L191 295L185 294M196 294L196 295L202 295L196 294M207 294L207 295L213 295L207 294M218 294L218 295L224 295L218 294M229 294L229 295L235 295L229 294M240 294L240 295L246 295L240 294M251 294L251 295L257 295L251 294M262 294L262 295L268 295L262 294M273 294L273 295L279 295L273 294M284 294L284 295L290 295L284 294M295 294L295 295L301 295L295 294M306 294L306 295L312 295L306 294M317 294L317 295L323 295L317 294M328 294L328 295L334 295L328 294M339 294L339 295L345 295L339 294M350 294L350 295L356 295L350 294z"/>
<path style="fill:#c75758; stroke:none;" d="M367 294L368 295L367 294z"/>
<path style="fill:#9c999a; stroke:none;" d="M378 294L379 295L378 294z"/>
<path style="fill:#c75758; stroke:none;" d="M382 294L383 295L382 294z"/>
<path style="fill:#9c999a; stroke:none;" d="M389 294L390 295L389 294M393 294L394 295L393 294M401 294L401 295L404 295L401 294M413 294L414 295L413 294M59 295L60 296L59 295M63 295L64 296L63 295M70 295L71 296L70 295z"/>
<path style="fill:#c75758; stroke:none;" d="M74 295L75 296L74 295z"/>
<path style="fill:#9c999a; stroke:none;" d="M81 295L82 296L81 295M85 295L86 296L85 295M92 295L93 296L92 295z"/>
<path style="fill:#c75758; stroke:none;" d="M96 295L97 296L96 295z"/>
<path style="fill:#9c999a; stroke:none;" d="M103 295L104 296L103 295z"/>
<path style="fill:#c75758; stroke:none;" d="M107 295L108 296L107 295z"/>
<path style="fill:#9c999a; stroke:none;" d="M114 295L115 296L114 295z"/>
<path style="fill:#c75758; stroke:none;" d="M118 295L119 296L118 295z"/>
<path style="fill:#9c999a; stroke:none;" d="M125 295L126 296L125 295M129 295L130 296L129 295M136 295L137 296L136 295z"/>
<path style="fill:#c75758; stroke:none;" d="M140 295L141 296L140 295z"/>
<path style="fill:#9c999a; stroke:none;" d="M147 295L148 296L147 295z"/>
<path style="fill:#c75758; stroke:none;" d="M151 295L152 296L151 295z"/>
<path style="fill:#9c999a; stroke:none;" d="M158 295L159 296L158 295z"/>
<path style="fill:#c75758; stroke:none;" d="M162 295L163 296L162 295z"/>
<path style="fill:#9c999a; stroke:none;" d="M169 295L170 296L169 295M173 295L174 296L173 295M180 295L181 296L180 295z"/>
<path style="fill:#c75758; stroke:none;" d="M184 295L185 296L184 295z"/>
<path style="fill:#9c999a; stroke:none;" d="M191 295L192 296L191 295M195 295L196 296L195 295M202 295L203 296L202 295z"/>
<path style="fill:#c75758; stroke:none;" d="M206 295L207 296L206 295z"/>
<path style="fill:#9c999a; stroke:none;" d="M213 295L214 296L213 295M217 295L218 296L217 295M224 295L225 296L224 295M228 295L229 296L228 295M235 295L236 296L235 295M239 295L240 296L239 295M246 295L247 296L246 295z"/>
<path style="fill:#c75758; stroke:none;" d="M250 295L251 296L250 295z"/>
<path style="fill:#9c999a; stroke:none;" d="M257 295L258 296L257 295M261 295L262 296L261 295M268 295L269 296L268 295z"/>
<path style="fill:#c75758; stroke:none;" d="M272 295L273 296L272 295z"/>
<path style="fill:#9c999a; stroke:none;" d="M279 295L280 296L279 295M283 295L284 296L283 295M290 295L291 296L290 295z"/>
<path style="fill:#c75758; stroke:none;" d="M294 295L295 296L294 295z"/>
<path style="fill:#9c999a; stroke:none;" d="M301 295L302 296L301 295z"/>
<path style="fill:#c75758; stroke:none;" d="M305 295L306 296L305 295z"/>
<path style="fill:#9c999a; stroke:none;" d="M312 295L313 296L312 295z"/>
<path style="fill:#c75758; stroke:none;" d="M316 295L317 296L316 295z"/>
<path style="fill:#9c999a; stroke:none;" d="M323 295L324 296L323 295z"/>
<path style="fill:#c75758; stroke:none;" d="M327 295L328 296L327 295z"/>
<path style="fill:#9c999a; stroke:none;" d="M334 295L335 296L334 295z"/>
<path style="fill:#c75758; stroke:none;" d="M338 295L339 296L338 295z"/>
<path style="fill:#9c999a; stroke:none;" d="M345 295L346 296L345 295M349 295L350 296L349 295M356 295L357 296L356 295M360 295L361 296L360 295M368 295L369 296L368 295z"/>
<path style="fill:#c75758; stroke:none;" d="M370 295L371 296L370 295z"/>
<path style="fill:#9c999a; stroke:none;" d="M371 295L372 296L371 295M379 295L380 296L379 295z"/>
<path style="fill:#c75758; stroke:none;" d="M380 295L381 296L380 295z"/>
<path style="fill:#9c999a; stroke:none;" d="M381.667 295.333L382.333 295.667L381.667 295.333M390 295L390 296L393 296L390 295M60 296L60 297L63 297L60 296M71 296L71 297L74 297L71 296M82 296L82 297L85 297L82 296M93 296L93 297L96 297L93 296M104 296L104 297L107 297L104 296M115 296L115 297L118 297L115 296M126 296L126 297L129 297L126 296M137 296L137 297L140 297L137 296M148 296L148 297L151 297L148 296M159 296L159 297L162 297L159 296M170 296L170 297L173 297L170 296M181 296L181 297L184 297L181 296M192 296L192 297L195 297L192 296M203 296L203 297L206 297L203 296M214 296L214 297L217 297L214 296M225 296L225 297L228 297L225 296M236 296L236 297L239 297L236 296M247 296L247 297L250 297L247 296M258 296L258 297L261 297L258 296M269 296L269 297L272 297L269 296M280 296L280 297L283 297L280 296M291 296L291 297L294 297L291 296M302 296L302 297L305 297L302 296M313 296L313 297L316 297L313 296M324 296L324 297L327 297L324 296M335 296L335 297L339 297L335 296M346 296L346 297L349 297L346 296M357 296L357 297L360 297L357 296z"/>
</svg>
